<svg width="715" height="859" viewBox="0 0 715 859" fill="none" xmlns="http://www.w3.org/2000/svg">

<g clip-path="url(#clip0_2_2)">
<path fill-rule="evenodd" clip-rule="evenodd" d="M499.102 557.519C499.782 558.909 502.892 561.169 505.882 562.299C508.862 563.419 512.002 564.799 513.732 567.219C515.462 569.639 515.792 573.119 513.152 578.429C535.802 582.899 522.952 614.939 547.312 626.609C555.902 662.929 542.852 688.549 520.142 713.739C514.622 729.369 529.192 733.379 541.622 726.449C538.642 744.759 507.732 751.459 497.712 770.889C478.442 746.759 483.722 807.869 500.452 787.319C519.272 785.989 504.022 811.669 527.412 809.519C521.222 818.329 527.822 830.749 512.202 834.759C511.582 845.429 488.122 843.199 511.412 852.079C513.992 864.749 476.002 851.199 466.302 854.319C466.232 840.009 436.912 870.039 449.262 844.229C422.202 823.249 458.892 806.079 459.202 783.249C450.052 761.869 480.762 756.509 466.302 743.529C468.862 741.119 470.052 739.179 470.172 737.559C470.292 735.949 469.342 734.669 467.632 733.579C465.912 732.489 463.432 731.589 460.502 730.759C457.562 729.919 454.172 729.139 450.632 728.279C447.082 727.419 443.382 726.479 439.842 725.319C436.292 724.169 432.902 722.799 429.972 721.079C427.032 719.349 424.562 717.279 423.152 715.359C426.832 716.899 431.862 714.619 432.312 710.869C430.142 704.119 432.142 697.379 438.032 693.189C442.582 688.809 448.972 686.549 455.192 685.879C462.002 683.609 468.742 681.149 475.902 680.109C481.732 677.629 486.762 673.499 492.132 670.139C492.882 666.139 486.112 661.819 484.522 657.269C479.232 651.539 482.202 643.429 479.142 637.069C473.552 631.199 476.222 623.179 474.992 616.049C472.632 608.169 480.692 612.719 484.082 614.999C490.832 622.149 494.872 606.199 502.002 612.589C505.482 612.789 513.772 618.599 514.382 613.969C513.362 603.569 506.432 594.859 499.002 588.019C494.542 582.769 498.142 574.709 495.232 569.119C488.412 566.569 480.512 562.149 479.922 554.009C478.742 551.439 477.772 551.009 478.822 551.169C479.872 551.329 482.932 552.079 484.302 552.979C487.802 559.199 494.912 554.689 499.102 557.519V557.519Z" fill="white" stroke="black" stroke-width="0.86703"/>
<path fill-rule="evenodd" clip-rule="evenodd" d="M406.812 532.019C403.102 532.399 400.882 540.799 396.302 535.759C389.972 533.869 384.752 540.719 380.912 544.949C375.222 547.989 378.712 557.389 371.592 558.219C365.682 561.659 359.282 561.929 352.792 560.309C345.692 562.309 341.152 557.619 338.102 551.879C335.162 543.419 327.872 552.509 322.932 547.569C320.932 543.999 314.372 542.249 313.532 538.739C306.632 538.559 300.552 534.069 294.212 535.439C290.252 540.099 284.262 544.899 277.792 542.479C271.572 541.069 269.872 549.419 265.512 552.399C263.122 559.409 255.492 560.829 249.962 563.719V563.749C249.972 563.769 249.982 563.809 249.992 563.829C249.992 563.849 250.012 563.889 250.022 563.909C250.022 563.929 250.012 563.969 250.022 563.989C250.142 565.699 245.992 569.369 240.892 572.039C235.482 574.859 228.402 577.459 221.652 578.139C214.892 578.809 208.462 577.569 204.422 572.749C203.672 576.729 202.342 579.769 200.542 582.069C198.752 584.359 196.512 585.919 193.932 586.939C191.352 587.969 188.442 588.459 185.342 588.619C182.252 588.789 178.952 588.609 175.612 588.319C172.282 588.039 171.812 587.659 168.952 587.349C166.752 590.019 164.632 593.189 162.232 596.099C160.662 598.689 156.852 601.389 159.332 604.659C161.982 608.749 164.462 612.999 166.432 617.449C167.042 621.199 165.952 625.019 165.732 628.669C170.322 631.489 174.912 636.879 175.072 644.679C172.822 646.249 173.122 646.599 170.762 647.499C172.212 648.399 172.882 649.779 173.392 651.539C174.752 654.459 176.342 657.699 174.502 660.799C173.912 661.869 173.212 665.369 172.202 665.569C178.492 667.089 181.312 667.849 187.352 671.719C213.882 689.999 193.612 649.759 200.702 644.569C218.082 638.099 231.062 636.569 226.252 654.599C253.292 673.269 270.932 605.589 280.632 647.169C277.022 654.229 266.122 655.379 265.112 656.029C265.102 656.039 265.092 656.059 265.082 656.059C265.082 656.069 265.062 656.079 265.052 656.089V656.119V656.139C265.262 656.579 271.072 656.949 288.732 659.229C300.532 672.379 314.772 652.709 316.532 639.319C343.552 640.089 321.422 672.629 340.862 687.979C362.172 675.699 352.542 701.739 364.272 702.799C386.212 714.099 406.542 681.609 420.312 705.429C420.182 709.099 421.142 712.159 423.152 715.369C426.842 716.909 431.862 714.619 432.312 710.869C430.142 704.119 432.142 697.369 438.032 693.179C442.582 688.799 448.982 686.549 455.202 685.889C462.022 683.619 468.742 681.159 475.902 680.119C481.732 677.629 486.762 673.479 492.132 670.119C492.882 666.129 486.122 661.809 484.522 657.249C479.232 651.529 482.192 643.419 479.132 637.069C473.542 631.199 476.212 623.179 474.982 616.039C472.622 608.159 480.692 612.709 484.092 614.989C490.842 622.139 494.862 606.209 502.002 612.599C505.472 612.799 513.762 618.609 514.382 613.979C513.352 603.589 506.422 594.859 498.992 588.029C494.532 582.769 498.122 574.709 495.222 569.109C488.402 566.569 480.512 562.169 479.912 554.019C479.162 552.379 478.502 551.579 478.402 551.289C478.582 551.229 478.742 551.199 478.832 551.179C478.652 551.149 478.522 551.139 478.452 551.149H478.422L478.402 551.179C478.392 551.179 478.372 551.199 478.372 551.209V551.229V551.259V551.289C477.802 551.439 476.852 551.709 475.902 551.989C469.972 555.049 463.182 554.379 456.752 553.999C449.872 553.489 445.502 546.829 441.332 542.019C437.702 535.919 430.222 533.739 423.562 533.919C418.532 534.639 413.912 538.589 410.012 533.649C408.802 532.349 407.762 531.929 406.812 532.019V532.019ZM301.202 647.629C313.172 648.299 288.262 663.549 301.202 647.629V647.629ZM171.852 665.489C171.872 665.499 171.882 665.509 171.902 665.519C171.882 665.509 171.872 665.489 171.852 665.489ZM171.902 665.519C171.992 665.559 172.062 665.579 172.152 665.569C172.062 665.549 171.992 665.539 171.902 665.519Z" fill="#BE7C3F" stroke="black" stroke-width="0.86703"/>
<path fill-rule="evenodd" clip-rule="evenodd" d="M165.552 628.759C161.452 625.699 157.172 625.279 150.992 624.079C144.812 622.879 138.392 621.719 132.972 619.019C127.562 616.309 123.172 612.049 121.052 604.629C122.782 588.499 176.882 609.019 141.502 592.429C143.132 590.369 145.252 589.009 147.712 588.149C150.172 587.289 152.982 586.929 156.002 586.859C159.022 586.799 165.192 587.019 168.962 587.339C166.762 589.999 164.622 593.189 162.222 596.099C160.652 598.699 156.872 601.389 159.342 604.659C162.002 608.739 164.452 612.999 166.422 617.459C167.032 621.199 165.942 625.029 165.552 628.759ZM171.622 665.199C165.532 664.369 155.472 662.409 149.122 661.489C142.772 660.569 136.532 659.309 130.582 656.609C124.622 653.909 118.952 649.759 113.722 643.069C102.782 653.119 95.402 677.779 76.409 656.339C60.904 657.799 61.667 631.629 46.34 647.629C27.289 642.449 -3.21297 609.889 33.203 606.899C57.267 580.659 59.477 646.439 80.497 617.409C83.052 616.359 85.522 615.649 87.912 615.219C90.292 614.799 92.602 614.669 94.832 614.789C97.072 614.909 99.232 615.269 101.342 615.839C103.442 616.409 105.492 617.179 107.482 618.109C109.472 619.039 111.422 620.129 113.322 621.339C115.222 622.549 117.092 623.869 118.922 625.259C120.752 626.659 122.562 628.119 124.342 629.619C126.122 631.109 127.892 632.629 129.642 634.139C131.392 635.639 133.142 637.129 134.882 638.559C136.632 639.989 138.372 641.359 140.132 642.619C141.882 643.889 143.652 645.049 145.442 646.059C147.222 647.079 149.032 647.939 150.872 648.619C152.712 649.289 154.582 649.769 156.492 650.019C158.402 650.259 160.352 650.269 162.352 649.999C164.352 649.729 168.892 648.349 170.762 647.509C172.212 648.409 172.892 649.779 173.402 651.539C174.762 654.459 176.352 657.699 174.512 660.789C173.842 662.009 173.042 666.319 171.622 665.199V665.199ZM81.811 556.099C79.998 554.739 77.472 557.449 75.242 557.849C73.209 558.219 71.381 559.749 69.55 560.479C67.724 561.209 65.305 563.369 63.419 564.419C60.958 565.789 61.787 567.189 60.791 569.679C59.897 571.909 61.039 573.709 61.667 575.809C62.088 577.209 66.025 578.339 67.36 578.869C69.95 579.909 70.993 579.889 73.929 580.189C76.081 580.399 78.084 578.409 79.622 577.559C81.8 576.349 82.244 575.229 83.562 574.059C85.312 572.499 86.262 571.699 88.382 570.109C90.532 568.499 92.432 574.349 92.762 574.929C94.062 577.269 95.002 576.819 98.012 577.119C102.732 577.589 100.372 577.219 103.272 579.749C104.422 580.759 104.262 584.739 104.582 586.319C105.182 589.339 105.672 589.599 106.772 591.569C106.802 591.619 112.532 592.369 112.902 592.449C113.562 592.579 116.482 595.899 117.722 596.829C119.002 597.789 122.942 596.219 124.292 595.949C125.652 595.679 128.502 594.069 129.542 593.759C131.802 593.089 133.262 591.619 134.802 590.699C137.012 589.369 137.602 588.569 139.182 587.189C140.722 585.839 141.002 583.509 141.802 581.499C142.952 578.629 140.242 577.379 139.612 576.249C138.852 574.869 134.462 575.509 133.052 575.369C130.652 575.129 128.562 574.109 126.912 573.619C125.432 573.169 124.872 569.849 124.292 568.799C123.112 566.669 122.302 565.059 121.222 563.109C120.362 561.549 116.952 560.779 115.092 560.039C113.332 559.339 109.892 559.099 107.652 558.729C105.382 558.349 103.462 558.089 101.082 557.849C98.812 557.629 96.612 557.629 94.512 557.409C92.292 557.189 89.712 556.539 87.502 556.099C85.852 555.769 83.432 556.099 81.811 556.099V556.099ZM85.782 596.869C84.832 596.679 80.84 597.369 78.772 597.749C76.521 598.159 74.374 597.479 72.641 597.309C70.103 597.059 68.331 596.669 66.073 595.999C63.707 595.289 62.031 595.009 60.38 594.679C58.508 594.309 54.437 597.429 52.935 598.179C50.069 599.619 55.357 604.379 57.752 606.509C59.642 608.189 60.948 609.739 62.131 611.319C63.775 613.509 64.073 613.649 65.635 614.829C67.157 615.969 68.929 612.899 70.452 611.759C72.578 610.169 75.187 609.169 77.458 608.259C79.532 607.429 84.122 609.149 86.212 609.569C88.882 610.099 90.902 611.439 93.662 612.199C96.922 613.089 97.032 611.419 98.912 610.009C102.782 607.109 101.452 606.059 101.102 602.559C100.902 600.509 97.032 598.829 95.412 597.749C93.552 596.509 91.012 596.209 88.842 595.559C87.632 595.189 86.722 596.469 85.782 596.869V596.869ZM165.892 675.209C162.282 679.369 159.492 686.249 154.432 690.259C149.912 694.649 144.212 697.619 140.242 702.669C136.482 705.669 132.252 712.639 126.912 708.499C121.092 708.819 120.042 717.019 114.342 717.229C109.412 718.089 104.212 715.919 101.382 721.419C98.172 719.749 99.312 712.259 93.772 716.069C89.472 720.859 80.54 719.009 79.109 712.419C78.48 707.559 81.731 698.969 73.488 699.609C67.157 697.029 61.192 693.379 54.191 695.779C50.19 692.699 44.362 684.819 41.593 693.459C35.833 688.299 30.909 695.899 31.931 701.649C32.187 709.549 23.272 707.679 18.314 706.309C12.58 705.539 7.23103 702.769 4.06903 697.829C0.861028 693.009 0.0160282 686.369 3.30503 681.359C5.98903 676.119 0.555028 671.789 0.597028 666.719C-0.375972 668.479 11.84 663.039 16.715 660.679C22.415 659.649 29.462 654.689 35.392 657.259C42.271 658.449 43.227 665.839 50.293 666.519C56.284 668.339 63.142 668.169 67.091 673.859C70.978 676.469 76.697 685.829 81.039 680.759C81.945 677.089 85.982 673.489 87.862 678.959C92.072 683.639 100.142 680.959 102.472 675.519C107.042 671.639 115.872 675.399 114.992 666.719C113.652 660.319 121.912 655.999 125.402 662.269C126.192 668.219 131.562 671.939 137.112 673.199C141.672 672.499 145.172 677.589 147.882 678.399C146.682 675.469 144.792 670.719 149.882 673.599C154.752 676.979 152.742 664.499 158.562 669.419C161.642 670.419 163.552 673.159 165.892 675.209V675.209Z" fill="white" stroke="black" stroke-width="0.86703"/>
<path fill-rule="evenodd" clip-rule="evenodd" d="M250.042 563.589C249.322 562.799 246.292 562.779 236.832 565.739C198.282 583.699 173.932 533.839 139.612 528.949C134.312 517.729 125.372 517.969 130.982 508.579C132.102 506.709 123.382 506.089 121.392 504.509C119.412 502.919 122.352 500.179 125.602 493.479C119.792 471.479 138.572 490.809 147.062 487.789C146.192 482.519 146.142 476.879 149.032 472.899C154.242 465.559 164.062 456.349 170.712 449.249C177.902 440.459 184.762 431.849 191.102 423.139C197.442 414.419 205.192 401.749 210.322 392.569C212.882 387.979 215.272 383.299 217.462 378.539C221.872 381.509 226.492 383.209 231.832 381.839C235.262 380.479 237.542 380.749 237.412 384.659C240.112 390.499 235.542 396.749 232.712 401.759C230.152 406.449 230.492 413.569 236.332 415.349C241.152 414.519 248.682 417.089 251.682 412.829C254.532 408.439 257.222 403.659 260.832 399.759C264.462 397.669 262.202 406.599 262.642 408.859C262.052 411.749 261.312 417.649 265.882 414.209C268.132 412.439 270.692 411.289 273.282 409.909C274.462 412.179 276.212 414.459 278.112 416.659C281.252 422.399 287.142 425.599 291.462 429.949C292.812 438.289 285.092 436.349 279.752 438.099C270.582 439.679 282.442 443.969 281.442 448.349C278.532 455.259 286.562 455.009 287.822 460.089C293.262 468.069 280.292 463.169 280.392 469.489C277.392 474.179 281.722 474.639 285.342 474.249C291.682 474.449 285.642 477.459 282.932 478.239C281.262 483.289 287.412 489.609 290.352 494.009C292.462 499.629 297.292 496.879 299.402 492.889C304.512 486.069 314.212 490.719 320.692 486.409C324.662 482.339 331.932 474.959 336.962 481.769C337.862 482.999 338.832 484.319 339.742 485.699C340.642 487.079 341.482 488.519 342.092 489.999C342.702 491.479 343.092 492.999 343.102 494.529C343.112 496.069 342.752 497.629 341.862 499.189C338.962 504.549 339.532 513.849 331.422 513.719C325.002 514.709 322.992 523.969 316.282 523.569C310.472 522.649 314.612 527.329 315.762 529.909C320.822 532.769 317.152 537.419 312.972 538.729C306.642 538.559 300.562 534.059 294.222 535.429C290.272 540.089 284.252 544.899 277.782 542.479C271.572 541.069 269.872 549.409 265.512 552.389C263.112 559.409 255.492 560.829 250.042 563.589V563.589ZM168.082 557.409C167.362 556.329 165.762 553.849 164.572 551.719C163.092 549.039 159.462 548.279 157.132 547.339C154.172 546.159 151.852 544.549 148.812 542.529C146.782 541.169 144.842 539.329 142.682 537.709C140.742 536.259 139.362 536.099 137.422 534.639C135.762 533.399 134.252 532.369 132.612 531.139C130.332 529.429 127.732 527.599 125.602 526.319C122.412 524.409 122.432 524.569 118.592 524.569C117.242 524.569 113.482 527.059 112.032 527.639C109.362 528.699 107.142 529.499 104.582 530.259C102.272 530.959 100.072 532.299 98.012 533.329C94.992 534.839 95.202 536.979 94.072 539.459C92.872 542.089 94.922 543.359 96.262 545.149C97.132 546.309 101.002 544.219 101.952 543.839C104.052 542.999 105.052 542.339 106.772 541.649C108.902 540.799 110.942 540.179 113.342 539.459C115.062 538.939 116.582 538.579 119.032 538.579C121.932 538.579 122.622 539.669 124.292 540.339C125.472 540.809 126.402 544.749 126.912 546.029C127.832 548.309 128.192 550.229 128.672 552.599C129.082 554.669 129.742 556.359 129.982 558.729C130.192 560.809 131.532 562.389 132.172 563.979C133.232 566.639 135.642 565.949 137.862 566.609C139.592 567.129 142.782 566.879 144.432 567.049C146.652 567.269 148.922 569.199 150.562 570.109C152.002 570.909 153.372 572.499 155.382 573.619C157.632 574.869 159.602 575.539 161.952 576.249C164.552 577.029 166.052 577.989 167.642 578.869C169.482 579.889 170.562 581.979 172.022 583.249C172.802 583.939 177.452 583.249 178.592 583.249C182.002 583.249 184.032 583.579 187.352 583.249C189.212 583.069 191.422 581.279 192.602 580.619C195.332 579.109 193.892 578.649 195.232 576.249C195.522 575.719 189.782 572.879 189.542 572.739C188.002 571.889 186.102 569.729 184.282 568.359C182.292 566.869 180.602 565.599 179.032 564.419C176.702 562.679 173.982 562.279 171.582 560.479C170.342 559.549 169.252 558.439 168.082 557.409V557.409Z" fill="#BE7C3F" stroke="black" stroke-width="0.86703"/>
<path fill-rule="evenodd" clip-rule="evenodd" d="M280.182 117.749C271.532 131.699 233.652 183.049 268.802 176.429C284.862 160.779 300.002 142.619 286.312 122.129C288.032 114.439 282.762 113.909 280.182 117.749V117.749ZM245.152 179.059C225.092 191.759 269.872 180.639 245.152 179.059V179.059ZM273.332 410.309C270.692 411.289 268.132 412.439 265.882 414.209C261.312 417.649 262.052 411.749 262.642 408.859C262.202 406.599 264.462 397.669 260.832 399.759C257.222 403.659 254.532 408.439 251.682 412.829C248.682 417.089 241.152 414.519 236.332 415.349C230.492 413.569 230.152 406.449 232.712 401.759C235.542 396.749 240.112 390.499 237.412 384.659C237.542 380.749 235.262 380.479 231.832 381.839C226.492 383.209 221.872 381.509 217.462 378.539C219.662 373.679 221.662 368.739 223.442 363.649C227.002 353.459 227.752 346.489 229.392 334.739C233.242 320.949 238.032 307.939 239.022 294.669C236.542 258.819 253.862 227.539 254.572 191.099C277.042 167.339 271.212 221.279 295.072 212.339C292.182 181.139 332.732 197.429 330.982 223.719C318.722 253.769 344.612 253.079 361.412 253.119C365.722 284.279 330.852 290.619 309.662 289.449C309.242 308.989 331.732 324.149 319.162 343.279C340.442 357.589 277.192 370.019 320.832 376.289C337.582 372.389 343.802 390.309 361.422 386.409C363.662 389.829 362.812 389.969 365.452 392.659C361.612 397.179 358.872 402.099 356.942 407.459C356.132 413.719 351.982 418.669 346.692 421.839C343.842 426.289 332.272 425.589 335.832 419.099C340.692 413.249 333.492 410.699 328.462 410.069C323.712 411.969 320.142 408.659 321.872 403.779C322.052 399.839 332.422 394.239 324.442 392.519C318.932 393.919 318.062 387.649 314.282 386.189C307.712 381.239 310.812 394.139 304.972 394.619C299.842 395.169 297.162 401.589 291.952 400.339C285.592 396.699 285.172 404.839 281.232 407.349C278.682 408.489 275.972 409.319 273.332 410.309V410.309Z" fill="white" stroke="black" stroke-width="0.86703"/>
<path fill-rule="evenodd" clip-rule="evenodd" d="M339.742 485.699C344.442 485.829 346.102 492.189 351.132 491.259C356.042 493.059 359.272 488.089 363.082 487.329C365.702 491.029 368.232 495.699 373.742 494.009C379.082 494.299 383.842 491.169 388.452 488.919C392.892 486.689 398.002 484.269 402.992 486.269C407.992 486.319 411.282 490.049 415.182 492.589C419.572 495.929 424.882 497.969 430.412 498.119C432.752 495.859 432.572 490.739 430.232 487.679C428.152 483.289 423.762 480.459 421.912 475.879C419.252 471.539 417.692 466.699 417.762 461.569C417.412 457.199 418.712 449.309 411.822 451.669C408.052 452.969 403.462 460.059 399.732 456.019C396.202 450.739 403.362 448.549 404.822 444.279C404.822 440.739 405.862 435.189 401.192 434.259C396.652 433.029 392.262 430.839 388.752 427.739C389.552 424.499 395.542 422.589 391.202 419.149C388.472 415.319 385.512 411.009 386.012 406.079L386.372 405.409L386.412 404.109C382.872 403.199 379.912 402.269 377.042 400.849C374.172 399.439 368.072 394.779 365.452 392.659C361.612 397.179 358.872 402.099 356.942 407.459C356.132 413.719 351.982 418.669 346.692 421.839C343.842 426.289 332.272 425.589 335.832 419.099C340.692 413.249 333.492 410.699 328.462 410.069C323.712 411.969 320.142 408.659 321.872 403.779C322.052 399.839 332.422 394.239 324.442 392.519C318.932 393.919 318.062 387.649 314.282 386.189C307.712 381.239 310.812 394.139 304.972 394.619C299.842 395.169 297.162 401.589 291.952 400.339C285.592 396.699 285.172 404.839 281.232 407.349C278.682 408.489 275.972 409.319 273.282 409.909C274.462 412.179 276.212 414.459 278.112 416.659C281.252 422.399 287.142 425.599 291.462 429.949C292.812 438.289 285.092 436.349 279.752 438.099C270.582 439.679 282.442 443.969 281.442 448.349C278.532 455.259 286.562 455.009 287.822 460.089C293.262 468.069 280.292 463.169 280.392 469.489C277.392 474.179 281.722 474.639 285.342 474.249C291.682 474.449 285.642 477.459 282.932 478.239C281.262 483.289 287.412 489.609 290.352 494.009C292.462 499.629 297.292 496.879 299.402 492.889C304.512 486.069 314.212 490.719 320.692 486.409C324.662 482.339 331.932 474.959 336.962 481.769C337.862 482.999 338.832 484.319 339.742 485.699V485.699Z" fill="#BE7C3F" stroke="black" stroke-width="0.86703"/>
<path fill-rule="evenodd" clip-rule="evenodd" d="M478.822 551.169C478.482 551.259 477.192 551.609 475.902 551.999C469.972 555.049 463.172 554.389 456.742 554.009C449.862 553.509 445.512 546.839 441.342 542.029C437.712 535.929 430.222 533.739 423.552 533.919C418.532 534.639 413.902 538.599 410.002 533.659C404.072 527.269 402.052 542.079 396.302 535.759C389.972 533.859 384.752 540.729 380.912 544.959C375.222 547.999 378.702 557.379 371.582 558.219C365.682 561.649 359.272 561.929 352.782 560.309C345.682 562.309 341.152 557.609 338.102 551.879C335.162 543.409 327.872 552.519 322.932 547.579C320.932 543.999 314.382 542.249 313.542 538.739C317.152 537.419 320.822 532.769 315.762 529.909C314.612 527.329 310.472 522.649 316.282 523.569C322.992 523.969 325.002 514.709 331.422 513.719C339.532 513.849 338.962 504.549 341.862 499.189C342.752 497.629 343.112 496.069 343.102 494.529C343.092 492.999 342.702 491.479 342.092 489.999C341.482 488.519 340.642 487.079 339.902 485.709C344.442 485.829 346.102 492.189 351.132 491.259C356.042 493.059 359.272 488.089 363.082 487.329C365.702 491.029 368.232 495.699 373.742 494.009C379.082 494.299 383.842 491.169 388.452 488.919C392.892 486.689 398.002 484.269 402.992 486.269C407.992 486.319 411.282 490.049 415.182 492.589C419.572 495.929 424.882 497.969 430.412 498.119C432.752 495.859 432.572 490.739 430.232 487.679C428.152 483.289 423.762 480.459 421.912 475.879C419.252 471.539 417.692 466.699 417.762 461.569C417.412 457.199 418.712 449.309 411.822 451.669C408.052 452.969 403.462 460.059 399.732 456.019C396.202 450.739 403.362 448.549 404.822 444.279C404.822 440.739 405.862 435.189 401.192 434.259C396.652 433.029 392.262 430.839 388.752 427.739C389.552 424.499 395.542 422.589 391.202 419.149C388.472 415.319 385.512 411.009 386.012 406.079L386.372 405.409L386.412 404.109C388.802 404.129 391.772 404.129 394.692 403.679C397.602 403.229 400.452 402.329 403.172 401.009C405.882 399.679 408.462 397.919 410.832 395.749C413.202 393.579 415.362 390.999 417.242 388.019C419.122 385.039 420.712 381.669 421.952 377.919C426.352 373.119 432.652 368.369 439.292 363.339C445.932 358.319 452.912 353.029 458.682 347.159C464.452 341.299 470.862 330.639 471.712 322.829C477.252 324.219 481.422 328.449 483.812 333.259C489.242 340.069 495.732 333.709 498.312 327.819C505.102 327.679 510.642 335.479 515.122 340.329C521.572 344.229 513.252 351.059 518.152 354.179C528.052 356.239 517.872 363.769 516.332 368.859C513.032 372.549 501.972 378.099 511.532 381.639C518.262 384.429 522.292 390.279 523.402 397.369C523.342 407.969 534.172 404.019 540.632 407.429C547.422 409.279 555.972 412.509 562.052 407.309C564.762 400.959 577.582 397.119 577.112 407.199C579.572 414.029 585.412 420.489 592.842 421.759C599.992 418.969 606.702 421.069 612.852 424.399C620.392 417.829 623.852 428.159 623.322 434.529C626.462 441.559 636.872 436.699 641.192 442.759C642.522 457.259 617.062 461.379 644.202 468.389C674.182 478.479 645.422 518.869 625.412 503.669C611.462 516.389 590.212 520.109 574.852 523.009C576.442 537.259 537.362 510.139 525.852 509.239C512.562 515.819 551.482 532.019 519.282 522.379C506.372 530.019 486.942 532.719 502.212 552.159C498.372 555.479 497.522 556.069 498.872 557.499C494.912 554.689 487.802 559.199 484.302 552.979C482.932 552.079 479.872 551.329 478.822 551.169V551.169Z" fill="#BE7C3F" stroke="black" stroke-width="0.86703"/>
<path fill-rule="evenodd" clip-rule="evenodd" d="M426.012 295.099C421.342 296.629 413.872 296.949 409.722 302.269C403.152 304.199 405.802 314.699 396.672 311.749C389.452 315.739 387.932 325.529 383.552 330.219C378.742 331.749 390.052 340.969 379.172 340.659C373.702 335.259 372.252 340.409 370.342 345.089C362.322 347.759 353.602 346.039 347.032 352.819C339.872 355.489 332.492 358.819 335.332 367.919C332.512 375.949 340.332 380.669 345.002 373.489C354.332 370.889 362.782 377.219 369.512 382.999C375.762 388.669 381.962 396.709 388.362 400.919C396.242 397.879 406.832 398.799 410.872 389.979C412.122 382.669 415.352 385.409 411.752 370.309C415.642 362.259 426.632 373.659 429.512 362.979C431.972 352.409 444.152 354.959 451.222 349.769C457.232 342.249 464.982 334.819 466.262 324.819C467.562 316.119 463.762 301.429 452.572 303.429C443.382 304.439 434.072 299.109 426.012 295.099V295.099ZM455.902 234.509C454.922 232.969 453.182 230.069 451.762 228.909C449.682 227.069 447.402 225.429 445.092 223.889C444.182 223.429 442.052 223.269 440.382 222.769C433.332 219.499 432.132 228.579 428.092 231.779C426.302 237.559 422.842 242.359 417.692 245.619C415.702 251.089 414.652 257.079 416.222 262.789C417.092 268.329 414.312 275.569 419.642 279.469C425.112 282.579 425.742 290.609 431.712 292.329C438.152 295.319 444.882 291.349 451.352 290.679C457.752 291.919 464.402 290.999 470.352 288.359C475.812 286.219 481.392 284.559 487.292 284.809C492.122 279.849 480.792 278.519 476.782 278.639C477.402 274.749 484.362 267.029 488.602 264.369C486.712 263.109 484.232 260.819 483.072 259.009C481.672 256.219 480.042 253.529 477.772 251.359C476.222 249.309 474.272 247.569 471.882 246.569C468.832 245.119 466.362 242.789 463.762 240.709C461.812 239.589 459.712 238.749 457.682 237.779C456.552 236.389 456.612 236.129 455.772 234.549" fill="#BE7C3F"/>
<path d="M455.902 234.509C454.922 232.969 453.182 230.069 451.762 228.909C449.682 227.069 447.402 225.429 445.092 223.889C444.182 223.429 442.052 223.269 440.382 222.769C433.332 219.499 432.132 228.579 428.092 231.779C426.302 237.559 422.842 242.359 417.692 245.619C415.702 251.089 414.652 257.079 416.222 262.789C417.092 268.329 414.312 275.569 419.642 279.469C425.112 282.579 425.742 290.609 431.712 292.329C438.152 295.319 444.882 291.349 451.352 290.679C457.752 291.919 464.402 290.999 470.352 288.359C475.812 286.219 481.392 284.559 487.292 284.809C492.122 279.849 480.792 278.519 476.782 278.639C477.402 274.749 484.362 267.029 488.602 264.369C486.712 263.109 484.232 260.819 483.072 259.009C481.672 256.219 480.042 253.529 477.772 251.359C476.222 249.309 474.272 247.569 471.882 246.569C468.832 245.119 466.362 242.789 463.762 240.709C461.812 239.589 459.712 238.749 457.682 237.779C456.552 236.389 456.612 236.129 455.772 234.549M426.012 295.099C421.342 296.629 413.872 296.949 409.722 302.269C403.152 304.199 405.802 314.699 396.672 311.749C389.452 315.739 387.932 325.529 383.552 330.219C378.742 331.749 390.052 340.969 379.172 340.659C373.702 335.259 372.252 340.409 370.342 345.089C362.322 347.759 353.602 346.039 347.032 352.819C339.872 355.489 332.492 358.819 335.332 367.919C332.512 375.949 340.332 380.669 345.002 373.489C354.332 370.889 362.782 377.219 369.512 382.999C375.762 388.669 381.962 396.709 388.362 400.919C396.242 397.879 406.832 398.799 410.872 389.979C412.122 382.669 415.352 385.409 411.752 370.309C415.642 362.259 426.632 373.659 429.512 362.979C431.972 352.409 444.152 354.959 451.222 349.769C457.232 342.249 464.982 334.819 466.262 324.819C467.562 316.119 463.762 301.429 452.572 303.429C443.382 304.439 434.072 299.109 426.012 295.099V295.099Z" stroke="black" stroke-width="0.86703"/>
<path fill-rule="evenodd" clip-rule="evenodd" d="M515.102 221.159C519.702 224.739 524.752 228.979 528.372 234.459C532.372 236.039 532.302 239.669 529.072 242.139C526.712 246.499 519.882 246.339 519.192 251.829C519.672 256.099 519.142 261.219 521.712 264.929C523.712 268.459 526.992 270.939 531.072 271.379C537.852 273.829 545.722 272.029 551.912 276.199C555.372 278.819 561.292 278.879 562.872 283.459C562.422 287.509 564.392 291.299 569.072 289.699C573.342 290.299 577.042 294.379 581.582 292.539C586.992 294.489 589.432 290.339 588.752 285.319C588.472 280.159 591.462 276.899 596.072 275.159C599.662 272.219 604.772 271.709 609.002 273.409C614.762 276.699 620.732 279.699 626.052 283.569C624.802 284.099 624.432 285.109 624.592 286.409C624.742 287.719 625.432 289.319 626.362 291.089C627.302 292.849 628.472 294.779 629.622 296.719C630.762 298.659 631.862 300.629 632.652 302.479C633.432 304.319 633.902 306.049 633.762 307.519C633.622 308.989 632.882 310.199 631.252 311.019C629.632 311.829 627.112 312.249 623.432 312.129C620.252 339.799 658.582 345.849 674.742 339.329C692.592 332.599 699.262 377.159 690.512 392.759C707.032 406.339 677.742 410.569 673.872 419.909C660.552 426.539 659.232 446.699 641.192 442.759C636.872 436.699 626.462 441.559 623.322 434.529C623.852 428.159 620.392 417.829 612.852 424.399C606.702 421.069 599.992 418.969 592.842 421.759C585.412 420.489 579.572 414.029 577.112 407.199C577.582 397.119 564.762 400.959 562.052 407.309C555.972 412.509 547.422 409.279 540.632 407.429C534.172 404.019 523.342 407.969 523.402 397.369C522.292 390.279 518.262 384.429 511.532 381.639C501.972 378.099 513.032 372.549 516.332 368.859C517.872 363.769 528.052 356.239 518.152 354.179C513.252 351.059 521.572 344.229 515.122 340.329C510.642 335.479 505.102 327.679 498.312 327.819C495.732 333.709 489.242 340.069 483.812 333.259C481.422 328.449 477.252 324.219 471.712 322.829C471.802 316.889 471.372 323.109 471.372 323.109C471.802 316.889 471.672 311.999 466.282 302.839C460.052 287.909 473.402 294.739 476.662 291.289C481.642 288.069 489.142 291.389 493.822 287.449C499.042 285.359 497.942 275.579 491.482 277.189C486.222 277.159 482.882 271.239 487.842 268.149C489.312 265.969 489.122 263.899 488.552 264.319C486.712 263.109 484.232 260.819 483.072 259.009C481.672 256.219 480.042 253.529 477.772 251.359C476.222 249.309 474.272 247.569 471.882 246.569C468.832 245.119 466.362 242.789 463.762 240.709C461.812 239.589 459.712 238.749 457.682 237.779C456.552 236.389 456.612 236.129 455.832 234.529C457.752 230.569 457.892 231.629 462.652 231.149C466.032 230.809 468.702 232.519 471.492 233.359C474.962 234.399 477.142 232.059 479.772 230.599C481.672 229.539 483.512 227.269 484.742 226.179C485.982 225.079 488.052 226.179 489.712 226.179C492.112 226.179 493.562 229.149 495.792 230.039C496.702 230.409 502.522 227.129 503.522 226.729C506.712 225.449 509.902 224.399 512.352 223.419C513.642 222.899 514.422 222.069 515.102 221.159V221.159Z" fill="#BE7C3F" stroke="black" stroke-width="0.86703"/>
<path fill-rule="evenodd" clip-rule="evenodd" d="M626.112 283.609C620.732 279.699 614.762 276.699 609.002 273.409C604.772 271.709 599.662 272.219 596.072 275.159C591.462 276.899 588.472 280.159 588.752 285.319C589.432 290.339 586.992 294.489 581.582 292.539C577.042 294.379 573.342 290.299 569.072 289.699C564.392 291.299 562.422 287.509 562.872 283.459C561.292 278.879 555.372 278.819 551.912 276.199C545.722 272.029 537.852 273.829 531.072 271.379C526.992 270.939 523.712 268.459 521.712 264.929C519.142 261.219 519.672 256.099 519.192 251.829C519.882 246.339 526.712 246.499 529.072 242.139C532.302 239.669 532.372 236.039 528.372 234.459C524.752 228.979 519.702 224.739 515.112 220.629C515.792 220.249 516.392 219.269 517.322 218.449C519.292 216.729 520.182 214.729 521.192 212.929C522.202 211.099 526.192 210.649 527.812 210.159C529.932 209.529 532.312 206.119 533.342 205.189C535.352 203.379 536.682 202.639 538.312 200.779C540.952 197.749 541.202 198.229 544.932 196.359C548.552 194.549 550.222 198.749 552.112 200.219C555.432 202.809 555.842 201.729 559.842 201.329C564.042 200.909 564.262 198.889 566.472 196.359C567.952 194.659 568.712 192.219 569.782 190.279C571.052 188.009 571.422 187.019 572.552 184.209C573.992 180.609 570.632 180.359 568.132 178.689C564.682 176.389 563.222 174.659 560.952 172.059C558.832 169.629 560.132 165.309 560.402 162.669C560.622 160.389 559.252 157.489 558.742 154.939C558.052 151.519 554.952 150.579 552.672 148.869C550.892 147.529 549.232 146.479 548.442 145.059C551.282 145.239 554.722 145.519 557.772 144.709C559.442 139.699 557.802 132.879 561.062 127.649C562.732 121.269 569.072 118.679 572.412 113.479C576.892 107.219 587.042 108.689 589.662 115.729C587.502 124.639 599.792 120.689 599.952 128.119C601.542 134.819 608.772 139.939 615.162 135.489C620.772 132.579 628.642 133.459 631.012 140.089C636.162 146.099 642.122 151.439 647.192 157.559C651.702 164.019 656.982 169.649 663.292 174.369C669.842 179.059 670.402 188.749 677.602 192.289C686.772 194.999 676.242 203.389 681.802 208.439C682.812 215.229 688.802 216.279 694.782 218.569C689.552 233.929 688.462 247.249 690.072 267.949C695.202 301.929 649.852 266.109 632.272 283.279C629.172 282.829 627.172 282.959 625.992 283.529" fill="#BE7C3F"/>
<path d="M626.112 283.609C620.732 279.699 614.762 276.699 609.002 273.409C604.772 271.709 599.662 272.219 596.072 275.159C591.462 276.899 588.472 280.159 588.752 285.319C589.432 290.339 586.992 294.489 581.582 292.539C577.042 294.379 573.342 290.299 569.072 289.699C564.392 291.299 562.422 287.509 562.872 283.459C561.292 278.879 555.372 278.819 551.912 276.199C545.722 272.029 537.852 273.829 531.072 271.379C526.992 270.939 523.712 268.459 521.712 264.929C519.142 261.219 519.672 256.099 519.192 251.829C519.882 246.339 526.712 246.499 529.072 242.139C532.302 239.669 532.372 236.039 528.372 234.459C524.752 228.979 519.702 224.739 515.112 220.629C515.792 220.249 516.392 219.269 517.322 218.449C519.292 216.729 520.182 214.729 521.192 212.929C522.202 211.099 526.192 210.649 527.812 210.159C529.932 209.529 532.312 206.119 533.342 205.189C535.352 203.379 536.682 202.639 538.312 200.779C540.952 197.749 541.202 198.229 544.932 196.359C548.552 194.549 550.222 198.749 552.112 200.219C555.432 202.809 555.842 201.729 559.842 201.329C564.042 200.909 564.262 198.889 566.472 196.359C567.952 194.659 568.712 192.219 569.782 190.279C571.052 188.009 571.422 187.019 572.552 184.209C573.992 180.609 570.632 180.359 568.132 178.689C564.682 176.389 563.222 174.659 560.952 172.059C558.832 169.629 560.132 165.309 560.402 162.669C560.622 160.389 559.252 157.489 558.742 154.939C558.052 151.519 554.952 150.579 552.672 148.869C550.892 147.529 549.232 146.479 548.442 145.059C551.282 145.239 554.722 145.519 557.772 144.709C559.442 139.699 557.802 132.879 561.062 127.649C562.732 121.269 569.072 118.679 572.412 113.479C576.892 107.219 587.042 108.689 589.662 115.729C587.502 124.639 599.792 120.689 599.952 128.119C601.542 134.819 608.772 139.939 615.162 135.489C620.772 132.579 628.642 133.459 631.012 140.089C636.162 146.099 642.122 151.439 647.192 157.559C651.702 164.019 656.982 169.649 663.292 174.369C669.842 179.059 670.402 188.749 677.602 192.289C686.772 194.999 676.242 203.389 681.802 208.439C682.812 215.229 688.802 216.279 694.782 218.569C689.552 233.929 688.462 247.249 690.072 267.949C695.202 301.929 649.852 266.109 632.272 283.279C629.172 282.829 627.172 282.959 625.992 283.529" stroke="black" stroke-width="0.86703"/>
<path fill-rule="evenodd" clip-rule="evenodd" d="M546.004 13.9631C547.677 12.0443 541.496 16.5286 538.999 17.028C536.935 17.4398 534.793 18.7447 532.427 19.2181C530.025 19.6984 527.788 19.4539 525.421 19.2181C523.505 19.0265 520.54 19.6559 518.415 19.6559C515.632 19.6559 514.124 20.4172 512.286 20.9694C511.393 21.2365 509.598 25.5343 509.216 26.2245C508.662 27.2293 509.52 31.4136 509.659 32.793C509.997 36.1935 513.421 34.299 515.346 34.1065C515.806 34.0606 518.173 30.4885 518.415 30.1651C519.846 28.255 521.988 29.0492 524.103 28.4137C526.297 27.7573 528.256 27.9351 530.233 27.538C532.401 27.1053 533.918 25.9791 535.496 25.3488C537.499 24.5468 538.764 23.3139 540.308 22.283C542.059 21.116 542.666 20.7796 544.686 19.6559C546.377 18.7178 549.229 19.2181 551.258 19.2181C552.888 19.2181 550.669 16.0066 550.383 14.4009C549.966 12.1293 546.654 14.0272 546.004 13.9631V13.9631Z" fill="white" stroke="black" stroke-width="0.86702"/>
<path fill-rule="evenodd" clip-rule="evenodd" d="M425.141 29.7272C424.639 26.9562 420.286 30.1321 419.887 30.1651C418.396 30.2891 418.301 35.0126 418.136 35.8579C417.841 37.3171 420.321 40.7575 420.763 41.5508C421.691 43.2259 425.792 43.7166 427.326 44.1787C429.997 44.9798 431.02 43.0533 432.581 42.4273C434.089 41.8256 435.528 40.1063 436.525 39.3616C438.008 38.2457 439.655 37.4264 440.904 36.7345C442.829 35.6628 444.589 35.4721 447.034 34.9822C447.259 34.938 453.007 36.7024 453.164 36.7345C454.941 37.0891 458.981 35.6585 460.169 35.4201C461.738 35.1079 464.374 34.1169 465.865 33.6687C467.686 33.1233 469.49 32.8424 471.12 32.3552C473.14 31.7482 475.871 32.6118 477.692 32.793C479.209 32.9456 482.261 32.0725 483.821 31.9173C485.911 31.7084 487.021 30.622 488.633 29.7272C490.523 28.6807 485.053 27.0845 482.946 26.6623C480.587 26.1915 478.325 25.7823 475.94 25.3488C473.556 24.9161 471.137 25.5655 468.926 25.7866C466.984 25.9808 464.53 27.1036 462.363 27.538C460.36 27.9386 457.837 27.538 455.791 27.538C453.259 27.538 451.43 27.9732 449.227 28.4137C447.051 28.8481 445.048 30.635 443.531 31.4795C441.155 32.7973 437.939 33.2881 435.208 34.1065C432.823 34.8236 430.101 33.6106 428.202 33.2309C425.878 32.7653 426.693 31.5064 425.141 29.7272V29.7272Z" fill="white" stroke="black" stroke-width="0.86702"/>
<path fill-rule="evenodd" clip-rule="evenodd" d="M405.868 37.1723C406.015 36.3608 403.353 39.3512 402.443 40.0586C400.353 42.2843 397.726 43.9013 394.761 44.6348C391.605 45.39 392.602 49.68 390.981 51.7235C387.747 52.581 384.721 50.2297 381.461 50.3606C378.6 49.6869 376.155 50.847 374.828 53.4914C373.216 56.3187 369.592 56.1523 366.869 57.1233C362.612 57.9175 358.303 58.4976 354.193 59.9438C350.526 60.9824 348.835 63.0954 345.133 64.0664C342.168 64.4956 341.058 71.3824 339.411 71.261C336.662 72.9603 333.48 68.464 333.255 66.2834C334.156 63.7777 335.492 60.607 337.963 59.31C343.546 55.8722 347.708 51.2042 354.211 49.5603C358.381 48.0638 362.551 46.5882 366.843 45.4611C371.516 43.8588 376.58 44.503 381.348 43.303C384.565 42.4846 387.478 40.7948 390.651 39.8263C395.377 37.6041 400.206 35.3542 405.373 34.4239C406.457 34.7013 404.463 36.5871 405.868 37.1723V37.1723Z" fill="white" stroke="black" stroke-width="0.86702"/>
<path fill-rule="evenodd" clip-rule="evenodd" d="M336.679 80.0872C333.194 80.252 333.836 80.8155 332.743 84.4657C331.347 89.1129 335.214 84.8818 335.37 84.9078C338.734 85.4627 336.489 81.0236 336.679 80.0872Z" fill="white" stroke="black" stroke-width="0.86702"/>
<path fill-rule="evenodd" clip-rule="evenodd" d="M359.014 93.6647C360.757 93.9509 356.82 96.7166 356.82 98.4767C356.82 102.699 361.129 96.3872 361.207 96.2918C362.456 94.6271 359.248 93.9509 359.014 93.6647V93.6647Z" fill="white" stroke="black" stroke-width="0.86702"/>
<path fill-rule="evenodd" clip-rule="evenodd" d="M321.351 78.7694C321.81 77.5815 319.504 79.3243 318.992 79.541C316.799 80.9716 314.302 82.0554 312.672 84.1882C310.634 86.824 307.842 88.6707 305.319 90.8036C302.519 92.6243 298.695 92.4683 296.38 95.104C294.638 96.8901 292.401 98.1213 290.641 99.8813C288.941 102.491 287.389 105.213 285.447 107.676C285.031 109.696 288.074 110.086 289.496 110.71C291.603 111.274 293.06 110.606 295.158 109.419C298.314 106.948 299.103 107.346 299.97 105.552C303.507 102.222 301.981 101.771 304.314 100.193C306.082 99.3091 307.565 98.1299 307.166 95.9537C307.461 94.2717 306.863 92.2862 307.946 90.8469C309.819 90.11 311.987 90.4048 313.894 89.5117C315.88 89.0609 318.273 89.1563 319.59 87.3182C320.926 85.5581 322.842 84.2489 323.631 82.1074C324.827 80.7982 324.585 79.2809 322.634 79.2289C322.2 79.1075 321.749 78.9948 321.351 78.7694V78.7694Z" fill="white" stroke="black" stroke-width="0.86702"/>
<path fill-rule="evenodd" clip-rule="evenodd" d="M537.611 69.0171C537.828 68.4726 541.47 69.1298 541.626 69.8997C542.276 73.1684 543.316 74.5816 541.626 77.6249C540.446 79.7491 540.412 83.564 539.415 85.3587C537.932 88.0291 537.317 89.3296 535.548 91.9827C534.568 93.4567 530.987 95.6676 531.681 99.1617C532.019 100.852 533.701 106.245 533.337 107.45C533.007 108.56 532.496 111.968 531.135 113.52C529.479 115.41 528.655 117.265 527.268 119.042C526.557 119.953 523.236 122.337 523.401 124.01C523.652 126.568 523.019 128.606 525.612 131.189C527.537 133.114 529.513 136.279 531.681 136.712C534.915 137.363 539.553 137.337 541.626 138.368C544.374 139.747 545.441 138.715 547.695 142.79C548.527 144.281 548.05 144.854 548.64 145.669C549.238 146.484 550.894 147.533 552.671 148.868C554.96 150.576 558.056 151.512 558.741 154.937C559.252 157.495 560.631 160.391 560.397 162.671C560.137 165.307 558.827 169.633 560.951 172.061C563.223 174.653 564.68 176.387 568.13 178.685C570.636 180.358 573.991 180.601 572.552 184.208C571.425 187.017 571.052 188.014 569.786 190.285C568.711 192.219 567.957 194.664 566.474 196.355C564.264 198.886 564.047 200.906 559.85 201.323C555.845 201.73 555.437 202.805 552.117 200.222C550.218 198.748 548.553 194.551 544.938 196.355C541.201 198.227 540.958 197.75 538.314 200.776C536.684 202.64 535.357 203.377 533.337 205.19C532.314 206.117 529.93 209.525 527.823 210.166C526.193 210.652 522.204 211.103 521.19 212.923C520.184 214.735 519.291 216.721 517.323 218.446C516.387 219.261 515.797 220.25 515.112 221.16C514.427 222.062 513.647 222.894 512.355 223.414C509.901 224.394 506.711 225.452 503.52 226.726C502.523 227.125 496.697 230.402 495.786 230.038C493.558 229.154 492.119 226.18 489.717 226.18C488.061 226.18 485.98 225.079 484.749 226.18C483.518 227.273 481.671 229.535 479.772 230.593C477.137 232.058 474.96 234.399 471.492 233.359C468.709 232.518 466.03 230.81 462.657 231.148C457.889 231.625 457.75 230.576 455.903 234.503C454.932 232.969 453.181 230.064 451.768 228.903C449.678 227.064 447.407 225.434 445.1 223.891C444.181 223.432 442.057 223.276 440.626 222.799C444.632 222.2 432.208 220.501 429.953 220.215C423.746 218.533 417.555 220.302 412.223 223.562C406.977 229.223 403.431 221.55 398.42 220.198C393.079 216.435 386.221 221.073 380.793 217.284C377.429 212.958 371.334 207.132 378.851 203.369C381.955 198.314 383.863 192.713 383.108 186.748C382.545 183.176 382.562 178.589 381.851 174.74C378.071 167.587 383.447 160.443 376.536 154.729C372.08 145.955 382.588 139.539 381.695 131.649C383.004 127.444 383.767 124.028 385.423 119.909C387.088 115.756 387.322 111.213 389.143 107.008C393.443 101.823 400.327 99.4998 405.157 94.7572C409.145 88.2459 412.995 81.5178 421.639 80.3386C430.257 77.5902 437.583 72.1887 446.227 69.5755C452.01 66.2374 457.343 61.4541 463.949 59.9342C471.666 61.0518 476.564 55.2167 482.946 52.4215C490.61 49.9583 498.96 51.8354 506.477 48.8606C517.531 44.1735 519.664 59.049 518.719 66.6866C522.638 69.4099 531.967 68.9954 537.611 69.0171V69.0171Z" fill="white" stroke="black" stroke-width="0.86702"/>
<path fill-rule="evenodd" clip-rule="evenodd" d="M594.172 0.825021C595.492 -0.495979 591.252 3.16103 589.792 4.32903C588.442 5.41003 595.372 6.08003 595.922 6.08003C599.342 6.08003 597.212 4.13902 598.552 2.13902C599.392 0.871024 595.632 1.26302 594.172 0.825021ZM577.092 4.76702C578.032 3.36002 570.392 5.05603 569.652 5.20503C568.102 5.51403 571.012 8.19902 572.272 9.14602C573.122 9.78202 577.102 8.83802 578.402 8.70802C582.202 8.32902 580.382 6.44303 581.472 5.20503C582.432 4.10103 578.552 4.91302 577.092 4.76702ZM548.642 145.667C548.052 144.857 548.522 144.277 547.702 142.787C545.432 138.717 544.372 139.747 541.622 138.367C539.552 137.337 534.912 137.357 531.682 136.717C529.512 136.277 527.532 133.117 525.612 131.197C523.022 128.607 523.652 126.567 523.402 124.017C523.232 122.337 526.552 119.957 527.262 119.047C528.652 117.257 529.482 115.407 531.132 113.517C532.492 111.967 533.002 108.557 533.342 107.447C533.702 106.247 532.022 100.847 531.682 99.167C530.982 95.667 534.572 93.457 535.552 91.987C537.312 89.327 537.932 88.027 539.412 85.357C540.412 83.557 540.442 79.747 541.622 77.627C543.312 74.577 542.272 73.167 541.622 69.897C541.472 69.127 537.822 68.467 537.432 68.777C538.002 64.817 526.562 67.307 525.502 62.477C517.822 57.757 531.942 52.977 528.122 50.527C519.382 46.947 529.552 44.097 534.002 45.727C540.812 51.287 553.932 54.897 557.922 43.867C565.092 37.477 575.822 41.737 584.532 40.237C611.062 31.607 652.132 13.657 651.102 57.757C662.172 84.427 694.582 64.957 693.962 93.327C730.482 98.567 698.142 144.307 713.692 167.877C710.142 186.307 701.502 203.457 694.782 218.567C688.802 216.277 682.812 215.227 681.802 208.437C676.242 203.387 686.772 194.997 677.602 192.287C670.402 188.747 669.842 179.057 663.292 174.367C656.982 169.647 651.702 164.017 647.192 157.557C642.122 151.437 636.162 146.097 631.012 140.087C628.642 133.457 620.772 132.577 615.162 135.487C608.772 139.937 601.542 134.817 599.952 128.117C599.792 120.687 587.502 124.637 589.662 115.727C587.042 108.687 576.892 107.217 572.412 113.477C569.072 118.677 562.732 121.267 561.062 127.647C557.802 132.877 559.442 139.697 557.772 144.707C554.722 145.517 551.282 145.237 548.252 144.447" fill="white"/>
<path d="M548.642 145.667C548.052 144.857 548.522 144.277 547.702 142.787C545.432 138.717 544.372 139.747 541.622 138.367C539.552 137.337 534.912 137.357 531.682 136.717C529.512 136.277 527.532 133.117 525.612 131.197C523.022 128.607 523.652 126.567 523.402 124.017C523.232 122.337 526.552 119.957 527.262 119.047C528.652 117.257 529.482 115.407 531.132 113.517C532.492 111.967 533.002 108.557 533.342 107.447C533.702 106.247 532.022 100.847 531.682 99.167C530.982 95.667 534.572 93.457 535.552 91.987C537.312 89.327 537.932 88.027 539.412 85.357C540.412 83.557 540.442 79.747 541.622 77.627C543.312 74.577 542.272 73.167 541.622 69.897C541.472 69.127 537.822 68.467 537.432 68.777C538.002 64.817 526.562 67.307 525.502 62.477C517.822 57.757 531.942 52.977 528.122 50.527C519.382 46.947 529.552 44.097 534.002 45.727C540.812 51.287 553.932 54.897 557.922 43.867C565.092 37.477 575.822 41.737 584.532 40.237C611.062 31.607 652.132 13.657 651.102 57.757C662.172 84.427 694.582 64.957 693.962 93.327C730.482 98.567 698.142 144.307 713.692 167.877C710.142 186.307 701.502 203.457 694.782 218.567C688.802 216.277 682.812 215.227 681.802 208.437C676.242 203.387 686.772 194.997 677.602 192.287C670.402 188.747 669.842 179.057 663.292 174.367C656.982 169.647 651.702 164.017 647.192 157.557C642.122 151.437 636.162 146.097 631.012 140.087C628.642 133.457 620.772 132.577 615.162 135.487C608.772 139.937 601.542 134.817 599.952 128.117C599.792 120.687 587.502 124.637 589.662 115.727C587.042 108.687 576.892 107.217 572.412 113.477C569.072 118.677 562.732 121.267 561.062 127.647C557.802 132.877 559.442 139.697 557.772 144.707C554.722 145.517 551.282 145.237 548.252 144.447M594.172 0.825021C595.492 -0.495979 591.252 3.16103 589.792 4.32903C588.442 5.41003 595.372 6.08003 595.922 6.08003C599.342 6.08003 597.212 4.13902 598.552 2.13902C599.392 0.871024 595.632 1.26302 594.172 0.825021ZM577.092 4.76702C578.032 3.36002 570.392 5.05603 569.652 5.20503C568.102 5.51403 571.012 8.19902 572.272 9.14602C573.122 9.78202 577.102 8.83802 578.402 8.70802C582.202 8.32902 580.382 6.44303 581.472 5.20503C582.432 4.10103 578.552 4.91302 577.092 4.76702Z" stroke="black" stroke-width="0.86703"/>
<path d="M215.841 487.159C215.174 487.159 214.574 487.027 214.04 486.761C213.506 486.496 213.078 486.133 212.756 485.67C212.434 485.208 212.258 484.682 212.227 484.091H213.591C213.644 484.617 213.883 485.053 214.307 485.398C214.735 485.739 215.246 485.909 215.841 485.909C216.318 485.909 216.742 485.797 217.114 485.574C217.489 485.35 217.782 485.044 217.994 484.653C218.21 484.259 218.318 483.814 218.318 483.318C218.318 482.811 218.206 482.358 217.983 481.96C217.763 481.559 217.46 481.242 217.074 481.011C216.688 480.78 216.246 480.663 215.75 480.659C215.394 480.655 215.028 480.71 214.653 480.824C214.278 480.934 213.97 481.076 213.727 481.25L212.409 481.091L213.114 475.364H219.159V476.614H214.295L213.886 480.045H213.955C214.193 479.856 214.492 479.699 214.852 479.574C215.212 479.449 215.587 479.386 215.977 479.386C216.689 479.386 217.324 479.557 217.881 479.898C218.441 480.235 218.881 480.697 219.199 481.284C219.521 481.871 219.682 482.542 219.682 483.295C219.682 484.038 219.515 484.701 219.182 485.284C218.852 485.864 218.398 486.322 217.818 486.659C217.239 486.992 216.58 487.159 215.841 487.159ZM225.734 487.159C224.878 487.159 224.149 486.926 223.547 486.46C222.945 485.991 222.484 485.311 222.166 484.42C221.848 483.527 221.689 482.447 221.689 481.182C221.689 479.924 221.848 478.85 222.166 477.96C222.488 477.066 222.95 476.384 223.553 475.915C224.159 475.441 224.886 475.205 225.734 475.205C226.583 475.205 227.308 475.441 227.911 475.915C228.517 476.384 228.979 477.066 229.297 477.96C229.619 478.85 229.78 479.924 229.78 481.182C229.78 482.447 229.621 483.527 229.303 484.42C228.984 485.311 228.524 485.991 227.922 486.46C227.32 486.926 226.59 487.159 225.734 487.159ZM225.734 485.909C226.583 485.909 227.242 485.5 227.712 484.682C228.181 483.864 228.416 482.697 228.416 481.182C228.416 480.174 228.308 479.316 228.092 478.608C227.88 477.9 227.573 477.36 227.172 476.989C226.774 476.617 226.295 476.432 225.734 476.432C224.893 476.432 224.236 476.847 223.763 477.676C223.289 478.502 223.053 479.67 223.053 481.182C223.053 482.189 223.159 483.045 223.371 483.75C223.583 484.455 223.888 484.991 224.286 485.358C224.687 485.725 225.17 485.909 225.734 485.909ZM239.075 479.477L238.553 480.614H231.143L231.553 479.477H239.075ZM238.098 481.75L237.575 482.886H231.143L231.553 481.75H238.098ZM240.416 476.409L239.871 477.591C239.628 477.371 239.373 477.182 239.104 477.023C238.835 476.864 238.553 476.741 238.257 476.653C237.962 476.566 237.651 476.523 237.325 476.523C236.681 476.523 236.102 476.701 235.587 477.057C235.071 477.413 234.664 477.938 234.365 478.631C234.066 479.324 233.916 480.174 233.916 481.182C233.916 482.189 234.066 483.04 234.365 483.733C234.664 484.426 235.071 484.951 235.587 485.307C236.102 485.663 236.681 485.841 237.325 485.841C237.659 485.841 237.973 485.797 238.268 485.71C238.568 485.623 238.846 485.504 239.104 485.352C239.365 485.201 239.606 485.03 239.825 484.841L240.393 486.023C239.996 486.398 239.53 486.682 238.996 486.875C238.462 487.064 237.905 487.159 237.325 487.159C236.393 487.159 235.568 486.917 234.848 486.432C234.132 485.947 233.57 485.258 233.161 484.364C232.755 483.47 232.553 482.409 232.553 481.182C232.553 479.955 232.755 478.894 233.161 478C233.57 477.106 234.132 476.417 234.848 475.932C235.568 475.447 236.393 475.205 237.325 475.205C237.928 475.205 238.49 475.309 239.013 475.517C239.539 475.725 240.007 476.023 240.416 476.409Z" fill="white"/>
<path d="M339.136 616.159C338.386 616.159 337.718 616.03 337.131 615.773C336.547 615.515 336.083 615.157 335.739 614.699C335.398 614.237 335.212 613.701 335.182 613.091H336.614C336.644 613.466 336.773 613.79 337 614.062C337.227 614.331 337.525 614.54 337.892 614.688C338.259 614.835 338.667 614.909 339.114 614.909C339.614 614.909 340.057 614.822 340.443 614.648C340.83 614.473 341.133 614.231 341.352 613.92C341.572 613.61 341.682 613.25 341.682 612.841C341.682 612.413 341.576 612.036 341.364 611.71C341.152 611.381 340.841 611.123 340.432 610.938C340.023 610.752 339.523 610.659 338.932 610.659H338V609.409H338.932C339.394 609.409 339.799 609.326 340.148 609.159C340.5 608.992 340.775 608.758 340.972 608.455C341.172 608.152 341.273 607.795 341.273 607.386C341.273 606.992 341.186 606.65 341.011 606.358C340.837 606.066 340.591 605.839 340.273 605.676C339.958 605.513 339.587 605.432 339.159 605.432C338.758 605.432 338.379 605.506 338.023 605.653C337.67 605.797 337.383 606.008 337.159 606.284C336.936 606.557 336.814 606.886 336.795 607.273H335.432C335.455 606.663 335.638 606.129 335.983 605.67C336.328 605.208 336.778 604.848 337.335 604.591C337.896 604.333 338.511 604.205 339.182 604.205C339.902 604.205 340.519 604.35 341.034 604.642C341.549 604.93 341.945 605.311 342.222 605.784C342.498 606.258 342.636 606.769 342.636 607.318C342.636 607.973 342.464 608.532 342.119 608.994C341.778 609.456 341.314 609.777 340.727 609.955V610.045C341.462 610.167 342.036 610.479 342.449 610.983C342.862 611.483 343.068 612.102 343.068 612.841C343.068 613.473 342.896 614.042 342.551 614.545C342.21 615.045 341.744 615.439 341.153 615.727C340.563 616.015 339.89 616.159 339.136 616.159ZM349.188 616.159C348.331 616.159 347.602 615.926 347 615.46C346.398 614.991 345.938 614.311 345.619 613.42C345.301 612.527 345.142 611.447 345.142 610.182C345.142 608.924 345.301 607.85 345.619 606.96C345.941 606.066 346.403 605.384 347.006 604.915C347.612 604.441 348.339 604.205 349.188 604.205C350.036 604.205 350.761 604.441 351.364 604.915C351.97 605.384 352.432 606.066 352.75 606.96C353.072 607.85 353.233 608.924 353.233 610.182C353.233 611.447 353.074 612.527 352.756 613.42C352.438 614.311 351.977 614.991 351.375 615.46C350.773 615.926 350.044 616.159 349.188 616.159ZM349.188 614.909C350.036 614.909 350.695 614.5 351.165 613.682C351.634 612.864 351.869 611.697 351.869 610.182C351.869 609.174 351.761 608.316 351.545 607.608C351.333 606.9 351.027 606.36 350.625 605.989C350.227 605.617 349.748 605.432 349.188 605.432C348.347 605.432 347.689 605.847 347.216 606.676C346.742 607.502 346.506 608.67 346.506 610.182C346.506 611.189 346.612 612.045 346.824 612.75C347.036 613.455 347.341 613.991 347.739 614.358C348.14 614.725 348.623 614.909 349.188 614.909ZM362.528 608.477L362.006 609.614H354.597L355.006 608.477H362.528ZM361.551 610.75L361.028 611.886H354.597L355.006 610.75H361.551ZM363.869 605.409L363.324 606.591C363.081 606.371 362.826 606.182 362.557 606.023C362.288 605.864 362.006 605.741 361.71 605.653C361.415 605.566 361.104 605.523 360.778 605.523C360.134 605.523 359.555 605.701 359.04 606.057C358.525 606.413 358.117 606.938 357.818 607.631C357.519 608.324 357.369 609.174 357.369 610.182C357.369 611.189 357.519 612.04 357.818 612.733C358.117 613.426 358.525 613.951 359.04 614.307C359.555 614.663 360.134 614.841 360.778 614.841C361.112 614.841 361.426 614.797 361.722 614.71C362.021 614.623 362.299 614.504 362.557 614.352C362.818 614.201 363.059 614.03 363.278 613.841L363.847 615.023C363.449 615.398 362.983 615.682 362.449 615.875C361.915 616.064 361.358 616.159 360.778 616.159C359.847 616.159 359.021 615.917 358.301 615.432C357.585 614.947 357.023 614.258 356.614 613.364C356.208 612.47 356.006 611.409 356.006 610.182C356.006 608.955 356.208 607.894 356.614 607C357.023 606.106 357.585 605.417 358.301 604.932C359.021 604.447 359.847 604.205 360.778 604.205C361.381 604.205 361.943 604.309 362.466 604.517C362.992 604.725 363.46 605.023 363.869 605.409Z" fill="white"/>
<path d="M486.295 450.364V462H484.886V451.841H484.818L481.977 453.727V452.295L484.886 450.364H486.295ZM493.438 462.159C492.581 462.159 491.852 461.926 491.25 461.46C490.648 460.991 490.188 460.311 489.869 459.42C489.551 458.527 489.392 457.447 489.392 456.182C489.392 454.924 489.551 453.85 489.869 452.96C490.191 452.066 490.653 451.384 491.256 450.915C491.862 450.441 492.589 450.205 493.438 450.205C494.286 450.205 495.011 450.441 495.614 450.915C496.22 451.384 496.682 452.066 497 452.96C497.322 453.85 497.483 454.924 497.483 456.182C497.483 457.447 497.324 458.527 497.006 459.42C496.688 460.311 496.227 460.991 495.625 461.46C495.023 461.926 494.294 462.159 493.438 462.159ZM493.438 460.909C494.286 460.909 494.945 460.5 495.415 459.682C495.884 458.864 496.119 457.697 496.119 456.182C496.119 455.174 496.011 454.316 495.795 453.608C495.583 452.9 495.277 452.36 494.875 451.989C494.477 451.617 493.998 451.432 493.438 451.432C492.597 451.432 491.939 451.847 491.466 452.676C490.992 453.502 490.756 454.67 490.756 456.182C490.756 457.189 490.862 458.045 491.074 458.75C491.286 459.455 491.591 459.991 491.989 460.358C492.39 460.725 492.873 460.909 493.438 460.909ZM506.778 454.477L506.256 455.614H498.847L499.256 454.477H506.778ZM505.801 456.75L505.278 457.886H498.847L499.256 456.75H505.801ZM508.119 451.409L507.574 452.591C507.331 452.371 507.076 452.182 506.807 452.023C506.538 451.864 506.256 451.741 505.96 451.653C505.665 451.566 505.354 451.523 505.028 451.523C504.384 451.523 503.805 451.701 503.29 452.057C502.775 452.413 502.367 452.938 502.068 453.631C501.769 454.324 501.619 455.174 501.619 456.182C501.619 457.189 501.769 458.04 502.068 458.733C502.367 459.426 502.775 459.951 503.29 460.307C503.805 460.663 504.384 460.841 505.028 460.841C505.362 460.841 505.676 460.797 505.972 460.71C506.271 460.623 506.549 460.504 506.807 460.352C507.068 460.201 507.309 460.03 507.528 459.841L508.097 461.023C507.699 461.398 507.233 461.682 506.699 461.875C506.165 462.064 505.608 462.159 505.028 462.159C504.097 462.159 503.271 461.917 502.551 461.432C501.835 460.947 501.273 460.258 500.864 459.364C500.458 458.47 500.256 457.409 500.256 456.182C500.256 454.955 500.458 453.894 500.864 453C501.273 452.106 501.835 451.417 502.551 450.932C503.271 450.447 504.097 450.205 505.028 450.205C505.631 450.205 506.193 450.309 506.716 450.517C507.242 450.725 507.71 451.023 508.119 451.409Z" fill="white"/>
</g>
<defs>
<clipPath id="clip0_2_2">
<rect width="714.24" height="858.14" fill="white"/>
</clipPath>
</defs>
</svg>
