<svg width="714.24" height="858.14" xmlns="http://www.w3.org/2000/svg" xmlns:undefined="http://sodipodi.sourceforge.net/DTD/sodipodi-0.dtd" xmlns:undefined="http://www.inkscape.org/namespaces/inkscape" xmlns:xlink="http://www.w3.org/1999/xlink" version="1.0">

 <metadata>image/svg+xmlOpenclipartNederland2007-08-08T02:19:44Kaart van nederland met procincies, rivieren en hoofdsteden.\nMap of the netherlands with provinces, rivers and capital cities.https://openclipart.org/detail/4704/nederland-by-cafuegocafuegocartographycountrygeographyhollandhow i did itmapnetherlands</metadata>
 <g>
  <title>Layer 1</title>
  <g display="none"    id="layer2">
   <path fill="none" stroke-width=".86703pt" stroke="#000000" stroke-opacity="0.50196" d="m426.012,295.099c-4.67,1.53 -12.14,1.85 -16.29,7.17c-6.57,1.93 -3.92,12.43 -13.05,9.48c-7.22,3.99 -8.74,13.78 -13.12,18.47c-4.81,1.53 6.5,10.75 -4.38,10.44c-5.47,-5.4 -6.92,-0.25 -8.83,4.43c-8.02,2.67 -16.74,0.95 -23.31,7.73c-7.16,2.67 -14.54,6 -11.7,15.1c-2.82,8.03 5,12.75 9.67,5.57c9.33,-2.6 17.78,3.73 24.51,9.51c6.25,5.67 12.45,13.71 18.85,17.92c7.88,-3.04 18.47,-2.12 22.51,-10.94c1.25,-7.31 4.48,-4.57 0.88,-19.67c3.89,-8.05 14.88,3.35 17.76,-7.33c2.46,-10.57 14.64,-8.02 21.71,-13.21c6.01,-7.52 13.76,-14.95 15.04,-24.95c1.3,-8.7 -2.5,-23.39 -13.69,-21.39c-9.19,1.01 -18.5,-4.32 -26.56,-8.33z" id="path1446"/>
   <path fill="none" stroke-width=".86703pt" stroke="#000000" stroke-opacity="0.50196" d="m280.182,117.749c-8.65,13.95 -46.53,65.3 -11.38,58.68c16.06,-15.65 31.2,-33.81 17.51,-54.3c1.72,-7.69 -3.55,-8.22 -6.13,-4.38z" id="path7053"/>
   <path fill="none" stroke-width=".86703pt" stroke="#000000" stroke-opacity="0.50196" d="m245.152,179.059c-20.06,12.7 24.72,1.58 0,0z" id="path7051"/>
   <path fill="none" stroke-width=".86703pt" stroke="#000000" stroke-opacity="0.50196" d="m210.322,392.569c2.56,-4.59 4.95,-9.27 7.15,-14.08" id="path3171"/>
   <path fill="none" stroke-width=".86703pt" stroke="#000000" stroke-opacity="0.50196" d="m217.472,378.489c2.19,-4.81 4.19,-9.75 5.97,-14.84" id="path3169"/>
   <path fill="none" stroke-width=".86703pt" stroke="#000000" stroke-opacity="0.50196" d="m223.442,363.649c3.56,-10.19 4.31,-17.16 5.95,-28.91c3.85,-13.79 8.64,-26.8 9.63,-40.07c-2.48,-35.85 14.84,-67.13 15.55,-103.57c22.47,-23.76 16.64,30.18 40.5,21.24c-2.89,-31.2 37.66,-14.91 35.91,11.38c-12.26,30.05 13.63,29.36 30.43,29.4c4.31,31.16 -30.56,37.5 -51.75,36.33c-0.42,19.54 22.07,34.7 9.5,53.83c21.28,14.31 -41.97,26.74 1.67,33.01c16.75,-3.9 22.97,14.02 40.59,10.12c2.24,3.42 1.39,3.56 4.02,5.97" id="path3167"/>
   <path fill="none" stroke-width=".86703pt" stroke="#000000" stroke-opacity="0.50196" d="m165.892,628.599c-4.44,-2.9 -8.72,-3.32 -14.9,-4.52s-12.6,-2.36 -18.02,-5.06c-5.41,-2.71 -9.8,-6.97 -11.92,-14.39c1.73,-16.13 55.83,4.39 20.45,-12.2c1.63,-2.06 3.75,-3.42 6.21,-4.28s5.27,-1.22 8.29,-1.29c3.02,-0.06 9.19,0.16 12.5,0.48" id="path3165"/>
   <path fill="none" stroke-width=".86703pt" stroke="#000000" stroke-opacity="0.50196" d="m171.012,647.479c2.11,-0.87 1.8,-1.24 4.05,-2.81c-0.16,-7.8 -4.74,-13.18 -9.17,-16.07" id="path3163"/>
   <path fill="none" stroke-width=".86703pt" stroke="#000000" stroke-opacity="0.50196" d="m422.852,714.719c-1.71,-2.56 -2.66,-5.61 -2.53,-9.29c-13.77,-23.82 -34.12,8.68 -56.06,-2.63c-11.73,-1.05 -2.1,-27.1 -23.41,-14.82c-19.44,-15.35 2.7,-47.9 -24.32,-48.68c-1.76,13.4 -16.01,33.08 -27.81,19.93c-43.9,-5.66 -14.53,0.5 -8.1,-12.04c-9.7,-41.58 -27.33,26.08 -54.37,7.41c4.8,-18.03 -8.17,-16.51 -25.55,-10.04c-7.09,5.19 13.18,45.43 -13.35,27.15c-6.18,-3.96 -8.97,-4.67 -15.39,-6.01" id="path3161"/>
   <path fill="none" stroke-width=".86703pt" stroke="#000000" stroke-opacity="0.50196" d="m498.652,557.489c1.13,1.42 4.24,3.68 7.23,4.81c2.98,1.12 6.12,2.5 7.85,4.92s2.06,5.9 -0.58,11.21c22.65,4.47 9.8,36.51 34.16,48.18c8.59,36.32 -4.46,61.94 -27.17,87.13c-5.52,15.63 9.05,19.64 21.48,12.71c-2.98,18.31 -33.89,25.01 -43.91,44.44c-19.27,-24.13 -13.99,36.98 2.74,16.43c18.82,-1.33 3.57,24.35 26.96,22.2c-6.19,8.81 0.41,21.23 -15.21,25.24c-0.62,10.67 -24.08,8.44 -0.79,17.32c2.58,12.67 -35.41,-0.88 -45.11,2.24c-0.07,-14.31 -29.39,15.72 -17.04,-10.09c-27.06,-20.98 9.63,-38.15 9.94,-60.98c-9.15,-21.38 21.56,-26.74 7.1,-39.72c2.56,-2.41 3.75,-4.35 3.87,-5.97c0.12,-1.61 -0.83,-2.89 -2.54,-3.98c-1.72,-1.09 -4.2,-1.99 -7.13,-2.82c-2.94,-0.84 -6.33,-1.62 -9.87,-2.48c-3.55,-0.86 -7.25,-1.8 -10.79,-2.96c-3.55,-1.15 -6.94,-2.52 -9.87,-4.24c-2.94,-1.73 -5.41,-3.8 -7.12,-6.36" id="path3159"/>
   <path fill="none" stroke-width=".86703pt" stroke="#000000" stroke-opacity="0.50196" d="m537.662,69.319c0.34,-4.5 -11.1,-2.01 -12.16,-6.84c-7.68,-4.72 6.44,-9.5 2.62,-11.95c-8.74,-3.58 1.43,-6.43 5.88,-4.8c6.81,5.56 19.93,9.17 23.92,-1.86c7.17,-6.39 17.9,-2.13 26.61,-3.63c26.53,-8.63 67.6,-26.58 66.57,17.52c11.07,26.67 43.48,7.2 42.86,35.57c36.52,5.24 4.18,50.98 19.73,74.55c-3.55,18.43 -12.19,35.58 -18.17,50.81" id="path3151"/>
   <path fill="none" stroke-width=".86703pt" stroke="#000000" stroke-opacity="0.50196" d="m365.442,392.379c2.63,2.4 8.73,7.06 11.6,8.47c2.87,1.42 5.83,2.35 8.79,2.82" id="path3147"/>
   <path fill="none" stroke-width=".86703pt" stroke="#000000" stroke-opacity="0.50196" d="m171.962,665.699c-6.43,-1.33 -16.49,-3.29 -22.84,-4.21s-12.59,-2.18 -18.54,-4.88c-5.96,-2.7 -11.63,-6.85 -16.86,-13.54c-10.94,10.05 -18.32,34.71 -37.313,13.27c-15.505,1.46 -14.742,-24.71 -30.069,-8.71c-19.051,-5.18 -49.553,-37.74 -13.137,-40.73c24.064,-26.24 26.274,39.54 47.294,10.51c2.555,-1.05 5.025,-1.76 7.415,-2.19c2.38,-0.42 4.69,-0.55 6.92,-0.43c2.24,0.12 4.4,0.48 6.51,1.05c2.1,0.57 4.15,1.34 6.14,2.27s3.94,2.02 5.84,3.23s3.77,2.53 5.6,3.92c1.83,1.4 3.64,2.86 5.42,4.36c1.78,1.49 3.55,3.01 5.3,4.52c1.75,1.5 3.5,2.99 5.24,4.42c1.75,1.43 3.49,2.8 5.25,4.06c1.75,1.27 3.52,2.43 5.31,3.44c1.78,1.02 3.59,1.88 5.43,2.56c1.84,0.67 3.71,1.15 5.62,1.4c1.91,0.24 3.86,0.25 5.86,-0.02s6.54,-1.65 8.66,-2.52" id="path3145"/>
   <path fill="none" stroke-width=".86703pt" stroke="#000000" stroke-opacity="0.50196" d="m168.502,587.339c3.32,0.31 3.78,0.71 7.12,0.99c3.34,0.29 6.63,0.45 9.72,0.28c3.09,-0.16 6,-0.65 8.58,-1.68c2.58,-1.02 4.83,-2.58 6.63,-4.87c1.8,-2.3 3.13,-5.34 3.87,-9.32c4.05,4.83 10.47,6.06 17.22,5.39c6.75,-0.68 13.85,-3.27 19.25,-6.09s9.73,-6.75 8.98,-8.18" id="path3143"/>
   <path fill="none" stroke-width=".86703pt" stroke="#000000" stroke-opacity="0.50196" d="m249.872,563.859c-0.55,-1.06 -3.58,-1.08 -13.04,1.88c-38.55,17.96 -62.9,-31.9 -97.22,-36.79c-5.3,-11.22 -14.24,-10.98 -8.63,-20.37c1.12,-1.87 -7.6,-2.49 -9.59,-4.07c-1.98,-1.59 0.96,-4.33 4.21,-11.03c-5.81,-22 12.97,-2.67 21.46,-5.69c-0.87,-5.27 -0.92,-10.91 1.97,-14.89c5.21,-7.34 15.03,-16.55 21.68,-23.65c7.19,-8.79 14.05,-17.4 20.39,-26.11c6.34,-8.72 14.09,-21.39 19.22,-30.57" id="path3191"/>
   <path fill="none" stroke-width=".86703pt" stroke="#000000" stroke-opacity="0.50196" d="m488.582,264.459c-4.22,2.57 -11.18,10.29 -11.8,14.18c4.01,-0.12 15.34,1.21 10.51,6.17c-5.9,-0.25 -11.48,1.41 -16.94,3.55c-5.95,2.64 -12.6,3.56 -19,2.32c-6.47,0.67 -13.2,4.64 -19.64,1.65c-5.97,-1.72 -6.6,-9.75 -12.07,-12.86c-5.33,-3.9 -2.55,-11.14 -3.42,-16.68c-1.57,-5.71 -0.52,-11.7 1.47,-17.17c5.15,-3.26 8.61,-8.06 10.4,-13.84c4.04,-3.2 5.24,-12.28 12.05,-9.05" id="path3139"/>
   <path fill="none" stroke-width=".86703pt" stroke="#000000" stroke-opacity="0.50196" d="m168.082,557.409c-0.72,-1.08 -2.32,-3.56 -3.51,-5.69c-1.48,-2.68 -5.11,-3.44 -7.44,-4.38c-2.96,-1.18 -5.28,-2.79 -8.32,-4.81c-2.03,-1.36 -3.97,-3.2 -6.13,-4.82c-1.94,-1.45 -3.32,-1.61 -5.26,-3.07c-1.66,-1.24 -3.17,-2.27 -4.81,-3.5c-2.28,-1.71 -4.88,-3.54 -7.01,-4.82c-3.19,-1.91 -3.17,-1.75 -7.01,-1.75c-1.35,0 -5.11,2.49 -6.56,3.07c-2.67,1.06 -4.89,1.86 -7.45,2.62c-2.31,0.7 -4.51,2.04 -6.57,3.07c-3.02,1.51 -2.81,3.65 -3.94,6.13c-1.2,2.63 0.85,3.9 2.19,5.69c0.87,1.16 4.74,-0.93 5.69,-1.31c2.1,-0.84 3.1,-1.5 4.82,-2.19c2.13,-0.85 4.17,-1.47 6.57,-2.19c1.72,-0.52 3.24,-0.88 5.69,-0.88c2.9,0 3.59,1.09 5.26,1.76c1.18,0.47 2.11,4.41 2.62,5.69c0.92,2.28 1.28,4.2 1.76,6.57c0.41,2.07 1.07,3.76 1.31,6.13c0.21,2.08 1.55,3.66 2.19,5.25c1.06,2.66 3.47,1.97 5.69,2.63c1.73,0.52 4.92,0.27 6.57,0.44c2.22,0.22 4.49,2.15 6.13,3.06c1.44,0.8 2.81,2.39 4.82,3.51c2.25,1.25 4.22,1.92 6.57,2.63c2.6,0.78 4.1,1.74 5.69,2.62c1.84,1.02 2.92,3.11 4.38,4.38c0.78,0.69 5.43,0 6.57,0c3.41,0 5.44,0.33 8.76,0c1.86,-0.18 4.07,-1.97 5.25,-2.63c2.73,-1.51 1.29,-1.97 2.63,-4.37c0.29,-0.53 -5.45,-3.37 -5.69,-3.51c-1.54,-0.85 -3.44,-3.01 -5.26,-4.38c-1.99,-1.49 -3.68,-2.76 -5.25,-3.94c-2.33,-1.74 -5.05,-2.14 -7.45,-3.94c-1.24,-0.93 -2.33,-2.04 -3.5,-3.07z" id="path7031"/>
   <path fill="none" stroke-width=".86703pt" stroke="#000000" stroke-opacity="0.50196" d="m81.811,556.099c-1.813,-1.36 -4.339,1.35 -6.569,1.75c-2.033,0.37 -3.861,1.9 -5.692,2.63c-1.826,0.73 -4.245,2.89 -6.131,3.94c-2.461,1.37 -1.632,2.77 -2.628,5.26c-0.894,2.23 0.248,4.03 0.876,6.13c0.421,1.4 4.358,2.53 5.693,3.06c2.59,1.04 3.633,1.02 6.569,1.32c2.152,0.21 4.155,-1.78 5.693,-2.63c2.178,-1.21 2.622,-2.33 3.94,-3.5c1.75,-1.56 2.7,-2.36 4.82,-3.95c2.15,-1.61 4.05,4.24 4.38,4.82c1.3,2.34 2.24,1.89 5.25,2.19c4.72,0.47 2.36,0.1 5.26,2.63c1.15,1.01 0.99,4.99 1.31,6.57c0.6,3.02 1.09,3.28 2.19,5.25c0.03,0.05 5.76,0.8 6.13,0.88c0.66,0.13 3.58,3.45 4.82,4.38c1.28,0.96 5.22,-0.61 6.57,-0.88c1.36,-0.27 4.21,-1.88 5.25,-2.19c2.26,-0.67 3.72,-2.14 5.26,-3.06c2.21,-1.33 2.8,-2.13 4.38,-3.51c1.54,-1.35 1.82,-3.68 2.62,-5.69c1.15,-2.87 -1.56,-4.12 -2.19,-5.25c-0.76,-1.38 -5.15,-0.74 -6.56,-0.88c-2.4,-0.24 -4.49,-1.26 -6.14,-1.75c-1.48,-0.45 -2.04,-3.77 -2.62,-4.82c-1.18,-2.13 -1.99,-3.74 -3.07,-5.69c-0.86,-1.56 -4.27,-2.33 -6.13,-3.07c-1.76,-0.7 -5.2,-0.94 -7.44,-1.31c-2.27,-0.38 -4.19,-0.64 -6.57,-0.88c-2.27,-0.22 -4.47,-0.22 -6.57,-0.44c-2.22,-0.22 -4.8,-0.87 -7.01,-1.31c-1.65,-0.33 -4.07,0 -5.691,0z" id="path7029"/>
   <path fill="none" stroke-width=".86703pt" stroke="#000000" stroke-opacity="0.50196" d="m85.782,596.869c-0.95,-0.19 -4.942,0.5 -7.01,0.88c-2.251,0.41 -4.398,-0.27 -6.131,-0.44c-2.538,-0.25 -4.31,-0.64 -6.568,-1.31c-2.366,-0.71 -4.042,-0.99 -5.693,-1.32c-1.872,-0.37 -5.943,2.75 -7.445,3.5c-2.866,1.44 2.422,6.2 4.817,8.33c1.89,1.68 3.196,3.23 4.379,4.81c1.644,2.19 1.942,2.33 3.504,3.51c1.522,1.14 3.294,-1.93 4.817,-3.07c2.126,-1.59 4.735,-2.59 7.006,-3.5c2.074,-0.83 6.664,0.89 8.754,1.31c2.67,0.53 4.69,1.87 7.45,2.63c3.26,0.89 3.37,-0.78 5.25,-2.19c3.87,-2.9 2.54,-3.95 2.19,-7.45c-0.2,-2.05 -4.07,-3.73 -5.69,-4.81c-1.86,-1.24 -4.4,-1.54 -6.57,-2.19c-1.21,-0.37 -2.12,0.91 -3.06,1.31z" id="path7027"/>
   <path fill="none" stroke-width=".86703pt" stroke="#000000" stroke-opacity="0.50196" d="m165.892,675.209c-3.61,4.16 -6.4,11.04 -11.46,15.05c-4.52,4.39 -10.22,7.36 -14.19,12.41c-3.76,3 -7.99,9.97 -13.33,5.83c-5.82,0.32 -6.87,8.52 -12.57,8.73c-4.93,0.86 -10.13,-1.31 -12.96,4.19c-3.21,-1.67 -2.07,-9.16 -7.61,-5.35c-4.3,4.79 -13.232,2.94 -14.663,-3.65c-0.629,-4.86 2.622,-13.45 -5.621,-12.81c-6.331,-2.58 -12.296,-6.23 -19.297,-3.83c-4.001,-3.08 -9.829,-10.96 -12.598,-2.32c-5.76,-5.16 -10.684,2.44 -9.662,8.19c0.256,7.9 -8.659,6.03 -13.617,4.66c-5.734,-0.77 -11.083,-3.54 -14.245,-8.48c-3.208,-4.82 -4.053,-11.46 -0.764,-16.47c2.684,-5.24 -2.75,-9.57 -2.708,-14.64c-0.973,1.76 11.243,-3.68 16.118,-6.04c5.7,-1.03 12.747,-5.99 18.677,-3.42c6.879,1.19 7.835,8.58 14.901,9.26c5.991,1.82 12.849,1.65 16.798,7.34c3.887,2.61 9.606,11.97 13.948,6.9c0.906,-3.67 4.943,-7.27 6.823,-1.8c4.21,4.68 12.28,2 14.61,-3.44c4.57,-3.88 13.4,-0.12 12.52,-8.8c-1.34,-6.4 6.92,-10.72 10.41,-4.45c0.79,5.95 6.16,9.67 11.71,10.93c4.56,-0.7 8.06,4.39 10.77,5.2c-1.2,-2.93 -3.09,-7.68 2,-4.8c4.87,3.38 2.86,-9.1 8.68,-4.18c3.08,1 4.99,3.74 7.33,5.79z" id="path7025"/>
   <path fill="none" stroke-width=".86703pt" stroke="#000000" stroke-opacity="0.50196" d="m548.642,145.669c-0.59,-0.81 -0.12,-1.39 -0.94,-2.88c-2.27,-4.07 -3.33,-3.04 -6.08,-4.42c-2.07,-1.03 -6.71,-1.01 -9.94,-1.65c-2.17,-0.44 -4.15,-3.6 -6.07,-5.52c-2.59,-2.59 -1.96,-4.63 -2.21,-7.18c-0.17,-1.68 3.15,-4.06 3.86,-4.97c1.39,-1.79 2.22,-3.64 3.87,-5.53c1.36,-1.55 1.87,-4.96 2.21,-6.07c0.36,-1.2 -1.32,-6.6 -1.66,-8.28c-0.7,-3.5 2.89,-5.71 3.87,-7.18c1.76,-2.66 2.38,-3.96 3.86,-6.63c1,-1.8 1.03,-5.61 2.21,-7.73c1.69,-3.05 0.65,-4.46 0,-7.73c-0.15,-0.77 -3.8,-1.43 -4.42,-1.66" id="path3127"/>
   <path fill="none" stroke-width=".86703pt" stroke="#000000" stroke-opacity="0.50196" d="m217.462,378.599c4.41,2.91 9.03,4.61 14.37,3.24c3.43,-1.36 5.71,-1.09 5.58,2.82c2.7,5.84 -1.87,12.09 -4.7,17.1c-2.56,4.69 -2.22,11.81 3.62,13.59c4.82,-0.83 12.35,1.74 15.35,-2.52c2.85,-4.39 5.54,-9.17 9.15,-13.07c3.63,-2.09 1.37,6.84 1.81,9.1c-0.59,2.89 -1.33,8.79 3.24,5.35c2.25,-1.77 4.81,-2.92 7.45,-3.9" id="path7021"/>
   <path fill="none" stroke-width=".86703pt" stroke="#000000" stroke-opacity="0.50196" d="m273.332,410.309c2.64,-0.99 5.35,-1.82 7.9,-2.96c3.94,-2.51 4.36,-10.65 10.72,-7.01c5.21,1.25 7.89,-5.17 13.02,-5.72c5.84,-0.48 2.74,-13.38 9.31,-8.43c3.78,1.46 4.65,7.73 10.16,6.33c7.98,1.72 -2.39,7.32 -2.57,11.26c-1.73,4.88 1.84,8.19 6.59,6.29c5.03,0.63 12.23,3.18 7.37,9.03c-3.56,6.49 8.01,7.19 10.86,2.74c5.29,-3.17 9.44,-8.12 10.25,-14.38c1.93,-5.36 4.67,-10.28 8.52,-14.51" id="path3175"/>
   <path fill="none" stroke-width=".86703pt" stroke="#000000" stroke-opacity="0.50196" d="m250.042,563.589c5.45,-2.76 13.07,-4.18 15.47,-11.2c4.36,-2.98 6.06,-11.32 12.27,-9.91c6.47,2.42 12.49,-2.39 16.44,-7.05c6.34,-1.37 12.42,3.13 18.75,3.3"  id="path7019"/>
   <path fill="none" stroke-width=".86703pt" stroke="#000000" stroke-opacity="0.50196" d="m339.742,485.699c-0.91,-1.38 -1.88,-2.7 -2.78,-3.93c-5.03,-6.81 -12.3,0.57 -16.27,4.64c-6.48,4.31 -16.18,-0.34 -21.29,6.48c-2.11,3.99 -6.94,6.74 -9.05,1.12c-2.94,-4.4 -9.09,-10.72 -7.42,-15.77c2.71,-0.78 8.75,-3.79 2.41,-3.99c-3.62,0.39 -7.95,-0.07 -4.95,-4.76c-0.1,-6.32 12.87,-1.42 7.43,-9.4c-1.26,-5.08 -9.29,-4.83 -6.38,-11.74c1,-4.38 -10.86,-8.67 -1.69,-10.25c5.34,-1.75 13.06,0.19 11.71,-8.15c-4.32,-4.35 -10.21,-7.55 -13.35,-13.29c-1.9,-2.2 -3.65,-4.48 -4.87,-7.14" id="path3181"/>
   <path fill="none" stroke-width=".86703pt" stroke="#000000" stroke-opacity="0.50196" d="m169.422,587.339c-2.66,2.66 -4.8,5.85 -7.2,8.76c-1.57,2.6 -5.35,5.29 -2.88,8.56c2.66,4.08 5.11,8.34 7.08,12.8c0.61,3.74 -0.48,7.57 -0.87,11.3" id="path7017"/>
   <path fill="none" stroke-width=".86703pt" stroke="#000000" stroke-opacity="0.50196" d="m171.622,665.199c1.42,1.12 2.22,-3.19 2.89,-4.41c1.84,-3.09 0.25,-6.33 -1.11,-9.25c-0.51,-1.76 -1.19,-3.13 -2.88,-4.01" id="path7015"/>
   <path fill="none" stroke-width=".86703pt" stroke="#000000" stroke-opacity="0.50196" d="m478.822,551.169c-1.05,-0.16 -0.08,0.27 1.1,2.84c0.59,8.14 8.49,12.56 15.31,15.11c2.91,5.59 -0.69,13.65 3.77,18.9c7.43,6.84 14.36,15.55 15.38,25.95c-0.61,4.63 -8.9,-1.18 -12.38,-1.38c-7.13,-6.39 -11.17,9.56 -17.92,2.41c-3.39,-2.28 -11.45,-6.83 -9.09,1.05c1.23,7.13 -1.44,15.15 4.15,21.02c3.06,6.36 0.09,14.47 5.38,20.2c1.59,4.55 8.36,8.87 7.61,12.87c-5.37,3.36 -10.4,7.49 -16.23,9.97c-7.16,1.04 -13.9,3.5 -20.71,5.77c-6.22,0.67 -12.61,2.93 -17.16,7.31c-5.89,4.19 -7.89,10.93 -5.72,17.68c-0.45,3.75 -5.48,6.03 -8.87,5.14" id="path3185"/>
   <path fill="#ffffff" stroke-width=".86703pt" stroke="#000000" fill-rule="evenodd" stroke-opacity="0.50196" d="m301.202,647.629c-12.93,15.91 11.97,0.66 0,0z" id="path2425"/>
   <path fill="none" stroke-width=".86703pt" stroke="#000000" stroke-opacity="0.50196" d="m455.902,234.509c-0.98,-1.54 -2.72,-4.44 -4.14,-5.6c-2.08,-1.84 -4.36,-3.48 -6.67,-5.02c-0.91,-0.46 -3.04,-0.62 -4.46,-1.09" id="path2547"/>
   <path fill="none" stroke-width=".86703pt" stroke="#000000" stroke-opacity="0.50196" d="m546.002,13.959c1.68,-1.91 -4.51,2.57 -7.01,3.07c-2.06,0.41 -4.2,1.72 -6.57,2.19c-2.4,0.48 -4.64,0.24 -7,0c-1.92,-0.19 -4.88,0.44 -7.01,0.44c-2.79,0 -4.29,0.76 -6.13,1.31c-0.89,0.27 -2.68,4.57 -3.07,5.26c-0.56,1 0.3,5.19 0.44,6.56c0.34,3.4 3.77,1.51 5.69,1.32c0.46,-0.05 2.83,-3.62 3.07,-3.94c1.43,-1.91 3.57,-1.12 5.69,-1.75c2.19,-0.66 4.15,-0.48 6.13,-0.88c2.17,-0.43 3.68,-1.56 5.26,-2.19c2,-0.8 3.27,-2.04 4.81,-3.07c1.76,-1.16 2.36,-1.5 4.38,-2.62c1.69,-0.94 4.54,-0.44 6.57,-0.44c1.63,0 -0.58,-3.21 -0.87,-4.82c-0.42,-2.27 -3.73,-0.37 -4.38,-0.44z" id="path2656"/>
   <path fill="none" stroke-width=".86703pt" stroke="#000000" stroke-opacity="0.50196" d="m425.132,29.729c-0.5,-2.77 -4.85,0.4 -5.25,0.44c-1.49,0.12 -1.58,4.84 -1.75,5.69c-0.29,1.46 2.18,4.9 2.62,5.69c0.93,1.68 5.03,2.17 6.57,2.63c2.67,0.8 3.69,-1.13 5.26,-1.75c1.5,-0.6 2.95,-2.32 3.94,-3.07c1.49,-1.11 3.13,-1.93 4.38,-2.62c1.93,-1.08 3.68,-1.27 6.13,-1.76c0.22,-0.04 5.97,1.72 6.13,1.76c1.77,0.35 5.82,-1.08 7.01,-1.32c1.56,-0.31 4.2,-1.3 5.69,-1.75c1.82,-0.55 3.63,-0.83 5.25,-1.31c2.03,-0.61 4.76,0.25 6.57,0.43c1.53,0.16 4.58,-0.72 6.13,-0.87c2.1,-0.21 3.21,-1.3 4.82,-2.19c1.89,-1.05 -3.58,-2.64 -5.69,-3.07c-2.36,-0.47 -4.62,-0.88 -7.01,-1.31c-2.38,-0.43 -4.8,0.22 -7.01,0.44c-1.94,0.19 -4.39,1.31 -6.56,1.75c-2.01,0.4 -4.52,0 -6.57,0c-2.54,0 -4.37,0.43 -6.57,0.88c-2.17,0.43 -4.17,2.22 -5.69,3.06c-2.38,1.32 -5.6,1.81 -8.32,2.63c-2.39,0.71 -5.11,-0.5 -7.01,-0.88c-2.33,-0.46 -1.51,-1.72 -3.07,-3.5z" id="path2658"/>
   <path fill="none" stroke-width=".86703pt" stroke="#000000" stroke-opacity="0.50196" d="m405.872,37.169c0.14,-0.81 -2.52,2.18 -3.43,2.89c-2.09,2.23 -4.72,3.84 -7.69,4.58c-3.15,0.75 -2.15,5.04 -3.78,7.09c-3.22,0.85 -6.26,-1.5 -9.52,-1.37c-2.86,-0.67 -5.3,0.49 -6.63,3.13c-1.61,2.83 -5.23,2.66 -7.95,3.63c-4.26,0.8 -8.57,1.38 -12.68,2.82c-3.67,1.04 -5.36,3.16 -9.06,4.13c-2.97,0.43 -4.07,7.32 -5.72,7.19c-2.75,1.7 -5.93,-2.79 -6.16,-4.98c0.9,-2.5 2.24,-5.67 4.71,-6.97c5.58,-3.44 9.74,-8.1 16.25,-9.75c4.17,-1.49 8.34,-2.97 12.63,-4.1c4.67,-1.6 9.73,-0.96 14.5,-2.16c3.22,-0.81 6.14,-2.5 9.31,-3.47c4.72,-2.22 9.55,-4.47 14.71,-5.4c1.09,0.27 -0.9,2.16 0.51,2.74z" id="path2660"/>
   <path fill="none" stroke-width=".86703pt" stroke="#000000" stroke-opacity="0.50196" d="m336.672,80.089c-3.48,0.16 -2.84,0.72 -3.94,4.38c-1.39,4.64 2.48,0.41 2.63,0.44c3.37,0.56 1.13,-3.88 1.31,-4.82z" id="path2662"/>
   <path fill="none" stroke-width=".86703pt" stroke="#000000" stroke-opacity="0.50196" d="m359.012,93.659c1.74,0.29 -2.19,3.06 -2.19,4.82c0,4.22 4.31,-2.09 4.38,-2.19c1.25,-1.67 -1.95,-2.34 -2.19,-2.63z" id="path2664"/>
   <path fill="none" stroke-width=".86703pt" stroke="#000000" stroke-opacity="0.50196" d="m321.352,78.779c0.46,-1.2 -1.85,0.55 -2.37,0.76c-2.18,1.44 -4.68,2.52 -6.31,4.65c-2.04,2.63 -4.83,4.48 -7.35,6.61c-2.81,1.82 -6.63,1.67 -8.94,4.3c-1.75,1.79 -3.99,3.02 -5.74,4.78c-1.71,2.62 -3.26,5.34 -5.2,7.8c-0.42,2.02 2.63,2.4 4.05,3.03c2.11,0.56 3.56,-0.1 5.67,-1.29c3.15,-2.47 3.93,-2.08 4.81,-3.87c3.53,-3.33 2,-3.77 4.34,-5.35c1.77,-0.89 3.25,-2.07 2.85,-4.24c0.3,-1.69 -0.31,-3.67 0.78,-5.12c1.87,-0.73 4.04,-0.43 5.95,-1.33c1.99,-0.45 4.37,-0.35 5.7,-2.19c1.33,-1.76 3.25,-3.07 4.03,-5.21c1.21,-1.31 0.96,-2.83 -0.99,-2.88c-0.44,-0.12 -0.88,-0.24 -1.28,-0.45z" id="path2666"/>
   <path fill="none" stroke-width=".86703pt" stroke="#000000" stroke-opacity="0.50196" d="m537.612,69.019c0.21,-0.55 3.86,0.11 4.01,0.88c0.65,3.27 1.69,4.68 0,7.73c-1.18,2.12 -1.21,5.93 -2.21,7.73c-1.48,2.67 -2.1,3.97 -3.86,6.63c-0.98,1.47 -4.57,3.68 -3.87,7.18c0.34,1.68 2.02,7.08 1.66,8.28c-0.34,1.11 -0.85,4.52 -2.21,6.07c-1.65,1.89 -2.48,3.74 -3.87,5.53c-0.71,0.91 -4.03,3.29 -3.86,4.97c0.25,2.55 -0.38,4.59 2.21,7.18c1.92,1.92 3.9,5.08 6.07,5.52c3.23,0.64 7.87,0.62 9.94,1.65c2.75,1.38 3.81,0.35 6.08,4.42c0.82,1.49 0.35,2.07 0.94,2.88" id="path2668"/>
   <path fill="none" stroke-width=".86703pt" stroke="#000000" stroke-opacity="0.50196" d="m455.902,234.509c-0.98,-1.54 -2.72,-4.44 -4.14,-5.6c-2.08,-1.84 -4.36,-3.48 -6.67,-5.02c-0.91,-0.46 -3.04,-0.62 -4.46,-1.09" id="path2681"/>
   <path fill="none" stroke-width=".86703pt" stroke="#000000" stroke-opacity="0.50196" d="m440.632,222.799c4,-0.6 -8.43,-2.3 -10.68,-2.58c-6.21,-1.68 -12.4,0.08 -17.73,3.35c-5.25,5.66 -8.8,-2.02 -13.8,-3.37c-5.35,-3.76 -12.2,0.87 -17.63,-2.92c-3.37,-4.32 -9.46,-10.15 -1.94,-13.91c3.1,-5.05 5.01,-10.65 4.25,-16.62c-0.56,-3.57 -0.55,-8.16 -1.26,-12.01c-3.77,-7.15 1.6,-14.3 -5.31,-20.01c-4.46,-8.78 6.05,-15.19 5.16,-23.08c1.31,-4.21 2.08,-7.62 3.73,-11.74c1.66,-4.15 1.89,-8.7 3.72,-12.9c4.3,-5.19 11.18,-7.51 16.01,-12.25c3.99,-6.51 7.84,-13.24 16.48,-14.42c8.62,-2.75 15.95,-8.15 24.59,-10.76c5.79,-3.34 11.12,-8.12 17.72,-9.64c7.72,1.11 12.62,-4.72 19,-7.52c7.67,-2.46 16.02,-0.58 23.53,-3.56c11.06,-4.69 13.19,10.19 12.25,17.83c3.92,2.72 13.24,2.31 18.89,2.33" id="path2679"/>
   <path fill="none" stroke-width=".86703pt" stroke="#000000" stroke-opacity="0.50196" d="m695.522,218.689c-5.97,15.24 -7.06,28.56 -5.45,49.26c5.13,33.98 -40.22,-1.84 -57.8,15.33c-3.1,-0.45 -5.1,-0.32 -6.28,0.25" id="path3153"/>
   <path fill="none" stroke-width=".86703pt" stroke="#000000" stroke-opacity="0.50196" d="m694.042,218.449c-5.24,-2.17 -11.23,-3.22 -12.24,-10.01c-5.56,-5.05 4.97,-13.44 -4.2,-16.15c-7.2,-3.54 -7.76,-13.23 -14.31,-17.92c-6.31,-4.72 -11.59,-10.35 -16.1,-16.81c-5.07,-6.12 -11.03,-11.46 -16.18,-17.47c-2.37,-6.63 -10.24,-7.51 -15.85,-4.6c-6.39,4.45 -13.62,-0.67 -15.21,-7.37c-0.16,-7.43 -12.45,-3.48 -10.29,-12.39c-2.62,-7.04 -12.77,-8.51 -17.25,-2.25c-3.34,5.2 -9.68,7.79 -11.35,14.17c-3.26,5.23 -1.62,12.05 -3.29,17.06c-3.05,0.81 -6.49,0.53 -9.52,-0.26" id="path7001"/>
   <path fill="none" stroke-width=".86703pt" stroke="#000000" stroke-opacity="0.50196" d="m548.642,145.669c0.59,0.81 2.25,1.86 4.03,3.2c2.28,1.71 5.38,2.65 6.07,6.07c0.51,2.55 1.88,5.45 1.66,7.73c-0.27,2.64 -1.57,6.96 0.55,9.39c2.27,2.6 3.73,4.33 7.18,6.63c2.5,1.67 5.86,1.92 4.42,5.52c-1.13,2.81 -1.5,3.8 -2.77,6.07c-1.07,1.94 -1.83,4.38 -3.31,6.08c-2.21,2.53 -2.43,4.55 -6.63,4.97c-4,0.4 -4.41,1.48 -7.73,-1.11c-1.89,-1.47 -3.56,-5.67 -7.18,-3.86c-3.73,1.87 -3.98,1.39 -6.62,4.42c-1.63,1.86 -2.96,2.6 -4.97,4.41c-1.03,0.93 -3.41,4.34 -5.53,4.97c-1.62,0.49 -5.61,0.94 -6.62,2.77c-1.01,1.8 -1.9,3.8 -3.87,5.52c-0.93,0.82 -1.53,1.8 -2.22,2.71" id="path2677"/>
   <path fill="none" stroke-width=".86703pt" stroke="#000000" stroke-opacity="0.50196" d="m515.102,221.159c-0.68,0.91 -1.46,1.74 -2.75,2.26c-2.45,0.98 -5.64,2.03 -8.83,3.31c-1,0.4 -6.82,3.68 -7.73,3.31c-2.23,-0.89 -3.68,-3.86 -6.08,-3.86c-1.66,0 -3.73,-1.1 -4.97,0c-1.23,1.09 -3.07,3.36 -4.97,4.42c-2.63,1.46 -4.81,3.8 -8.28,2.76c-2.79,-0.84 -5.46,-2.55 -8.84,-2.21c-4.76,0.48 -4.9,-0.58 -6.75,3.36" id="path2715"/>
   <path fill="none" stroke-width=".86703pt" stroke="#000000" stroke-opacity="0.50196" d="m641.352,442.869c1.17,14.39 -24.29,18.51 2.85,25.52c29.98,10.09 1.22,50.48 -18.79,35.28c-13.95,12.72 -35.2,16.44 -50.56,19.34c1.59,14.25 -37.49,-12.87 -49,-13.77c-13.29,6.58 25.63,22.78 -6.57,13.14c-12.91,7.64 -32.34,10.34 -17.07,29.78c-3.84,3.32 -4.69,3.91 -3.56,5.33" id="path3157"/>
   <path fill="none" stroke-width=".86703pt" stroke="#000000" stroke-opacity="0.50196" d="m385.832,403.669c2.97,0.46 5.94,0.46 8.86,0.01c2.91,-0.45 5.76,-1.35 8.48,-2.67c2.71,-1.33 5.29,-3.09 7.66,-5.26s4.53,-4.75 6.41,-7.73s3.47,-6.35 4.71,-10.1c4.4,-4.8 10.7,-9.55 17.34,-14.58c6.64,-5.02 13.62,-10.31 19.39,-16.18c5.77,-5.86 12.18,-16.52 12.69,-24.05" id="path3149"/>
   <path fill="none" stroke-width=".86703pt" stroke="#000000" stroke-opacity="0.50196" d="m312.972,538.729c4.18,-1.31 7.85,-5.96 2.79,-8.82c-1.15,-2.58 -5.29,-7.26 0.52,-6.34c6.71,0.4 8.72,-8.86 15.14,-9.85c8.11,0.13 7.54,-9.17 10.44,-14.53c0.89,-1.56 1.25,-3.12 1.24,-4.66c-0.01,-1.53 -0.4,-3.05 -1.01,-4.53s-1.45,-2.92 -2.35,-4.3" id="path3179"/>
   <path fill="none" stroke-width=".86703pt" stroke="#000000" stroke-opacity="0.50196" d="m499.102,557.519c-4.19,-2.83 -11.3,1.68 -14.8,-4.54c-1.37,-0.9 -4.43,-1.65 -5.48,-1.81" id="path7013"/>
   <path fill="none" stroke-width=".86703pt" stroke="#000000" stroke-opacity="0.50196" d="m314.102,538.739c0.28,3.51 6.83,5.26 8.83,8.84c4.94,4.94 12.23,-4.17 15.17,4.3c3.05,5.73 7.58,10.43 14.68,8.43c6.49,1.62 12.9,1.34 18.8,-2.09c7.12,-0.84 3.64,-10.22 9.33,-13.26c3.84,-4.23 9.06,-11.1 15.39,-9.2c5.75,6.32 7.77,-8.49 13.7,-2.1c3.9,4.94 8.53,0.98 13.55,0.26c6.67,-0.18 14.16,2.01 17.79,8.11c4.17,4.81 8.52,11.48 15.4,11.98c6.43,0.38 13.23,1.04 19.16,-2.01c1.29,-0.39 2.58,-0.74 3.87,-1.11" id="path7011"/>
   <path fill="none" stroke-width=".86703pt" stroke="#000000" stroke-opacity="0.50196" d="m340.062,485.729c4.38,0.1 6.04,6.46 11.07,5.53c4.91,1.8 8.14,-3.17 11.95,-3.93c2.62,3.7 5.15,8.37 10.66,6.68c5.34,0.29 10.1,-2.84 14.71,-5.09c4.44,-2.23 9.55,-4.65 14.54,-2.65c5,0.05 8.29,3.78 12.19,6.32c4.39,3.34 9.7,5.38 15.23,5.53c2.34,-2.26 2.16,-7.38 -0.18,-10.44c-2.08,-4.39 -6.47,-7.22 -8.32,-11.8c-2.66,-4.34 -4.22,-9.18 -4.15,-14.31c-0.35,-4.37 0.95,-12.26 -5.94,-9.9c-3.77,1.3 -8.36,8.39 -12.09,4.35c-3.53,-5.28 3.63,-7.47 5.09,-11.74c0,-3.54 1.04,-9.09 -3.63,-10.02c-4.54,-1.23 -8.93,-3.42 -12.44,-6.52c0.8,-3.24 6.79,-5.15 2.45,-8.59c-2.73,-3.83 -5.69,-8.14 -5.19,-13.07l0.36,-0.67l0.63,-0.86" id="path7009"/>
   <path fill="none" stroke-width=".86703pt" stroke="#000000" stroke-opacity="0.50196" d="m471.372,323.109c0.43,-6.22 0.3,-11.11 -4.97,-20.51" id="path2250"/>
   <path fill="none" stroke-width=".86703pt" stroke="#000000" stroke-opacity="0.50196" d="m625.992,283.529c-1.19,0.57 -1.56,1.58 -1.4,2.88c0.15,1.31 0.84,2.91 1.77,4.68c0.94,1.76 2.11,3.69 3.26,5.63c1.14,1.94 2.24,3.91 3.03,5.76c0.78,1.84 1.25,3.57 1.11,5.04s-0.88,2.68 -2.51,3.5c-1.62,0.81 -4.14,1.23 -7.82,1.11c-3.18,27.67 35.15,33.72 51.31,27.2c17.85,-6.73 24.52,37.83 15.77,53.43c16.52,13.58 -12.77,17.81 -16.64,27.15c-13.32,6.63 -14.64,26.79 -32.52,22.96" id="path3155"/>
   <path fill="none" stroke-width=".86703pt" stroke="#000000" stroke-opacity="0.50196" d="m466.152,303.089c-6.1,-15.18 7.25,-8.35 10.51,-11.8c4.98,-3.22 12.48,0.1 17.16,-3.84c5.22,-2.09 4.12,-11.87 -2.34,-10.26c-5.26,-0.03 -8.6,-5.95 -3.64,-9.04c1.47,-2.18 1.28,-4.25 0.65,-3.79" id="path7063"/>
   <path fill="none" stroke-width=".86703pt" stroke="#000000" stroke-opacity="0.50196" d="m641.022,442.649c-4.15,-5.95 -14.56,-1.09 -17.7,-8.12c0.53,-6.37 -2.93,-16.7 -10.47,-10.13c-6.15,-3.33 -12.86,-5.43 -20.01,-2.64c-7.43,-1.27 -13.27,-7.73 -15.73,-14.56c0.47,-10.08 -12.35,-6.24 -15.06,0.11c-6.08,5.2 -14.63,1.97 -21.42,0.12c-6.46,-3.41 -17.29,0.54 -17.23,-10.06c-1.11,-7.09 -5.14,-12.94 -11.87,-15.73c-9.56,-3.54 1.5,-9.09 4.8,-12.78c1.54,-5.09 11.72,-12.62 1.82,-14.68c-4.9,-3.12 3.42,-9.95 -3.03,-13.85c-4.48,-4.85 -10.02,-12.65 -16.81,-12.51c-2.58,5.89 -9.07,12.25 -14.5,5.44c-2.39,-4.81 -6.56,-9.04 -11.77,-10.72"  id="path7007"/>
   <path fill="none" stroke-width=".86703pt" stroke="#000000" stroke-opacity="0.50196" d="m488.612,264.279c-1.9,-1.17 -4.38,-3.46 -5.54,-5.27c-1.4,-2.79 -3.03,-5.48 -5.3,-7.65c-1.55,-2.05 -3.5,-3.79 -5.89,-4.79c-3.05,-1.45 -5.52,-3.78 -8.12,-5.86c-1.95,-1.12 -4.05,-1.96 -6.08,-2.93c-1.13,-1.39 -1.07,-1.65 -1.91,-3.23" id="path7005"/>
   <path fill="none" stroke-width=".86703pt" stroke="#000000" stroke-opacity="0.50196" d="m626.112,283.609c-5.38,-3.91 -11.35,-6.91 -17.11,-10.2c-4.23,-1.7 -9.34,-1.19 -12.93,1.75c-4.61,1.74 -7.6,5 -7.32,10.16c0.68,5.02 -1.76,9.17 -7.17,7.22c-4.54,1.84 -8.24,-2.24 -12.51,-2.84c-4.68,1.6 -6.65,-2.19 -6.2,-6.24c-1.58,-4.58 -7.5,-4.64 -10.96,-7.26c-6.19,-4.17 -14.06,-2.37 -20.84,-4.82c-4.08,-0.44 -7.36,-2.92 -9.36,-6.45c-2.57,-3.71 -2.04,-8.83 -2.52,-13.1c0.69,-5.49 7.52,-5.33 9.88,-9.69c3.23,-2.47 3.3,-6.1 -0.7,-7.68c-3.62,-5.48 -8.67,-9.72 -13.26,-14.36" id="path7003"/>
  </g>
  <g    id="layer5">
   <path fill="#fff" stroke-width=".86703pt" stroke="#000000" fill-rule="evenodd" d="m499.102,557.519c0.68,1.39 3.79,3.65 6.78,4.78c2.98,1.12 6.12,2.5 7.85,4.92s2.06,5.9 -0.58,11.21c22.65,4.47 9.8,36.51 34.16,48.18c8.59,36.32 -4.46,61.94 -27.17,87.13c-5.52,15.63 9.05,19.64 21.48,12.71c-2.98,18.31 -33.89,25.01 -43.91,44.44c-19.27,-24.13 -13.99,36.98 2.74,16.43c18.82,-1.33 3.57,24.35 26.96,22.2c-6.19,8.81 0.41,21.23 -15.21,25.24c-0.62,10.67 -24.08,8.44 -0.79,17.32c2.58,12.67 -35.41,-0.88 -45.11,2.24c-0.07,-14.31 -29.39,15.72 -17.04,-10.09c-27.06,-20.98 9.63,-38.15 9.94,-60.98c-9.15,-21.38 21.56,-26.74 7.1,-39.72c2.56,-2.41 3.75,-4.35 3.87,-5.97c0.12,-1.61 -0.83,-2.89 -2.54,-3.98c-1.72,-1.09 -4.2,-1.99 -7.13,-2.82c-2.94,-0.84 -6.33,-1.62 -9.87,-2.48c-3.55,-0.86 -7.25,-1.8 -10.79,-2.96c-3.55,-1.15 -6.94,-2.52 -9.87,-4.24c-2.94,-1.73 -5.41,-3.8 -6.82,-5.72c3.68,1.54 8.71,-0.74 9.16,-4.49c-2.17,-6.75 -0.17,-13.49 5.72,-17.68c4.55,-4.38 10.94,-6.64 17.16,-7.31c6.81,-2.27 13.55,-4.73 20.71,-5.77c5.83,-2.48 10.86,-6.61 16.23,-9.97c0.75,-4 -6.02,-8.32 -7.61,-12.87c-5.29,-5.73 -2.32,-13.84 -5.38,-20.2c-5.59,-5.87 -2.92,-13.89 -4.15,-21.02c-2.36,-7.88 5.7,-3.33 9.09,-1.05c6.75,7.15 10.79,-8.8 17.92,-2.41c3.48,0.2 11.77,6.01 12.38,1.38c-1.02,-10.4 -7.95,-19.11 -15.38,-25.95c-4.46,-5.25 -0.86,-13.31 -3.77,-18.9c-6.82,-2.55 -14.72,-6.97 -15.31,-15.11c-1.18,-2.57 -2.15,-3 -1.1,-2.84s4.11,0.91 5.48,1.81c3.5,6.22 10.61,1.71 14.8,4.54z"  id="path3208"/>
   <path fill="#be7c3f" stroke-width=".86703pt" stroke="#000000" fill-rule="evenodd" d="m406.812,532.019c-3.71,0.38 -5.93,8.78 -10.51,3.74c-6.33,-1.89 -11.55,4.96 -15.39,9.19c-5.69,3.04 -2.2,12.44 -9.32,13.27c-5.91,3.44 -12.31,3.71 -18.8,2.09c-7.1,2 -11.64,-2.69 -14.69,-8.43c-2.94,-8.46 -10.23,0.63 -15.17,-4.31c-2,-3.57 -8.56,-5.32 -9.4,-8.83c-6.9,-0.18 -12.98,-4.67 -19.32,-3.3c-3.96,4.66 -9.95,9.46 -16.42,7.04c-6.22,-1.41 -7.92,6.94 -12.28,9.92c-2.39,7.01 -10.02,8.43 -15.55,11.32l0,0.03c0.01,0.02 0.02,0.06 0.03,0.08c0,0.02 0.02,0.06 0.03,0.08c0,0.02 -0.01,0.06 0,0.08c0.12,1.71 -4.03,5.38 -9.13,8.05c-5.41,2.82 -12.49,5.42 -19.24,6.1c-6.76,0.67 -13.19,-0.57 -17.23,-5.39c-0.75,3.98 -2.08,7.02 -3.88,9.32c-1.79,2.29 -4.03,3.85 -6.61,4.87c-2.58,1.03 -5.49,1.52 -8.59,1.68c-3.09,0.17 -6.39,-0.01 -9.73,-0.3c-3.33,-0.28 -3.8,-0.66 -6.66,-0.97c-2.2,2.67 -4.32,5.84 -6.72,8.75c-1.57,2.59 -5.38,5.29 -2.9,8.56c2.65,4.09 5.13,8.34 7.1,12.79c0.61,3.75 -0.48,7.57 -0.7,11.22c4.59,2.82 9.18,8.21 9.34,16.01c-2.25,1.57 -1.95,1.92 -4.31,2.82c1.45,0.9 2.12,2.28 2.63,4.04c1.36,2.92 2.95,6.16 1.11,9.26c-0.59,1.07 -1.29,4.57 -2.3,4.77c6.29,1.52 9.11,2.28 15.15,6.15c26.53,18.28 6.26,-21.96 13.35,-27.15c17.38,-6.47 30.36,-8 25.55,10.03c27.04,18.67 44.68,-49.01 54.38,-7.43c-3.61,7.06 -14.51,8.21 -15.52,8.86c-0.01,0.01 -0.02,0.03 -0.03,0.03c0,0.01 -0.02,0.02 -0.03,0.03l0,0.03l0,0.02c0.21,0.44 6.02,0.81 23.68,3.09c11.8,13.15 26.04,-6.52 27.8,-19.91c27.02,0.77 4.89,33.31 24.33,48.66c21.31,-12.28 11.68,13.76 23.41,14.82c21.94,11.3 42.27,-21.19 56.04,2.63c-0.13,3.67 0.83,6.73 2.84,9.94c3.69,1.54 8.71,-0.75 9.16,-4.5c-2.17,-6.75 -0.17,-13.5 5.72,-17.69c4.55,-4.38 10.95,-6.63 17.17,-7.29c6.82,-2.27 13.54,-4.73 20.7,-5.77c5.83,-2.49 10.86,-6.64 16.23,-10c0.75,-3.99 -6.01,-8.31 -7.61,-12.87c-5.29,-5.72 -2.33,-13.83 -5.39,-20.18c-5.59,-5.87 -2.92,-13.89 -4.15,-21.03c-2.36,-7.88 5.71,-3.33 9.11,-1.05c6.75,7.15 10.77,-8.78 17.91,-2.39c3.47,0.2 11.76,6.01 12.38,1.38c-1.03,-10.39 -7.96,-19.12 -15.39,-25.95c-4.46,-5.26 -0.87,-13.32 -3.77,-18.92c-6.82,-2.54 -14.71,-6.94 -15.31,-15.09c-0.75,-1.64 -1.41,-2.44 -1.51,-2.73c0.18,-0.06 0.34,-0.09 0.43,-0.11c-0.18,-0.03 -0.31,-0.04 -0.38,-0.03l-0.03,0l-0.02,0.03c-0.01,0 -0.03,0.02 -0.03,0.03l0,0.02l0,0.03l0,0.03c-0.57,0.15 -1.52,0.42 -2.47,0.7c-5.93,3.06 -12.72,2.39 -19.15,2.01c-6.88,-0.51 -11.25,-7.17 -15.42,-11.98c-3.63,-6.1 -11.11,-8.28 -17.77,-8.1c-5.03,0.72 -9.65,4.67 -13.55,-0.27c-1.21,-1.3 -2.25,-1.72 -3.2,-1.63zm-105.61,115.61c11.97,0.67 -12.94,15.92 0,0zm-129.35,17.86c0.02,0.01 0.03,0.02 0.05,0.03c-0.02,-0.01 -0.03,-0.03 -0.05,-0.03zm0.05,0.03c0.09,0.04 0.16,0.06 0.25,0.05c-0.09,-0.02 -0.16,-0.03 -0.25,-0.05z" id="path3170"/>
   <path fill="#fff" stroke-width=".86703pt" stroke="#000000" fill-rule="evenodd" d="m165.552,628.759c-4.1,-3.06 -8.38,-3.48 -14.56,-4.68s-12.6,-2.36 -18.02,-5.06c-5.41,-2.71 -9.8,-6.97 -11.92,-14.39c1.73,-16.13 55.83,4.39 20.45,-12.2c1.63,-2.06 3.75,-3.42 6.21,-4.28s5.27,-1.22 8.29,-1.29c3.02,-0.06 9.19,0.16 12.96,0.48c-2.2,2.66 -4.34,5.85 -6.74,8.76c-1.57,2.6 -5.35,5.29 -2.88,8.56c2.66,4.08 5.11,8.34 7.08,12.8c0.61,3.74 -0.48,7.57 -0.87,11.3zm6.07,36.44c-6.09,-0.83 -16.15,-2.79 -22.5,-3.71s-12.59,-2.18 -18.54,-4.88c-5.96,-2.7 -11.63,-6.85 -16.86,-13.54c-10.94,10.05 -18.32,34.71 -37.313,13.27c-15.505,1.46 -14.742,-24.71 -30.069,-8.71c-19.051,-5.18 -49.553,-37.74 -13.137,-40.73c24.064,-26.24 26.274,39.54 47.294,10.51c2.555,-1.05 5.025,-1.76 7.415,-2.19c2.38,-0.42 4.69,-0.55 6.92,-0.43c2.24,0.12 4.4,0.48 6.51,1.05c2.1,0.57 4.15,1.34 6.14,2.27s3.94,2.02 5.84,3.23s3.77,2.53 5.6,3.92c1.83,1.4 3.64,2.86 5.42,4.36c1.78,1.49 3.55,3.01 5.3,4.52c1.75,1.5 3.5,2.99 5.24,4.42c1.75,1.43 3.49,2.8 5.25,4.06c1.75,1.27 3.52,2.43 5.31,3.44c1.78,1.02 3.59,1.88 5.43,2.56c1.84,0.67 3.71,1.15 5.62,1.4c1.91,0.24 3.86,0.25 5.86,-0.02s6.54,-1.65 8.41,-2.49c1.45,0.9 2.13,2.27 2.64,4.03c1.36,2.92 2.95,6.16 1.11,9.25c-0.67,1.22 -1.47,5.53 -2.89,4.41zm-89.811,-109.1c-1.813,-1.36 -4.339,1.35 -6.569,1.75c-2.033,0.37 -3.861,1.9 -5.692,2.63c-1.826,0.73 -4.245,2.89 -6.131,3.94c-2.461,1.37 -1.632,2.77 -2.628,5.26c-0.894,2.23 0.248,4.03 0.876,6.13c0.421,1.4 4.358,2.53 5.693,3.06c2.59,1.04 3.633,1.02 6.569,1.32c2.152,0.21 4.155,-1.78 5.693,-2.63c2.178,-1.21 2.622,-2.33 3.94,-3.5c1.75,-1.56 2.7,-2.36 4.82,-3.95c2.15,-1.61 4.05,4.24 4.38,4.82c1.3,2.34 2.24,1.89 5.25,2.19c4.72,0.47 2.36,0.1 5.26,2.63c1.15,1.01 0.99,4.99 1.31,6.57c0.6,3.02 1.09,3.28 2.19,5.25c0.03,0.05 5.76,0.8 6.13,0.88c0.66,0.13 3.58,3.45 4.82,4.38c1.28,0.96 5.22,-0.61 6.57,-0.88c1.36,-0.27 4.21,-1.88 5.25,-2.19c2.26,-0.67 3.72,-2.14 5.26,-3.06c2.21,-1.33 2.8,-2.13 4.38,-3.51c1.54,-1.35 1.82,-3.68 2.62,-5.69c1.15,-2.87 -1.56,-4.12 -2.19,-5.25c-0.76,-1.38 -5.15,-0.74 -6.56,-0.88c-2.4,-0.24 -4.49,-1.26 -6.14,-1.75c-1.48,-0.45 -2.04,-3.77 -2.62,-4.82c-1.18,-2.13 -1.99,-3.74 -3.07,-5.69c-0.86,-1.56 -4.27,-2.33 -6.13,-3.07c-1.76,-0.7 -5.2,-0.94 -7.44,-1.31c-2.27,-0.38 -4.19,-0.64 -6.57,-0.88c-2.27,-0.22 -4.47,-0.22 -6.57,-0.44c-2.22,-0.22 -4.8,-0.87 -7.01,-1.31c-1.65,-0.33 -4.07,0 -5.691,0zm3.971,40.77c-0.95,-0.19 -4.942,0.5 -7.01,0.88c-2.251,0.41 -4.398,-0.27 -6.131,-0.44c-2.538,-0.25 -4.31,-0.64 -6.568,-1.31c-2.366,-0.71 -4.042,-0.99 -5.693,-1.32c-1.872,-0.37 -5.943,2.75 -7.445,3.5c-2.866,1.44 2.422,6.2 4.817,8.33c1.89,1.68 3.196,3.23 4.379,4.81c1.644,2.19 1.942,2.33 3.504,3.51c1.522,1.14 3.294,-1.93 4.817,-3.07c2.126,-1.59 4.735,-2.59 7.006,-3.5c2.074,-0.83 6.664,0.89 8.754,1.31c2.67,0.53 4.69,1.87 7.45,2.63c3.26,0.89 3.37,-0.78 5.25,-2.19c3.87,-2.9 2.54,-3.95 2.19,-7.45c-0.2,-2.05 -4.07,-3.73 -5.69,-4.81c-1.86,-1.24 -4.4,-1.54 -6.57,-2.19c-1.21,-0.37 -2.12,0.91 -3.06,1.31zm80.11,78.34c-3.61,4.16 -6.4,11.04 -11.46,15.05c-4.52,4.39 -10.22,7.36 -14.19,12.41c-3.76,3 -7.99,9.97 -13.33,5.83c-5.82,0.32 -6.87,8.52 -12.57,8.73c-4.93,0.86 -10.13,-1.31 -12.96,4.19c-3.21,-1.67 -2.07,-9.16 -7.61,-5.35c-4.3,4.79 -13.232,2.94 -14.663,-3.65c-0.629,-4.86 2.622,-13.45 -5.621,-12.81c-6.331,-2.58 -12.296,-6.23 -19.297,-3.83c-4.001,-3.08 -9.829,-10.96 -12.598,-2.32c-5.76,-5.16 -10.684,2.44 -9.662,8.19c0.256,7.9 -8.659,6.03 -13.617,4.66c-5.734,-0.77 -11.083,-3.54 -14.245,-8.48c-3.208,-4.82 -4.053,-11.46 -0.764,-16.47c2.684,-5.24 -2.75,-9.57 -2.708,-14.64c-0.973,1.76 11.243,-3.68 16.118,-6.04c5.7,-1.03 12.747,-5.99 18.677,-3.42c6.879,1.19 7.835,8.58 14.901,9.26c5.991,1.82 12.849,1.65 16.798,7.34c3.887,2.61 9.606,11.97 13.948,6.9c0.906,-3.67 4.943,-7.27 6.823,-1.8c4.21,4.68 12.28,2 14.61,-3.44c4.57,-3.88 13.4,-0.12 12.52,-8.8c-1.34,-6.4 6.92,-10.72 10.41,-4.45c0.79,5.95 6.16,9.67 11.71,10.93c4.56,-0.7 8.06,4.39 10.77,5.2c-1.2,-2.93 -3.09,-7.68 2,-4.8c4.87,3.38 2.86,-9.1 8.68,-4.18c3.08,1 4.99,3.74 7.33,5.79z"  id="path3126"/>
   <path fill="#be7c3f" stroke-width=".86703pt" stroke="#000000" fill-rule="evenodd" d="m250.042,563.589c-0.72,-0.79 -3.75,-0.81 -13.21,2.15c-38.55,17.96 -62.9,-31.9 -97.22,-36.79c-5.3,-11.22 -14.24,-10.98 -8.63,-20.37c1.12,-1.87 -7.6,-2.49 -9.59,-4.07c-1.98,-1.59 0.96,-4.33 4.21,-11.03c-5.81,-22 12.97,-2.67 21.46,-5.69c-0.87,-5.27 -0.92,-10.91 1.97,-14.89c5.21,-7.34 15.03,-16.55 21.68,-23.65c7.19,-8.79 14.05,-17.4 20.39,-26.11c6.34,-8.72 14.09,-21.39 19.22,-30.57c2.56,-4.59 4.95,-9.27 7.14,-14.03c4.41,2.97 9.03,4.67 14.37,3.3c3.43,-1.36 5.71,-1.09 5.58,2.82c2.7,5.84 -1.87,12.09 -4.7,17.1c-2.56,4.69 -2.22,11.81 3.62,13.59c4.82,-0.83 12.35,1.74 15.35,-2.52c2.85,-4.39 5.54,-9.17 9.15,-13.07c3.63,-2.09 1.37,6.84 1.81,9.1c-0.59,2.89 -1.33,8.79 3.24,5.35c2.25,-1.77 4.81,-2.92 7.4,-4.3c1.18,2.27 2.93,4.55 4.83,6.75c3.14,5.74 9.03,8.94 13.35,13.29c1.35,8.34 -6.37,6.4 -11.71,8.15c-9.17,1.58 2.69,5.87 1.69,10.25c-2.91,6.91 5.12,6.66 6.38,11.74c5.44,7.98 -7.53,3.08 -7.43,9.4c-3,4.69 1.33,5.15 4.95,4.76c6.34,0.2 0.3,3.21 -2.41,3.99c-1.67,5.05 4.48,11.37 7.42,15.77c2.11,5.62 6.94,2.87 9.05,-1.12c5.11,-6.82 14.81,-2.17 21.29,-6.48c3.97,-4.07 11.24,-11.45 16.27,-4.64c0.9,1.23 1.87,2.55 2.78,3.93c0.9,1.38 1.74,2.82 2.35,4.3s1,3 1.01,4.53c0.01,1.54 -0.35,3.1 -1.24,4.66c-2.9,5.36 -2.33,14.66 -10.44,14.53c-6.42,0.99 -8.43,10.25 -15.14,9.85c-5.81,-0.92 -1.67,3.76 -0.52,6.34c5.06,2.86 1.39,7.51 -2.79,8.82c-6.33,-0.17 -12.41,-4.67 -18.75,-3.3c-3.95,4.66 -9.97,9.47 -16.44,7.05c-6.21,-1.41 -7.91,6.93 -12.27,9.91c-2.4,7.02 -10.02,8.44 -15.47,11.2zm-81.96,-6.18c-0.72,-1.08 -2.32,-3.56 -3.51,-5.69c-1.48,-2.68 -5.11,-3.44 -7.44,-4.38c-2.96,-1.18 -5.28,-2.79 -8.32,-4.81c-2.03,-1.36 -3.97,-3.2 -6.13,-4.82c-1.94,-1.45 -3.32,-1.61 -5.26,-3.07c-1.66,-1.24 -3.17,-2.27 -4.81,-3.5c-2.28,-1.71 -4.88,-3.54 -7.01,-4.82c-3.19,-1.91 -3.17,-1.75 -7.01,-1.75c-1.35,0 -5.11,2.49 -6.56,3.07c-2.67,1.06 -4.89,1.86 -7.45,2.62c-2.31,0.7 -4.51,2.04 -6.57,3.07c-3.02,1.51 -2.81,3.65 -3.94,6.13c-1.2,2.63 0.85,3.9 2.19,5.69c0.87,1.16 4.74,-0.93 5.69,-1.31c2.1,-0.84 3.1,-1.5 4.82,-2.19c2.13,-0.85 4.17,-1.47 6.57,-2.19c1.72,-0.52 3.24,-0.88 5.69,-0.88c2.9,0 3.59,1.09 5.26,1.76c1.18,0.47 2.11,4.41 2.62,5.69c0.92,2.28 1.28,4.2 1.76,6.57c0.41,2.07 1.07,3.76 1.31,6.13c0.21,2.08 1.55,3.66 2.19,5.25c1.06,2.66 3.47,1.97 5.69,2.63c1.73,0.52 4.92,0.27 6.57,0.44c2.22,0.22 4.49,2.15 6.13,3.06c1.44,0.8 2.81,2.39 4.82,3.51c2.25,1.25 4.22,1.92 6.57,2.63c2.6,0.78 4.1,1.74 5.69,2.62c1.84,1.02 2.92,3.11 4.38,4.38c0.78,0.69 5.43,0 6.57,0c3.41,0 5.44,0.33 8.76,0c1.86,-0.18 4.07,-1.97 5.25,-2.63c2.73,-1.51 1.29,-1.97 2.63,-4.37c0.29,-0.53 -5.45,-3.37 -5.69,-3.51c-1.54,-0.85 -3.44,-3.01 -5.26,-4.38c-1.99,-1.49 -3.68,-2.76 -5.25,-3.94c-2.33,-1.74 -5.05,-2.14 -7.45,-3.94c-1.24,-0.93 -2.33,-2.04 -3.5,-3.07z" id="path3062"/>
   <path fill="#fff" stroke-width=".86703pt" stroke="#000000" fill-rule="evenodd" d="m280.182,117.749c-8.65,13.95 -46.53,65.3 -11.38,58.68c16.06,-15.65 31.2,-33.81 17.51,-54.3c1.72,-7.69 -3.55,-8.22 -6.13,-4.38zm-35.03,61.31c-20.06,12.7 24.72,1.58 0,0zm28.18,231.25c-2.64,0.98 -5.2,2.13 -7.45,3.9c-4.57,3.44 -3.83,-2.46 -3.24,-5.35c-0.44,-2.26 1.82,-11.19 -1.81,-9.1c-3.61,3.9 -6.3,8.68 -9.15,13.07c-3,4.26 -10.53,1.69 -15.35,2.52c-5.84,-1.78 -6.18,-8.9 -3.62,-13.59c2.83,-5.01 7.4,-11.26 4.7,-17.1c0.13,-3.91 -2.15,-4.18 -5.58,-2.82c-5.34,1.37 -9.96,-0.33 -14.37,-3.3c2.2,-4.86 4.2,-9.8 5.98,-14.89c3.56,-10.19 4.31,-17.16 5.95,-28.91c3.85,-13.79 8.64,-26.8 9.63,-40.07c-2.48,-35.85 14.84,-67.13 15.55,-103.57c22.47,-23.76 16.64,30.18 40.5,21.24c-2.89,-31.2 37.66,-14.91 35.91,11.38c-12.26,30.05 13.63,29.36 30.43,29.4c4.31,31.16 -30.56,37.5 -51.75,36.33c-0.42,19.54 22.07,34.7 9.5,53.83c21.28,14.31 -41.97,26.74 1.67,33.01c16.75,-3.9 22.97,14.02 40.59,10.12c2.24,3.42 1.39,3.56 4.03,6.25c-3.84,4.52 -6.58,9.44 -8.51,14.8c-0.81,6.26 -4.96,11.21 -10.25,14.38c-2.85,4.45 -14.42,3.75 -10.86,-2.74c4.86,-5.85 -2.34,-8.4 -7.37,-9.03c-4.75,1.9 -8.32,-1.41 -6.59,-6.29c0.18,-3.94 10.55,-9.54 2.57,-11.26c-5.51,1.4 -6.38,-4.87 -10.16,-6.33c-6.57,-4.95 -3.47,7.95 -9.31,8.43c-5.13,0.55 -7.81,6.97 -13.02,5.72c-6.36,-3.64 -6.78,4.5 -10.72,7.01c-2.55,1.14 -5.26,1.97 -7.9,2.96z"  id="path3031"/>
   <path fill="#be7c3f" stroke-width=".86703pt" stroke="#000000" fill-rule="evenodd" d="m339.742,485.699c4.7,0.13 6.36,6.49 11.39,5.56c4.91,1.8 8.14,-3.17 11.95,-3.93c2.62,3.7 5.15,8.37 10.66,6.68c5.34,0.29 10.1,-2.84 14.71,-5.09c4.44,-2.23 9.55,-4.65 14.54,-2.65c5,0.05 8.29,3.78 12.19,6.32c4.39,3.34 9.7,5.38 15.23,5.53c2.34,-2.26 2.16,-7.38 -0.18,-10.44c-2.08,-4.39 -6.47,-7.22 -8.32,-11.8c-2.66,-4.34 -4.22,-9.18 -4.15,-14.31c-0.35,-4.37 0.95,-12.26 -5.94,-9.9c-3.77,1.3 -8.36,8.39 -12.09,4.35c-3.53,-5.28 3.63,-7.47 5.09,-11.74c0,-3.54 1.04,-9.09 -3.63,-10.02c-4.54,-1.23 -8.93,-3.42 -12.44,-6.52c0.8,-3.24 6.79,-5.15 2.45,-8.59c-2.73,-3.83 -5.69,-8.14 -5.19,-13.07l0.36,-0.67l0.04,-1.3c-3.54,-0.91 -6.5,-1.84 -9.37,-3.26c-2.87,-1.41 -8.97,-6.07 -11.59,-8.19c-3.84,4.52 -6.58,9.44 -8.51,14.8c-0.81,6.26 -4.96,11.21 -10.25,14.38c-2.85,4.45 -14.42,3.75 -10.86,-2.74c4.86,-5.85 -2.34,-8.4 -7.37,-9.03c-4.75,1.9 -8.32,-1.41 -6.59,-6.29c0.18,-3.94 10.55,-9.54 2.57,-11.26c-5.51,1.4 -6.38,-4.87 -10.16,-6.33c-6.57,-4.95 -3.47,7.95 -9.31,8.43c-5.13,0.55 -7.81,6.97 -13.02,5.72c-6.36,-3.64 -6.78,4.5 -10.72,7.01c-2.55,1.14 -5.26,1.97 -7.95,2.56c1.18,2.27 2.93,4.55 4.83,6.75c3.14,5.74 9.03,8.94 13.35,13.29c1.35,8.34 -6.37,6.4 -11.71,8.15c-9.17,1.58 2.69,5.87 1.69,10.25c-2.91,6.91 5.12,6.66 6.38,11.74c5.44,7.98 -7.53,3.08 -7.43,9.4c-3,4.69 1.33,5.15 4.95,4.76c6.34,0.2 0.3,3.21 -2.41,3.99c-1.67,5.05 4.48,11.37 7.42,15.77c2.11,5.62 6.94,2.87 9.05,-1.12c5.11,-6.82 14.81,-2.17 21.29,-6.48c3.97,-4.07 11.24,-11.45 16.27,-4.64c0.9,1.23 1.87,2.55 2.78,3.93z"  id="path3104"/>
   <path fill="#be7c3f" stroke-width=".86703pt" stroke="#000000" fill-rule="evenodd" d="m478.822,551.169c-0.34,0.09 -1.63,0.44 -2.92,0.83c-5.93,3.05 -12.73,2.39 -19.16,2.01c-6.88,-0.5 -11.23,-7.17 -15.4,-11.98c-3.63,-6.1 -11.12,-8.29 -17.79,-8.11c-5.02,0.72 -9.65,4.68 -13.55,-0.26c-5.93,-6.39 -7.95,8.42 -13.7,2.1c-6.33,-1.9 -11.55,4.97 -15.39,9.2c-5.69,3.04 -2.21,12.42 -9.33,13.26c-5.9,3.43 -12.31,3.71 -18.8,2.09c-7.1,2 -11.63,-2.7 -14.68,-8.43c-2.94,-8.47 -10.23,0.64 -15.17,-4.3c-2,-3.58 -8.55,-5.33 -9.39,-8.84c3.61,-1.32 7.28,-5.97 2.22,-8.83c-1.15,-2.58 -5.29,-7.26 0.52,-6.34c6.71,0.4 8.72,-8.86 15.14,-9.85c8.11,0.13 7.54,-9.17 10.44,-14.53c0.89,-1.56 1.25,-3.12 1.24,-4.66c-0.01,-1.53 -0.4,-3.05 -1.01,-4.53s-1.45,-2.92 -2.19,-4.29c4.54,0.12 6.2,6.48 11.23,5.55c4.91,1.8 8.14,-3.17 11.95,-3.93c2.62,3.7 5.15,8.37 10.66,6.68c5.34,0.29 10.1,-2.84 14.71,-5.09c4.44,-2.23 9.55,-4.65 14.54,-2.65c5,0.05 8.29,3.78 12.19,6.32c4.39,3.34 9.7,5.38 15.23,5.53c2.34,-2.26 2.16,-7.38 -0.18,-10.44c-2.08,-4.39 -6.47,-7.22 -8.32,-11.8c-2.66,-4.34 -4.22,-9.18 -4.15,-14.31c-0.35,-4.37 0.95,-12.26 -5.94,-9.9c-3.77,1.3 -8.36,8.39 -12.09,4.35c-3.53,-5.28 3.63,-7.47 5.09,-11.74c0,-3.54 1.04,-9.09 -3.63,-10.02c-4.54,-1.23 -8.93,-3.42 -12.44,-6.52c0.8,-3.24 6.79,-5.15 2.45,-8.59c-2.73,-3.83 -5.69,-8.14 -5.19,-13.07l0.36,-0.67l0.04,-1.3c2.39,0.02 5.36,0.02 8.28,-0.43c2.91,-0.45 5.76,-1.35 8.48,-2.67c2.71,-1.33 5.29,-3.09 7.66,-5.26s4.53,-4.75 6.41,-7.73s3.47,-6.35 4.71,-10.1c4.4,-4.8 10.7,-9.55 17.34,-14.58c6.64,-5.02 13.62,-10.31 19.39,-16.18c5.77,-5.86 12.18,-16.52 13.03,-24.33c5.54,1.39 9.71,5.62 12.1,10.43c5.43,6.81 11.92,0.45 14.5,-5.44c6.79,-0.14 12.33,7.66 16.81,12.51c6.45,3.9 -1.87,10.73 3.03,13.85c9.9,2.06 -0.28,9.59 -1.82,14.68c-3.3,3.69 -14.36,9.24 -4.8,12.78c6.73,2.79 10.76,8.64 11.87,15.73c-0.06,10.6 10.77,6.65 17.23,10.06c6.79,1.85 15.34,5.08 21.42,-0.12c2.71,-6.35 15.53,-10.19 15.06,-0.11c2.46,6.83 8.3,13.29 15.73,14.56c7.15,-2.79 13.86,-0.69 20.01,2.64c7.54,-6.57 11,3.76 10.47,10.13c3.14,7.03 13.55,2.17 17.87,8.23c1.33,14.5 -24.13,18.62 3.01,25.63c29.98,10.09 1.22,50.48 -18.79,35.28c-13.95,12.72 -35.2,16.44 -50.56,19.34c1.59,14.25 -37.49,-12.87 -49,-13.77c-13.29,6.58 25.63,22.78 -6.57,13.14c-12.91,7.64 -32.34,10.34 -17.07,29.78c-3.84,3.32 -4.69,3.91 -3.34,5.34c-3.96,-2.81 -11.07,1.7 -14.57,-4.52c-1.37,-0.9 -4.43,-1.65 -5.48,-1.81z"  id="path2894"/>
   <path fill="#be7c3f" stroke-width=".86703pt" stroke="#000000" fill-rule="evenodd" d="m426.012,295.099c-4.67,1.53 -12.14,1.85 -16.29,7.17c-6.57,1.93 -3.92,12.43 -13.05,9.48c-7.22,3.99 -8.74,13.78 -13.12,18.47c-4.81,1.53 6.5,10.75 -4.38,10.44c-5.47,-5.4 -6.92,-0.25 -8.83,4.43c-8.02,2.67 -16.74,0.95 -23.31,7.73c-7.16,2.67 -14.54,6 -11.7,15.1c-2.82,8.03 5,12.75 9.67,5.57c9.33,-2.6 17.78,3.73 24.51,9.51c6.25,5.67 12.45,13.71 18.85,17.92c7.88,-3.04 18.47,-2.12 22.51,-10.94c1.25,-7.31 4.48,-4.57 0.88,-19.67c3.89,-8.05 14.88,3.35 17.76,-7.33c2.46,-10.57 14.64,-8.02 21.71,-13.21c6.01,-7.52 13.76,-14.95 15.04,-24.95c1.3,-8.7 -2.5,-23.39 -13.69,-21.39c-9.19,1.01 -18.5,-4.32 -26.56,-8.33zm29.89,-60.59c-0.98,-1.54 -2.72,-4.44 -4.14,-5.6c-2.08,-1.84 -4.36,-3.48 -6.67,-5.02c-0.91,-0.46 -3.04,-0.62 -4.71,-1.12c-7.05,-3.27 -8.25,5.81 -12.29,9.01c-1.79,5.78 -5.25,10.58 -10.4,13.84c-1.99,5.47 -3.04,11.46 -1.47,17.17c0.87,5.54 -1.91,12.78 3.42,16.68c5.47,3.11 6.1,11.14 12.07,12.86c6.44,2.99 13.17,-0.98 19.64,-1.65c6.4,1.24 13.05,0.32 19,-2.32c5.46,-2.14 11.04,-3.8 16.94,-3.55c4.83,-4.96 -6.5,-6.29 -10.51,-6.17c0.62,-3.89 7.58,-11.61 11.82,-14.27c-1.89,-1.26 -4.37,-3.55 -5.53,-5.36c-1.4,-2.79 -3.03,-5.48 -5.3,-7.65c-1.55,-2.05 -3.5,-3.79 -5.89,-4.79c-3.05,-1.45 -5.52,-3.78 -8.12,-5.86c-1.95,-1.12 -4.05,-1.96 -6.08,-2.93c-1.13,-1.39 -1.07,-1.65 -1.91,-3.23"  id="path3010"/>
   <path fill="#be7c3f" stroke-width=".86703pt" stroke="#000000" fill-rule="evenodd" d="m515.102,221.159c4.6,3.58 9.65,7.82 13.27,13.3c4,1.58 3.93,5.21 0.7,7.68c-2.36,4.36 -9.19,4.2 -9.88,9.69c0.48,4.27 -0.05,9.39 2.52,13.1c2,3.53 5.28,6.01 9.36,6.45c6.78,2.45 14.65,0.65 20.84,4.82c3.46,2.62 9.38,2.68 10.96,7.26c-0.45,4.05 1.52,7.84 6.2,6.24c4.27,0.6 7.97,4.68 12.51,2.84c5.41,1.95 7.85,-2.2 7.17,-7.22c-0.28,-5.16 2.71,-8.42 7.32,-10.16c3.59,-2.94 8.7,-3.45 12.93,-1.75c5.76,3.29 11.73,6.29 17.05,10.16c-1.25,0.53 -1.62,1.54 -1.46,2.84c0.15,1.31 0.84,2.91 1.77,4.68c0.94,1.76 2.11,3.69 3.26,5.63c1.14,1.94 2.24,3.91 3.03,5.76c0.78,1.84 1.25,3.57 1.11,5.04s-0.88,2.68 -2.51,3.5c-1.62,0.81 -4.14,1.23 -7.82,1.11c-3.18,27.67 35.15,33.72 51.31,27.2c17.85,-6.73 24.52,37.83 15.77,53.43c16.52,13.58 -12.77,17.81 -16.64,27.15c-13.32,6.63 -14.64,26.79 -32.68,22.85c-4.32,-6.06 -14.73,-1.2 -17.87,-8.23c0.53,-6.37 -2.93,-16.7 -10.47,-10.13c-6.15,-3.33 -12.86,-5.43 -20.01,-2.64c-7.43,-1.27 -13.27,-7.73 -15.73,-14.56c0.47,-10.08 -12.35,-6.24 -15.06,0.11c-6.08,5.2 -14.63,1.97 -21.42,0.12c-6.46,-3.41 -17.29,0.54 -17.23,-10.06c-1.11,-7.09 -5.14,-12.94 -11.87,-15.73c-9.56,-3.54 1.5,-9.09 4.8,-12.78c1.54,-5.09 11.72,-12.62 1.82,-14.68c-4.9,-3.12 3.42,-9.95 -3.03,-13.85c-4.48,-4.85 -10.02,-12.65 -16.81,-12.51c-2.58,5.89 -9.07,12.25 -14.5,5.44c-2.39,-4.81 -6.56,-9.04 -12.1,-10.43c0.09,-5.94 -0.34,0.28 -0.34,0.28c0.43,-6.22 0.3,-11.11 -5.09,-20.27c-6.23,-14.93 7.12,-8.1 10.38,-11.55c4.98,-3.22 12.48,0.1 17.16,-3.84c5.22,-2.09 4.12,-11.87 -2.34,-10.26c-5.26,-0.03 -8.6,-5.95 -3.64,-9.04c1.47,-2.18 1.28,-4.25 0.71,-3.83c-1.84,-1.21 -4.32,-3.5 -5.48,-5.31c-1.4,-2.79 -3.03,-5.48 -5.3,-7.65c-1.55,-2.05 -3.5,-3.79 -5.89,-4.79c-3.05,-1.45 -5.52,-3.78 -8.12,-5.86c-1.95,-1.12 -4.05,-1.96 -6.08,-2.93c-1.13,-1.39 -1.07,-1.65 -1.85,-3.25c1.92,-3.96 2.06,-2.9 6.82,-3.38c3.38,-0.34 6.05,1.37 8.84,2.21c3.47,1.04 5.65,-1.3 8.28,-2.76c1.9,-1.06 3.74,-3.33 4.97,-4.42c1.24,-1.1 3.31,0 4.97,0c2.4,0 3.85,2.97 6.08,3.86c0.91,0.37 6.73,-2.91 7.73,-3.31c3.19,-1.28 6.38,-2.33 8.83,-3.31c1.29,-0.52 2.07,-1.35 2.75,-2.26z"  id="path2826"/>
   <path fill="#be7c3f" stroke-width=".86703pt" stroke="#000000" fill-rule="evenodd" d="m626.112,283.609c-5.38,-3.91 -11.35,-6.91 -17.11,-10.2c-4.23,-1.7 -9.34,-1.19 -12.93,1.75c-4.61,1.74 -7.6,5 -7.32,10.16c0.68,5.02 -1.76,9.17 -7.17,7.22c-4.54,1.84 -8.24,-2.24 -12.51,-2.84c-4.68,1.6 -6.65,-2.19 -6.2,-6.24c-1.58,-4.58 -7.5,-4.64 -10.96,-7.26c-6.19,-4.17 -14.06,-2.37 -20.84,-4.82c-4.08,-0.44 -7.36,-2.92 -9.36,-6.45c-2.57,-3.71 -2.04,-8.83 -2.52,-13.1c0.69,-5.49 7.52,-5.33 9.88,-9.69c3.23,-2.47 3.3,-6.1 -0.7,-7.68c-3.62,-5.48 -8.67,-9.72 -13.26,-13.83c0.68,-0.38 1.28,-1.36 2.21,-2.18c1.97,-1.72 2.86,-3.72 3.87,-5.52c1.01,-1.83 5,-2.28 6.62,-2.77c2.12,-0.63 4.5,-4.04 5.53,-4.97c2.01,-1.81 3.34,-2.55 4.97,-4.41c2.64,-3.03 2.89,-2.55 6.62,-4.42c3.62,-1.81 5.29,2.39 7.18,3.86c3.32,2.59 3.73,1.51 7.73,1.11c4.2,-0.42 4.42,-2.44 6.63,-4.97c1.48,-1.7 2.24,-4.14 3.31,-6.08c1.27,-2.27 1.64,-3.26 2.77,-6.07c1.44,-3.6 -1.92,-3.85 -4.42,-5.52c-3.45,-2.3 -4.91,-4.03 -7.18,-6.63c-2.12,-2.43 -0.82,-6.75 -0.55,-9.39c0.22,-2.28 -1.15,-5.18 -1.66,-7.73c-0.69,-3.42 -3.79,-4.36 -6.07,-6.07c-1.78,-1.34 -3.44,-2.39 -4.23,-3.81c2.84,0.18 6.28,0.46 9.33,-0.35c1.67,-5.01 0.03,-11.83 3.29,-17.06c1.67,-6.38 8.01,-8.97 11.35,-14.17c4.48,-6.26 14.63,-4.79 17.25,2.25c-2.16,8.91 10.13,4.96 10.29,12.39c1.59,6.7 8.82,11.82 15.21,7.37c5.61,-2.91 13.48,-2.03 15.85,4.6c5.15,6.01 11.11,11.35 16.18,17.47c4.51,6.46 9.79,12.09 16.1,16.81c6.55,4.69 7.11,14.38 14.31,17.92c9.17,2.71 -1.36,11.1 4.2,16.15c1.01,6.79 7,7.84 12.98,10.13c-5.23,15.36 -6.32,28.68 -4.71,49.38c5.13,33.98 -40.22,-1.84 -57.8,15.33c-3.1,-0.45 -5.1,-0.32 -6.28,0.25"  id="path2747"/>
   <g fill="#fff" transform="matrix(0.86702, 0, 0, 0.86702, 808.65, 72.21)" id="g2487">
    <path fill="#fff" stroke-width="1pt" stroke="#000000" fill-rule="evenodd" d="m-302.92947,-67.18062c1.93,-2.213 -5.2,2.959 -8.08,3.535c-2.38,0.475 -4.85,1.98 -7.58,2.526c-2.77,0.554 -5.35,0.272 -8.08,0c-2.21,-0.221 -5.63,0.505 -8.08,0.505c-3.21,0 -4.95,0.878 -7.07,1.515c-1.03,0.308 -3.1,5.265 -3.54,6.061c-0.64,1.159 0.35,5.985 0.51,7.576c0.39,3.922 4.34,1.737 6.56,1.515c0.53,-0.053 3.26,-4.173 3.54,-4.546c1.65,-2.203 4.12,-1.287 6.56,-2.02c2.53,-0.757 4.79,-0.552 7.07,-1.01c2.5,-0.499 4.25,-1.798 6.07,-2.525c2.31,-0.925 3.77,-2.347 5.55,-3.536c2.02,-1.346 2.72,-1.734 5.05,-3.03c1.95,-1.082 5.24,-0.505 7.58,-0.505c1.88,0 -0.68,-3.704 -1.01,-5.556c-0.48,-2.62 -4.3,-0.431 -5.05,-0.505z" id="path7043"/>
    <path fill="#fff" stroke-width="1pt" stroke="#000000" fill-rule="evenodd" d="m-442.32947,-48.99862c-0.58,-3.196 -5.6,0.467 -6.06,0.505c-1.72,0.143 -1.83,5.591 -2.02,6.566c-0.34,1.683 2.52,5.651 3.03,6.566c1.07,1.932 5.8,2.498 7.57,3.031c3.08,0.924 4.26,-1.298 6.06,-2.02c1.74,-0.694 3.4,-2.677 4.55,-3.536c1.71,-1.287 3.61,-2.232 5.05,-3.03c2.22,-1.236 4.25,-1.456 7.07,-2.021c0.26,-0.051 6.89,1.984 7.07,2.021c2.05,0.409 6.71,-1.241 8.08,-1.516c1.81,-0.36 4.85,-1.503 6.57,-2.02c2.1,-0.629 4.18,-0.953 6.06,-1.515c2.33,-0.7 5.48,0.296 7.58,0.505c1.75,0.176 5.27,-0.831 7.07,-1.01c2.41,-0.241 3.69,-1.494 5.55,-2.526c2.18,-1.207 -4.13,-3.048 -6.56,-3.535c-2.72,-0.543 -5.33,-1.015 -8.08,-1.515c-2.75,-0.499 -5.54,0.25 -8.09,0.505c-2.24,0.224 -5.07,1.519 -7.57,2.02c-2.31,0.462 -5.22,0 -7.58,0c-2.92,0 -5.03,0.502 -7.57,1.01c-2.51,0.501 -4.82,2.562 -6.57,3.536c-2.74,1.52 -6.45,2.086 -9.6,3.03c-2.75,0.827 -5.89,-0.572 -8.08,-1.01c-2.68,-0.537 -1.74,-1.989 -3.53,-4.041z" id="path7041"/>
    <path fill="#fff" stroke-width="1pt" stroke="#000000" fill-rule="evenodd" d="m-464.55947,-40.41162c0.17,-0.936 -2.9,2.513 -3.95,3.329c-2.41,2.567 -5.44,4.432 -8.86,5.278c-3.64,0.871 -2.49,5.819 -4.36,8.176c-3.73,0.989 -7.22,-1.723 -10.98,-1.572c-3.3,-0.777 -6.12,0.561 -7.65,3.611c-1.86,3.261 -6.04,3.069 -9.18,4.189c-4.91,0.916 -9.88,1.585 -14.62,3.253c-4.23,1.198 -6.18,3.635 -10.45,4.755c-3.42,0.495 -4.7,8.438 -6.6,8.298c-3.17,1.96 -6.84,-3.226 -7.1,-5.741c1.04,-2.89 2.58,-6.547 5.43,-8.043c6.44,-3.965 11.24,-9.349 18.74,-11.245c4.81,-1.726 9.62,-3.428 14.57,-4.728c5.39,-1.848 11.23,-1.105 16.73,-2.489c3.71,-0.944 7.07,-2.893 10.73,-4.01c5.45,-2.563 11.02,-5.158 16.98,-6.231c1.25,0.32 -1.05,2.495 0.57,3.17z" id="path7039"/>
    <path fill="#fff" stroke-width="1pt" stroke="#000000" fill-rule="evenodd" d="m-544.35947,9.08538c-4.02,0.19 -3.28,0.84 -4.54,5.05c-1.61,5.36 2.85,0.48 3.03,0.51c3.88,0.64 1.29,-4.48 1.51,-5.56z" id="path7037"/>
    <path fill="#fff" stroke-width="1pt" stroke="#000000" fill-rule="evenodd" d="m-518.59947,24.74538c2.01,0.33 -2.53,3.52 -2.53,5.55c0,4.87 4.97,-2.41 5.06,-2.52c1.44,-1.92 -2.26,-2.7 -2.53,-3.03z" id="path7035"/>
    <path fill="#fff" stroke-width="1pt" stroke="#000000" fill-rule="evenodd" d="m-562.03947,7.56538c0.53,-1.37 -2.13,0.64 -2.72,0.89c-2.53,1.65 -5.41,2.9 -7.29,5.36c-2.35,3.04 -5.57,5.17 -8.48,7.63c-3.23,2.1 -7.64,1.92 -10.31,4.96c-2.01,2.06 -4.59,3.48 -6.62,5.51c-1.96,3.01 -3.75,6.15 -5.99,8.99c-0.48,2.33 3.03,2.78 4.67,3.5c2.43,0.65 4.11,-0.12 6.53,-1.49c3.64,-2.85 4.55,-2.39 5.55,-4.46c4.08,-3.84 2.32,-4.36 5.01,-6.18c2.04,-1.02 3.75,-2.38 3.29,-4.89c0.34,-1.94 -0.35,-4.23 0.9,-5.89c2.16,-0.85 4.66,-0.51 6.86,-1.54c2.29,-0.52 5.05,-0.41 6.57,-2.53c1.54,-2.03 3.75,-3.54 4.66,-6.01c1.38,-1.51 1.1,-3.26 -1.15,-3.32c-0.5,-0.14 -1.02,-0.27 -1.48,-0.53z" id="path7033"/>
    <path fill="#fff" stroke-width="1pt" stroke="#000000" fill-rule="evenodd" d="m-312.60947,-3.68262c0.25,-0.628 4.45,0.13 4.63,1.018c0.75,3.77 1.95,5.4 0,8.91c-1.36,2.45 -1.4,6.85 -2.55,8.92c-1.71,3.08 -2.42,4.58 -4.46,7.64c-1.13,1.7 -5.26,4.25 -4.46,8.28c0.39,1.95 2.33,8.17 1.91,9.56c-0.38,1.28 -0.97,5.21 -2.54,7c-1.91,2.18 -2.86,4.32 -4.46,6.37c-0.82,1.05 -4.65,3.8 -4.46,5.73c0.29,2.95 -0.44,5.3 2.55,8.28c2.22,2.22 4.5,5.87 7,6.37c3.73,0.75 9.08,0.72 11.47,1.91c3.17,1.59 4.4,0.4 7,5.1c0.96,1.72 0.41,2.38 1.09,3.32c0.69,0.94 2.6,2.15 4.65,3.69c2.64,1.97 6.21,3.05 7,7c0.59,2.95 2.18,6.29 1.91,8.92c-0.3,3.04 -1.81,8.03 0.64,10.83c2.62,2.99 4.3,4.99 8.28,7.64c2.89,1.93 6.76,2.21 5.1,6.37c-1.3,3.24 -1.73,4.39 -3.19,7.01c-1.24,2.23 -2.11,5.05 -3.82,7c-2.55,2.92 -2.8,5.25 -7.64,5.73c-4.62,0.47 -5.09,1.71 -8.92,-1.27c-2.19,-1.7 -4.11,-6.54 -8.28,-4.46c-4.31,2.16 -4.59,1.61 -7.64,5.1c-1.88,2.15 -3.41,3 -5.74,5.09c-1.18,1.07 -3.93,5 -6.36,5.74c-1.88,0.56 -6.48,1.08 -7.65,3.18c-1.16,2.09 -2.19,4.38 -4.46,6.37c-1.08,0.94 -1.76,2.08 -2.55,3.13c-0.79,1.04 -1.69,2 -3.18,2.6c-2.83,1.13 -6.51,2.35 -10.19,3.82c-1.15,0.46 -7.87,4.24 -8.92,3.82c-2.57,-1.02 -4.23,-4.45 -7,-4.45c-1.91,0 -4.31,-1.27 -5.73,0c-1.42,1.26 -3.55,3.87 -5.74,5.09c-3.04,1.69 -5.55,4.39 -9.55,3.19c-3.21,-0.97 -6.3,-2.94 -10.19,-2.55c-5.5,0.55 -5.66,-0.66 -7.79,3.87c-1.12,-1.77 -3.14,-5.12 -4.77,-6.46c-2.41,-2.12 -5.03,-4 -7.69,-5.78c-1.06,-0.53 -3.51,-0.71 -5.16,-1.26c4.62,-0.69 -9.71,-2.65 -12.31,-2.98c-7.16,-1.94 -14.3,0.1 -20.45,3.86c-6.05,6.53 -10.14,-2.32 -15.92,-3.88c-6.16,-4.34 -14.07,1.01 -20.33,-3.36c-3.88,-4.99 -10.91,-11.71 -2.24,-16.05c3.58,-5.83 5.78,-12.29 4.91,-19.17c-0.65,-4.12 -0.63,-9.41 -1.45,-13.85c-4.36,-8.25 1.84,-16.49 -6.13,-23.08c-5.14,-10.12 6.98,-17.52 5.95,-26.62c1.51,-4.85 2.39,-8.79 4.3,-13.54c1.92,-4.79 2.19,-10.03 4.29,-14.88c4.96,-5.98 12.9,-8.66 18.47,-14.13c4.6,-7.51 9.04,-15.27 19.01,-16.63c9.94,-3.17 18.39,-9.4 28.36,-12.414c6.67,-3.85 12.82,-9.367 20.44,-11.12c8.9,1.289 14.55,-5.441 21.91,-8.665c8.84,-2.841 18.47,-0.676 27.14,-4.107c12.75,-5.406 15.21,11.751 14.12,20.56c4.52,3.141 15.28,2.663 21.79,2.688z"  id="path3129"/>
   </g>
   <path fill="#fff" stroke-width=".86703pt" stroke="#000000" fill-rule="evenodd" d="m594.172,0.825c1.32,-1.321 -2.92,2.336 -4.38,3.504c-1.35,1.081 5.58,1.751 6.13,1.751c3.42,0 1.29,-1.941 2.63,-3.941c0.84,-1.268 -2.92,-0.876 -4.38,-1.314zm-17.08,3.942c0.94,-1.407 -6.7,0.289 -7.44,0.438c-1.55,0.309 1.36,2.994 2.62,3.941c0.85,0.636 4.83,-0.308 6.13,-0.438c3.8,-0.379 1.98,-2.265 3.07,-3.503c0.96,-1.104 -2.92,-0.292 -4.38,-0.438zm-28.45,140.9c-0.59,-0.81 -0.12,-1.39 -0.94,-2.88c-2.27,-4.07 -3.33,-3.04 -6.08,-4.42c-2.07,-1.03 -6.71,-1.01 -9.94,-1.65c-2.17,-0.44 -4.15,-3.6 -6.07,-5.52c-2.59,-2.59 -1.96,-4.63 -2.21,-7.18c-0.17,-1.68 3.15,-4.06 3.86,-4.97c1.39,-1.79 2.22,-3.64 3.87,-5.53c1.36,-1.55 1.87,-4.96 2.21,-6.07c0.36,-1.2 -1.32,-6.6 -1.66,-8.28c-0.7,-3.5 2.89,-5.71 3.87,-7.18c1.76,-2.66 2.38,-3.96 3.86,-6.63c1,-1.8 1.03,-5.61 2.21,-7.73c1.69,-3.05 0.65,-4.46 0,-7.73c-0.15,-0.77 -3.8,-1.43 -4.19,-1.12c0.57,-3.96 -10.87,-1.47 -11.93,-6.3c-7.68,-4.72 6.44,-9.5 2.62,-11.95c-8.74,-3.58 1.43,-6.43 5.88,-4.8c6.81,5.56 19.93,9.17 23.92,-1.86c7.17,-6.39 17.9,-2.13 26.61,-3.63c26.53,-8.63 67.6,-26.58 66.57,17.52c11.07,26.67 43.48,7.2 42.86,35.57c36.52,5.24 4.18,50.98 19.73,74.55c-3.55,18.43 -12.19,35.58 -18.91,50.69c-5.98,-2.29 -11.97,-3.34 -12.98,-10.13c-5.56,-5.05 4.97,-13.44 -4.2,-16.15c-7.2,-3.54 -7.76,-13.23 -14.31,-17.92c-6.31,-4.72 -11.59,-10.35 -16.1,-16.81c-5.07,-6.12 -11.03,-11.46 -16.18,-17.47c-2.37,-6.63 -10.24,-7.51 -15.85,-4.6c-6.39,4.45 -13.62,-0.67 -15.21,-7.37c-0.16,-7.43 -12.45,-3.48 -10.29,-12.39c-2.62,-7.04 -12.77,-8.51 -17.25,-2.25c-3.34,5.2 -9.68,7.79 -11.35,14.17c-3.26,5.23 -1.62,12.05 -3.29,17.06c-3.05,0.81 -6.49,0.53 -9.52,-0.26" id="path7047"/>
  </g>
  <g display="none"    id="layer7">
   <g display="inline" transform="matrix(0.86702, 0, 0, 0.86702, 808.65, 72.21)" id="g1472">
    <path fill="none" stroke-width="4" stroke="#0000ff" d="m-570.19947,538.06538c5.3,8.13 14.19,14.51 24.31,11.05c5.22,9.01 13.2,16.49 24.5,14.64c9.17,0.9 22.98,-1.29 24.12,-12.4c4.49,-7.01 13.21,-20.47 23.07,-15.64c6.01,2.91 10.97,-11.62 16.33,-1.83c9.71,1.68 21.69,-5.15 30.53,3.51c7.15,7.06 12.67,19.1 24.45,18.45c7.7,2.88 20.32,-4.69 23.44,-1.58c-2.35,15.64 21.71,12.02 20.57,25.98c-3.45,12.02 6.28,20.14 12.72,28.74c5.06,9.76 5.46,23.36 19.81,21.69c1.78,5.88 6.58,8.47 11.43,9.09c-1.34,10.35 9.07,21.65 -2.87,28.74c-5.02,9.1 9.44,24.95 -3.61,28.39c-2.14,7.38 -4.72,17.15 -14.63,19.74c-1.94,3.43 -2.1,0.43 -1.57,-0.84" id="path5846"/>
    <path fill="none" stroke-width="4" stroke="#0000ff" stroke-linejoin="round" d="m-380.83947,552.30538c-2.09,1.63 -4.56,-2.47 -5.86,-3.6c-1.31,-1.15 -2.74,-4.11 -4.05,-5.86c-1.47,-1.96 -1.33,-3.93 -1.8,-6.3c-0.41,-2.06 0,-4.65 0,-6.76c0,-2.41 1.29,-3.69 1.8,-5.4c0.4,-1.32 1.03,-3.08 1.35,-4.06" id="path5848"/>
    <path fill="none" stroke-width="4" stroke="#0000ff" stroke-linejoin="round" d="m-350.21947,511.32538c-2.1,2.37 -6.13,2.7 -7.26,5.99c-1.25,2.58 -3.99,5.15 -7.07,4.4c-3.63,-1.12 -4.16,-6 -7.77,-7.11c-2.66,-0.7 -4.91,1.3 -6.33,3.31c-1.68,2.13 -3.95,4.22 -6.85,4.11c-3.14,-0.05 -5.11,-2.93 -7.91,-3.91c-2.8,-1.25 -5.77,-2.02 -8.6,-3.19" id="path5850"/>
    <path fill="none" stroke-width="4" stroke="#0000ff" stroke-linejoin="round" d="m-334.44947,520.32538c-0.58,-1.28 -4.01,-3.01 -5.41,-4.05c-1.52,-1.14 -3.94,-2.63 -5.4,-3.6c-1.37,-0.92 -4.12,-0.97 -5.41,-1.35" id="path5865"/>
    <path fill="none" stroke-width="4" stroke="#0000ff" stroke-linejoin="round" d="m-347.95947,511.32538c0.22,-11.58 -16.52,-13.95 -19.69,-24.83c-4.24,-13.99 -18.81,-8.89 -26.96,-2.1c-10.95,3.87 -22.94,-0.45 -34.11,0.71c-6.64,4.98 -11.57,9.81 -20.13,2.8c-10.12,-4.34 -20.39,-17.16 -32.17,-10.27c-9,4.44 -18.44,14.39 -29.08,8.47c-4.61,-7.83 -11.07,-5.44 -18.03,-2.41c-9.85,-1.12 -13.84,-12.26 -22.5,-14.71c-9.49,2.94 -15.82,12.21 -27.02,11.51c-11.11,4.92 -20.42,12.45 -33.11,13.57c-8.91,4.52 -14.73,16.83 -26.11,14.8c-4.89,-0.86 -10.19,-1.74 -15.1,-0.7" id="path5869"/>
    <path fill="none" stroke-width="4" stroke="#0000ff" stroke-linejoin="round" d="m-401.10947,514.92538c-10.47,-2.98 -21.24,-6.11 -32.16,-7.21c-9.16,0.13 -18.85,-2.19 -27.29,2.71c-11.82,-0.25 -21.35,7.05 -27.49,16.69c-4.64,9.25 -14.29,10.21 -22.92,6.99c-9.68,3.03 -19.63,2.09 -29.42,0.56c-14.19,-3.09 -28.73,-1.25 -43.12,-1.73c-10.57,-1.54 -16.99,8.39 -26.41,10.45c-9.82,-1.9 -14.34,7.21 -20.03,13.1c-4.83,3.77 -9.26,9.54 -15.26,11.13" id="path5871"/>
    <path fill="none" stroke-width="4" stroke="#0000ff" stroke-linejoin="round" d="m-569.99947,539.24538c-1.35,-1.18 -3.87,-2.7 -6.3,-4.05c-1.96,-1.09 -3.48,-1.48 -5.41,-2.26" id="path5875"/>
    <path fill="none" stroke-width="4" stroke="#0000ff" stroke-linejoin="round" d="m-540.26947,558.61538c-4.67,0.78 -6.48,6.25 -9.89,9c-4.13,4.16 -10.49,6.07 -16.24,5.11c-3.14,-1.2 -5.23,-4.35 -8.69,-5.03c-4.82,-1.62 -9.86,-0.09 -14.8,-0.56c-4.95,-0.3 -9.87,1.23 -13.79,4.26c-4.03,3 -8.74,-0.55 -11.86,-3.22c-4.2,-3.85 -11.34,-3.53 -15.43,0.34c-3.91,1.75 -8.33,0.2 -12.34,-0.44c-0.63,-0.17 -1.26,-0.33 -1.9,-0.46" id="path5877"/>
    <path fill="none" stroke-width="4" stroke="#0000ff" stroke-linejoin="round" d="m-548.82947,468.98538c-0.51,-4.78 0.84,-10.06 -2.2,-14.39c-3.45,-4.59 -6.51,-9.55 -7.49,-15.34c-2.2,-4.92 -0.87,-11.57 -5.8,-14.97c-5.12,-4.66 -10.5,-9.3 -14.24,-15.2c-0.32,-4.81 0.58,-9.78 1.06,-14.61c1.07,-5.77 4.98,-10.55 6.31,-16.18c0.67,-6.76 0.64,-13.96 -2.99,-19.95c-3.15,-4.91 -7.09,-9.27 -9.89,-14.41c-1.78,-2.26 -4.08,-3.98 -4.84,-6.91" id="path5879"/>
    <path fill="none" stroke-width="4" stroke="#0000ff" stroke-linejoin="round" d="m-474.06947,510.87538c-1.28,-3.42 0.83,-7.73 -2.3,-10.49c-3.09,-3.48 -5.55,-7.48 -8.72,-10.89c-3.65,-2.31 -8.02,-3.33 -11.73,-5.59c-4.41,-2.78 -8.52,-6.03 -12.97,-8.72c-6.86,-3.36 -13.52,-7.1 -20.33,-10.55c-4.32,-1.16 -8.19,-3.39 -11.87,-5.88c-3.88,-2.31 -8.33,-3.88 -11.13,-7.62c-0.54,-0.66 -1.25,-0.75 -1.12,-1.51" id="path5881"/>
    <path fill="none" stroke-width="4" stroke="#0000ff" stroke-linejoin="round" d="m-365.52947,488.80538c-2.97,-9.48 9.53,-11.8 15.61,-14.32c2.26,-5.56 8.88,-17.45 14.72,-13.92c-3.28,8.81 6.06,11.85 10.77,4.76c3.03,-6.92 -12.07,-14.96 -0.51,-19.42c5.97,-3.88 13.75,-9.49 15.47,-15.77c-4.38,-6.25 -6.67,-13.22 -5.01,-20.66c-2.51,-4.54 -13.03,-10.59 -3.31,-13.45c6.78,-8.96 -8.03,-13.03 -10.59,-20.33c-3.07,-7.51 -3.91,-15.63 -7.17,-23.15c-4.22,-9.35 2.1,-16.4 6.22,-23.85c-2.06,-8.38 -9.84,-14.08 -11.28,-22.8c-2.71,-8.07 -12.49,-11 -15.29,-19.18c-4.77,-4.37 -12.56,6.83 -13.68,-3.73c-5.1,-7.4 -13.52,-11.62 -20.72,-16.67l-1.79,-0.62l-1.81,-0.28" id="path5883"/>
    <path fill="none" stroke-width="4" stroke="#0000ff" stroke-linejoin="round" d="m-350.21947,293.78538c-0.1,-1.85 1.48,-3.52 2.17,-5.22c2.01,-4.99 6.42,-8.36 9.29,-12.79c1.16,-1.89 4.05,-3.8 2.83,-6.28c-1.37,-2.46 -4.53,-3.58 -5.14,-6.53c-0.47,-2.26 -0.93,-4.59 -0.2,-6.86c0.64,-2.49 0.93,-5.24 -0.38,-7.58c-0.41,-1.93 -1.99,-3.86 -3.87,-2.1c-1.84,1.16 -3.24,3.02 -5.27,3.86c-2.22,0.04 -4.48,-0.23 -5.76,-2.32c-1.11,-1.41 -2.37,-2.54 -4.02,-3.27" id="path5885"/>
    <path fill="none" stroke-width="4" stroke="#0000ff" stroke-linejoin="round" d="m-580.80947,533.84538c-3.6,-0.38 -7.27,0.07 -10.89,0.1c-3.83,0.34 -7.69,0.22 -11.45,1.11c-4.31,0.78 -8.4,-1.39 -12.65,-1.43c-2.96,0.59 -5.52,2.64 -8.64,2.7c-3.04,0.92 -5.73,-0.89 -8.08,-2.61c-2.71,-1.8 -6.12,-0.87 -9.15,-1.29c-4.14,0.52 -7.52,3.24 -11.07,5.21c-2,2 -1.78,5.24 -2.07,7.85c0.49,3.19 2.72,5.9 2.66,9.23c0.64,2.75 -0.49,5.34 -1.17,7.95c-0.29,1.49 0,3 0,4.5" id="path5887"/>
    <path fill="none" stroke-width="4" stroke="#0000ff" stroke-linejoin="round" d="m-638.00947,534.29538c-2.78,-1.3 -4.33,-8.52 -8.61,-10.41c-4.58,-4.13 -5.67,-10.67 -9.49,-15.31c-5.23,-3.22 -11.68,-1.28 -17.42,-1.26c-6.14,0.59 -4.23,-9.42 -10.11,-7.96c-6.21,0.56 -8.24,9.12 -15.45,7.48c-4.63,-1.97 -9.88,-3.46 -14.57,-0.64c-5.02,3.03 -11.24,2.8 -16.78,1.63c-5.31,-1.77 -7.83,-7.89 -11.28,-12c-1.98,-5.68 -6.88,-9.29 -12.08,-11.85c-2.98,-2.11 -6.55,-3.47 -9.41,-5.53" id="path5889"/>
    <path fill="none" stroke-width="4" stroke="#0000ff" stroke-linejoin="round" d="m-656.01947,507.26538c-1.96,-0.78 4.2,0.3 6.3,0.45" id="path5891"/>
    <path fill="none" stroke-width="4" stroke="#0000ff" stroke-linejoin="round" d="m-654.21947,540.59538c-2.89,-1.35 -7.1,-0.81 -8.91,-3.77c-1.61,-2.61 -2.18,-6.53 -5.65,-7.35c-2.79,-1.47 -6.05,0.4 -9.04,0.3c-5.89,-0.33 -11.82,-0.64 -17.59,-1.99c-2.9,-0.75 -5.77,0.15 -8.22,1.74c-5,2.08 -9.37,5.41 -14.51,7.18c-5.32,1.74 -10.75,3.17 -15.93,5.34c-1.12,0.4 -2.3,0.56 -3.47,0.8" id="path5893"/>
    <path fill="none" stroke-width="4" stroke="#0000ff" stroke-linejoin="round" d="m-700.15947,527.98538c-1.28,0.51 -4.95,-2.4 -6.3,-3.15c-1.81,-1.01 -4.79,-1.46 -6.76,-2.25c-2.71,-1.09 -3.44,-2.78 -4.95,-4.51c-1.31,-1.49 -1.15,-4.71 -1.35,-6.75c-0.07,-0.71 0,-1.55 0,-2.26" id="path5895"/>
    <path fill="none" stroke-width="4" stroke="#0000ff" stroke-linejoin="round" d="m-717.71947,518.07538c-5.17,-0.11 -10.35,0.18 -15.5,-0.13c-3.09,-1 -4.48,-4.28 -6.57,-6.52c-1.69,-2.63 -3.56,-5.23 -6.33,-6.82c-4.4,-2.69 -8.44,-5.93 -13,-8.34c-3.31,-2.13 -7.37,-2.6 -11.2,-2.08c-3.46,-0.21 -6.21,2.26 -9.27,3.46c-1.83,0.97 -3.37,2.43 -5.24,3.32" id="path5897"/>
    <path fill="none" stroke-width="4" stroke="#0000ff" stroke-linejoin="round" d="m-576.74947,338.37538c-3.1,0.12 -6.38,0.35 -9.4,-0.44c-4.91,-2.66 -9.59,-6.22 -12.22,-11.27c-2.54,-2.19 -6.33,-1.15 -9.24,-2.66c-3.11,-1.65 -6.55,-2.32 -10.05,-2.22c-3.6,-0.47 -7.31,-0.61 -10.77,-1.78c-3.75,-1.49 -7.67,-2.7 -10.93,-5.2c-3.21,-1.96 -4.78,-5.92 -8.55,-7.1c-2.7,-1.46 -5.61,-2.67 -8.76,-2.25c-3.71,0.11 -7.43,-0.35 -11.12,-0.65c-0.43,-0.07 -0.86,-0.15 -1.29,-0.21" id="path5899"/>
    <path fill="none" stroke-width="4" stroke="#0000ff" stroke-linejoin="round" d="m-432.17947,171.28538c3.06,-5.68 2.69,-16.93 3.53,-24.79c-0.12,-8.85 0.78,-17.8 -0.83,-26.55c3.34,-7.24 10.91,-11.59 15.76,-17.84c5.17,-6.27 11.76,-11.32 15.4,-18.72c6.52,-10.82 13.69,-21.24 21.19,-31.41c6.25,-5.37 15.79,-2.66 23.08,-6c8.71,-0.17 14.24,-7.52 22.3,-8.9c7.86,-0.01 14.62,-5.22 22.56,-4.07c7.78,-1.37 15.74,-2 23.48,-3.4c5.43,-1.69 10.99,-3.04 16.11,-5.59" id="path5903"/>
    <path fill="none" stroke-width="4" stroke="#0000ff" stroke-linejoin="round" d="m-271.84947,25.36538c1.19,-1.11 6.86,-3.59 10,-2.72c4.32,0.91 8.33,2.91 12.21,4.92c3.7,2.6 6.87,6.04 10.8,8.23c4.67,2.59 8.52,-2.15 11.8,-4.84c3.42,-2.99 6.28,-6.6 9.81,-9.46c4.84,-2.52 9.8,-4.93 14.37,-7.93c3.33,-4.67 8.96,-5.96 14.09,-7.71c6.14,-2.6 12.92,-0.14 19.2,-1.57c2.14,-1.08 4.45,-2.06 5.81,-4.14" id="path5907"/>
    <path fill="none" stroke-width="4" stroke="#0000ff" stroke-linejoin="round" d="m-338.05947,717.14538c-7.49,3.15 -11.55,10 -13.37,17.6c-5.3,6.34 -4.95,14.75 -6.91,22.04c-6.26,1.47 -14.03,3.69 -16.91,9.81c-4.26,4.39 -16.22,2.54 -16.85,10.9c2.63,5.96 0.1,10.16 -4.94,13.64c-5.03,5.43 -7.33,12.95 -8.4,19.92c1.22,6.58 5.19,13.45 0.57,19.77c-2.64,5.86 -6.33,11.17 -9.37,16.83c-3.55,5.89 -8.78,11.17 -8.84,18.53c0.93,5.99 11.67,7.43 10.78,14.63c-2.62,6.77 -4.41,13.8 -5.47,20.96" id="path5925"/>
    <path fill="none" stroke-width="4" stroke="#0000ff" d="m-737.26947,594.13538c-3.07,3.07 -5.53,6.75 -8.3,10.11c-1.81,2.99 -6.18,6.09 -3.32,9.86c3.06,4.72 5.89,9.62 8.16,14.76c0.71,4.32 -0.54,8.74 -1,13.04" id="path3276"/>
    <path fill="#e22828" stroke-width="4" stroke="#0000ff" fill-rule="evenodd" stroke-linejoin="round" d="m-737.09947,684.01538c0.38,-0.89 -0.18,-4.26 -0.35,-6.01c-0.2,-2.03 -1.82,-3.99 -2.47,-5.3c-0.56,-1.11 0,-4.02 0,-5.3l0,-1.77" id="path3297"/>
   </g>
  </g>
  <g display="none"    id="layer1">
   <g display="inline" transform="matrix(0.86702, 0, 0, 0.86702, 45.667, 72.21)" id="g1970">
    <text font-style="oblique" fill="#000080" font-family="Bitstream Vera Sans" font-size="16px" xml:space="preserve" x="652.9105" y="49.53756"  id="text1546">
     <tspan  x="652.9105" y="49.53756" id="tspan1548">Groningen</tspan>
    </text>
    <text font-style="oblique" fill="#000080" font-family="Bitstream Vera Sans" font-size="16px" xml:space="preserve" x="443.9105" y="89.53756"  id="text1550">
     <tspan  x="443.9105" y="89.53756" id="tspan1552">Friesland</tspan>
    </text>
    <text font-style="oblique" fill="#000080" font-family="Bitstream Vera Sans" font-size="16px" xml:space="preserve" x="635.9105" y="175.53756"  id="text1554">
     <tspan  x="635.9105" y="175.53756" id="tspan1556">Drenthe</tspan>
    </text>
    <text font-style="oblique" fill="#000080" font-family="Bitstream Vera Sans" font-size="16px" xml:space="preserve" x="577.9105" y="321.53756"  id="text1558">
     <tspan  x="577.9105" y="321.53756" id="tspan1560">Overijssel</tspan>
    </text>
    <text font-style="oblique" fill="#000080" font-family="Bitstream Vera Sans" font-size="16px" xml:space="preserve" x="396.9105" y="311.53756"  id="text1562">
     <tspan  x="396.9105" y="311.53756" id="tspan1564">Flevoland</tspan>
    </text>
    <text font-style="oblique" fill="#000080" font-family="Bitstream Vera Sans" font-size="16px" xml:space="preserve" x="473.9105" y="433.53756"  id="text1566">
     <tspan  x="473.9105" y="433.53756" id="tspan1568">Gelderland</tspan>
    </text>
    <text font-style="oblique" fill="#000080" font-family="Bitstream Vera Sans" font-size="16px" xml:space="preserve" x="308.9105" y="460.53756"  id="text1570">
     <tspan  x="308.9105" y="460.53756" id="tspan1572">Utrecht</tspan>
    </text>
    <text font-style="oblique" fill="#000080" font-family="Bitstream Vera Sans" font-size="16px" xml:space="preserve" x="237.9105" y="265.53756"  id="text1574">
     <tspan  x="237.9105" y="265.53756" id="tspan1604">Noord -</tspan>
     <tspan  x="237.9105" y="285.53756" id="tspan1606">Holland</tspan>
    </text>
    <text font-style="oblique" fill="#000080" font-family="Bitstream Vera Sans" font-size="16px" xml:space="preserve" x="171.9105" y="477.53756"  id="text1578">
     <tspan  x="171.9105" y="477.53756" id="tspan1600">Zuid -</tspan>
     <tspan  x="171.9105" y="497.53756" id="tspan1602">Holland</tspan>
    </text>
    <text font-style="oblique" fill="#000080" font-family="Bitstream Vera Sans" font-size="16px" xml:space="preserve" x="26.9105" y="656.53756"  id="text1582">
     <tspan  x="26.9105" y="656.53756" id="tspan1584">Zeeland</tspan>
    </text>
    <text font-style="oblique" fill="#000080" font-family="Bitstream Vera Sans" font-size="16px" xml:space="preserve" x="274.9105" y="633.53756"  id="text1586">
     <tspan  x="274.9105" y="633.53756" id="tspan1590">Noord - Brabant</tspan>
    </text>
    <text font-style="oblique" fill="#000080" font-family="Bitstream Vera Sans" font-size="16px" xml:space="preserve" x="476.9105" y="739.53756"  id="text1592">
     <tspan  x="476.9105" y="739.53756" id="tspan1594">Limburg</tspan>
    </text>
   </g>
  </g>
  <g display="none"    id="layer6">
   <g display="inline" transform="matrix(0.86702, 0, 0, 0.86702, 808.65, 72.21)" id="g1498">
    <path fill="none"   d="m-544.32947,57.34538a32.877,28.374 0 1 1 -65.75,0a32.877,28.374 0 1 1 65.75,0z"    id="path4061"/>
    <path fill="#e22828" stroke-width="1.25" stroke="#000000" fill-rule="evenodd" stroke-linejoin="round"   d="m-409.21117,47.88988a7.206,7.206 0 1 1 -14.41,0a7.206,7.206 0 1 1 14.41,0z"    id="path4063"/>
    <use x="166.64" y="-9.9083" width="744.09448" height="1052.3622" xlink:href="#path4063" id="use4065"/>
    <use x="0" y="0" width="744.09448" height="1052.3622" xlink:href="#use4065" id="use4067"/>
    <use x="165.74001" y="63.053" width="744.09448" height="1052.3622" xlink:href="#path4063" id="use4069"/>
    <use x="80.167" y="246.81" width="744.09448" height="1052.3622" xlink:href="#path4063" id="use4071"/>
    <use x="36.931" y="424.25" width="744.09448" height="1052.3622" xlink:href="#path4063" id="use4075"/>
    <use x="-55.847" y="240.5" width="744.09448" height="1052.3622" xlink:href="#path4063" id="use4077"/>
    <use x="-237.8" y="290.04001" width="744.09448" height="1052.3622" xlink:href="#path4063" id="use4079"/>
    <use x="-130.61" y="392.73001" width="744.09448" height="1052.3622" xlink:href="#path4063" id="use4081"/>
    <use x="-314.35999" y="392.73001" width="744.09448" height="1052.3622" xlink:href="#path4063" id="use4085"/>
    <use x="-462.09" y="591.78998" width="744.09448" height="1052.3622" xlink:href="#path4063" id="use4087"/>
    <use x="-91.877" y="527.84003" width="744.09448" height="1052.3622" xlink:href="#path4063" id="use4089"/>
    <use x="-0.90075" y="821.48999" width="744.09448" height="1052.3622" xlink:href="#path4063" id="use4091"/>
    <path fill="#008000" stroke-width="1.25" stroke="#000000" fill-rule="evenodd" stroke-linejoin="round"   d="m-592.05147,336.81338a12.739,12.739 0 1 1 -25.48,0a12.739,12.739 0 1 1 25.48,0z"    id="path1443"/>
   </g>
  </g>
  <g display="none"    id="layer20">
   <g display="inline" transform="matrix(0.86702, 0, 0, 0.86702, 808.65, 72.21)" id="g1515">
    <text font-style="oblique" font-weight="bold" fill="#000000" font-family="Bitstream Vera Sans" font-size="16px" xml:space="preserve" x="-620.08947" y="315.53756"  id="text3222">
     <tspan  x="-620.08947" y="315.53756" id="tspan3224">Amsterdam</tspan>
    </text>
    <text font-weight="bold" fill="#000000" font-family="Bitstream Vera Sans" font-size="12px" xml:space="preserve" x="-686.08947" y="323.53756"  id="text3226">
     <tspan  x="-686.08947" y="323.53756" id="tspan3228">Haarlem</tspan>
    </text>
    <text font-weight="bold" fill="#000000" font-family="Bitstream Vera Sans" font-size="12px" xml:space="preserve" x="-530.08947" y="272.53756"  id="text3230">
     <tspan  x="-530.08947" y="272.53756" id="tspan3232">Lelystad</tspan>
    </text>
    <text font-weight="bold" fill="#000000" font-family="Bitstream Vera Sans" font-size="12px" xml:space="preserve" x="-336.08947" y="281.53756"  id="text3234">
     <tspan  x="-336.08947" y="281.53756" id="tspan3236">Zwolle</tspan>
    </text>
    <text font-weight="bold" fill="#000000" font-family="Bitstream Vera Sans" font-size="12px" xml:space="preserve" x="-420.08947" y="34.53756"  id="text3238">
     <tspan  x="-420.08947" y="34.53756" id="tspan3240">Leeuwarden</tspan>
    </text>
    <text font-weight="bold" fill="#000000" font-family="Bitstream Vera Sans" font-size="12px" xml:space="preserve" x="-253.08947" y="22.53756"  id="text3242">
     <tspan  x="-253.08947" y="22.53756" id="tspan3244">Groningen</tspan>
    </text>
    <text font-weight="bold" fill="#000000" font-family="Bitstream Vera Sans" font-size="12px" xml:space="preserve" x="-252.08947" y="96.53756"  id="text3246">
     <tspan  x="-252.08947" y="96.53756" id="tspan3248">Assen</tspan>
    </text>
    <text font-weight="bold" fill="#000000" font-family="Bitstream Vera Sans" font-size="12px" xml:space="preserve" x="-381.08947" y="459.53756"  id="text3250">
     <tspan  x="-381.08947" y="459.53756" id="tspan3252">Arnhem</tspan>
    </text>
    <text font-weight="bold" text-anchor="middle" fill="#000000" font-family="Bitstream Vera Sans" font-size="12px" xml:space="preserve" x="-472.50011" y="595.12338"  id="text3254">
     <tspan  x="-472.50011" y="595.12338" id="tspan3303">'s Hertogenbosch</tspan>
     <tspan  x="-472.50011" y="610.12338" id="tspan3305">(Den Bosch)</tspan>
    </text>
    <text font-weight="bold" fill="#000000" font-family="Bitstream Vera Sans" font-size="12px" xml:space="preserve" x="-411.08947" y="859.53756"  id="text3258">
     <tspan  x="-411.08947" y="859.53756" id="tspan3260">Maastricht</tspan>
    </text>
    <text font-weight="bold" fill="#000000" font-family="Bitstream Vera Sans" font-size="12px" xml:space="preserve" x="-895.08947" y="628.53756"  id="text3262">
     <tspan  x="-895.08947" y="628.53756" id="tspan3264">Middelburg</tspan>
    </text>
    <text font-weight="bold" text-anchor="middle" fill="#000000" font-family="Bitstream Vera Sans" font-size="12px" xml:space="preserve" x="-784.83465" y="426.83047"  id="text3266">
     <tspan  x="-784.83465" y="426.83047" id="tspan3299">'s Gravenhage</tspan>
     <tspan  x="-784.83465" y="441.83047" id="tspan3301">(Den Haag)</tspan>
    </text>
    <text font-weight="bold" fill="#000000" font-family="Bitstream Vera Sans" font-size="12px" xml:space="preserve" x="-551.08947" y="427.53756"  id="text3270">
     <tspan  x="-551.08947" y="427.53756" id="tspan3272">Utrecht</tspan>
    </text>
   </g>
  </g>
  <text xml:space="preserve" text-anchor="start" font-family="Noto Sans JP" font-size="24" id="svg_1" y="493.92999" x="192.12" stroke-width="0" stroke="#000" fill="#ffffff">50</text>
  <text xml:space="preserve" text-anchor="start" font-family="Noto Sans JP" font-size="24" id="svg_2" y="600.92999" x="325.12" stroke-width="0" stroke="#000" fill="#ffffff">30</text>
 </g>
</svg>