<svg width="774" height="300" viewBox="0 0 774 300" fill="none" xmlns="http://www.w3.org/2000/svg">
<path fill-rule="evenodd" clip-rule="evenodd" d="M349.161 149.915C349.161 298.106 349.221 299.83 354.335 299.83C359.449 299.83 359.508 298.106 359.508 149.915C359.508 1.72402 359.449 0 354.335 0C349.221 0 349.161 1.72402 349.161 149.915ZM414.863 8.78814L406.068 17.5763V68.3665C406.068 124.404 407.53 131.018 421.503 138.24C431.223 143.262 448.166 143.262 457.887 138.24C471.86 131.018 473.321 124.404 473.321 68.3665V17.5763L464.527 8.78814C459.462 3.7272 453.153 0.0155084 449.653 0.0387711L443.575 0.0749577L449.99 3.31881C462.111 9.44725 463.104 15.1569 462.367 74.5441C461.689 129.01 461.604 129.765 455.574 134.639C447.594 141.091 431.795 141.091 423.815 134.639C417.786 129.765 417.7 129.01 417.023 74.5441C416.285 15.1569 417.279 9.44725 429.4 3.31881L435.815 0.0749577L429.736 0.0387711C426.236 0.0155084 419.927 3.7272 414.863 8.78814ZM520.665 3.09394C508.446 8.99233 506.581 19.1271 507.445 74.9654L508.241 126.547L515.241 133.536C520.854 139.139 525.231 140.739 537.352 141.616C550.758 142.585 553.376 141.939 560.565 135.893L568.669 129.08L569.755 136.265C570.353 140.22 571.015 126.296 571.227 105.328L571.615 67.2034L556.741 67.6376C545.319 67.9711 544.168 68.3097 551.78 69.098L561.695 70.1267L560.834 101.188C560.081 128.371 559.349 132.706 554.954 135.914C547.142 141.613 529.382 140.613 523.516 134.141C519.049 129.214 518.521 123.592 517.882 74.0452C517.119 15.1647 518.117 9.46792 530.28 3.31881C535.808 0.524703 535.981 0.0956356 531.521 0.211949C528.676 0.289492 523.79 1.58445 520.665 3.09394ZM550.314 2.68038C557.536 5.58047 561.268 14.8494 561.268 29.8926C561.268 39.8568 561.987 41.3559 566.762 41.3559C571.858 41.3559 572.168 40.2988 571.041 26.703C570.052 14.8183 568.498 10.9076 562.815 6.02504C558.961 2.7114 553.252 0.0749575 550.13 0.162839L544.455 0.328263L550.314 2.68038ZM623.058 3.87712C611.362 10.2278 610.037 17.9666 610.906 74.7896L611.708 127.087L620.156 134.624C627.28 140.98 630.795 142.161 642.59 142.161C653.78 142.161 658.134 140.853 664.357 135.619L672.135 129.08L673.222 136.265C673.819 140.22 674.481 126.296 674.693 105.328L675.081 67.2034L660.208 67.6376C649.173 67.9607 647.839 68.3329 655.035 69.0851L664.735 70.1009V97.2536C664.735 133.425 661.558 139.465 642.502 139.537C634.991 139.566 630.477 137.997 626.982 134.143C622.544 129.248 621.972 123.53 621.224 76.6325C620.286 17.8606 622.032 7.02792 633.092 2.99055C638.55 0.995127 638.982 0.385127 634.988 0.307585C632.143 0.253305 626.775 1.85843 623.058 3.87712ZM653.78 2.68038C661.002 5.58047 664.735 14.8494 664.735 29.8926C664.735 39.8568 665.454 41.3559 670.229 41.3559C675.325 41.3559 675.635 40.2988 674.507 26.703C673.519 14.8183 671.965 10.9076 666.282 6.02504C662.427 2.7114 656.719 0.0749575 653.597 0.162839L647.921 0.328263L653.78 2.68038ZM113.775 29.9391C86.5553 37.1144 67.2252 48.632 45.1169 70.8505C14.5503 101.57 0.0908098 135.267 0.000276455 175.995C-0.0695635 206.314 13.1017 246.037 29.7961 265.859C36.1257 273.378 37.8432 273.983 52.8588 273.983C68.772 273.983 69.0591 273.859 67.8485 267.521C66.7854 261.964 65.2205 261.059 56.6664 261.059C44.9022 261.059 38.9322 255.637 29.6849 236.553C-7.76748 159.259 32.4914 70.3516 116.186 45.5225C133.832 40.2884 167.51 40.1411 186.996 45.2124C203.217 49.4333 222.769 58.5988 232.702 66.6347C238.204 71.0883 238.587 72.3496 235.542 76.0174C233.607 78.3462 232.482 80.6596 233.038 81.1584C234.603 82.5568 269.464 88.2536 270.447 87.2714C271.587 86.1315 260.322 55.1119 257.881 52.6719C256.841 51.6303 254.544 52.7262 252.782 55.1016C249.813 59.1054 249.001 59.0356 241.815 54.1323C226.484 43.677 204.07 33.4854 188.167 29.7401C167.805 24.9402 132.368 25.0358 113.775 29.9391ZM95.1689 131.091C66.9898 159.12 43.9348 183.421 43.9348 185.094C43.9348 189.069 50.0005 191.271 60.9603 191.271H69.8015V229.525C69.8015 255.833 70.7715 268.749 72.9055 270.881C74.8972 272.872 85.0913 273.983 101.359 273.983H126.708V236.411V198.839L151.928 199.579L177.148 200.318L177.867 237.238L178.584 274.156L206.321 273.425L234.055 272.691L234.766 231.981L235.48 191.271H247.136C268.82 191.271 266.321 187.208 210.392 131.517C172.12 93.4075 157.182 80.1271 152.593 80.1271C148.007 80.1271 133.133 93.3274 95.1689 131.091ZM266.688 99.7996C267.234 101.097 270.93 108.655 274.903 116.593C286.28 139.331 291.37 168.66 287.935 191.705C284.5 214.756 276.58 236.253 266.287 250.449C259.495 259.819 257.389 261.059 248.266 261.059C238.969 261.059 237.935 261.708 237.935 267.521C237.935 273.691 238.633 273.983 253.323 273.983C267.669 273.983 269.148 273.409 275.175 265.515C285.757 251.651 297.363 224.229 301.823 202.548C305.271 185.797 305.519 178.363 303.24 160.254C300.545 138.84 292.943 113.938 286.432 105.209C283.028 100.642 264.963 95.6925 266.688 99.7996ZM484.134 135.053C484.677 138.871 486.739 140.869 490.135 140.869C493.531 140.869 495.593 138.871 496.136 135.053C496.814 130.282 495.735 129.237 490.135 129.237C484.535 129.237 483.456 130.282 484.134 135.053ZM587.575 134.846C588.676 142.629 598.775 143.397 598.775 135.699C598.775 132.254 596.765 130.245 592.748 129.677C587.732 128.966 586.863 129.834 587.575 134.846ZM410.595 159.494L416.415 160.614V228.75V296.886L410.595 298.006C407.393 298.623 416.764 299.285 431.417 299.479C459.172 299.846 470.991 296.706 474.302 288.083C475.184 285.782 475.908 273.611 475.908 261.036C475.908 239.415 475.538 237.882 469.092 232.816C465.344 229.869 460.598 227.458 458.546 227.458C456.389 227.458 458.169 224.64 462.776 220.766C470.437 214.325 470.735 213.306 470.735 193.455C470.735 182.116 469.594 170.71 468.202 168.109C464.291 160.807 451.353 157.636 427.023 158.021C414.785 158.215 407.393 158.877 410.595 159.494ZM504.969 166.512L495.308 175.354L494.509 224.384C493.873 263.23 494.504 275.314 497.538 282.572C501.607 292.304 514.512 300.968 521.995 298.993C525.094 298.176 524.687 297.76 520.588 297.546C508.542 296.917 505.732 286.889 504.737 240.924C503.218 170.715 506.343 160.254 528.834 160.254C544.776 160.254 550.065 166.447 552.352 187.795C554.499 207.808 552.489 281.089 549.613 287.84C548.482 290.487 543.953 294.222 539.54 296.139C533.578 298.735 532.848 299.652 536.695 299.719C546.426 299.893 558.203 290.342 561.095 279.933C565.51 264.047 564.633 188.151 559.9 176.329C554.796 163.586 544.636 157.669 527.851 157.669C516.41 157.669 513.332 158.858 504.969 166.512ZM581.315 159.494L587.135 160.614V220.011C587.135 284.573 588.288 290.823 601.289 296.742C605.019 298.44 613.679 299.83 620.531 299.83C630.389 299.83 634.347 298.474 639.492 293.332C648.452 284.379 649.215 278.364 649.215 216.713C649.215 163.087 649.259 162.655 655.035 160.334C659.543 158.525 657.65 158.005 646.628 158.037C638.803 158.06 634.147 158.701 636.281 159.463C645.715 162.831 646.628 168.06 646.566 218.259C646.532 245.354 645.425 272.174 644.106 277.86C641.194 290.427 633.41 297.246 621.98 297.246C598.883 297.246 597.481 292.826 597.481 220.011V160.614L603.301 159.494C606.504 158.877 601.555 158.373 592.308 158.373C583.061 158.373 578.112 158.877 581.315 159.494ZM667.59 159.378C670.837 160.246 673.028 169.334 677.647 201.08C680.896 223.407 685.431 254.453 687.725 270.075C690.793 290.978 692.922 298.67 695.785 299.22C698.951 299.825 701.318 289.223 708.48 242.387C713.323 210.719 717.989 183.977 718.853 182.961C719.717 181.945 724.394 207.826 729.246 240.472C735.578 283.076 739.024 299.83 741.448 299.83C743.302 299.83 745.423 297.212 746.158 294.015C747.568 287.873 763.028 174.644 763.028 170.454C763.028 169.11 765.356 165.682 768.201 162.839L773.375 157.669L761.088 157.832C751.106 157.967 749.893 158.435 754.621 160.334C757.824 161.622 760.46 163.583 760.48 164.695C760.669 174.915 746.127 273.404 744.802 270.866C743.843 269.025 739.187 242.806 734.456 212.595C728.628 175.38 724.823 157.669 722.661 157.669C720.904 157.669 718.786 160.867 717.955 164.778C715.604 175.853 700.977 269.664 700.961 273.769C700.953 275.782 700.467 276.945 699.877 276.353C698.938 275.407 682.841 168.008 682.841 162.684C682.841 161.557 684.88 160.102 687.368 159.45C689.856 158.802 685.493 158.269 677.668 158.269C669.843 158.269 665.309 158.768 667.59 159.378ZM454.638 164.279C459.858 167.928 460.388 170.454 460.388 191.587C460.388 222.252 458.854 224.873 440.898 224.873H426.761V192.564V160.254H437.825C443.911 160.254 451.477 162.066 454.638 164.279ZM460.388 232.627C464.819 237.055 465.561 241.242 465.561 261.775C465.561 293.552 463.122 297.246 442.134 297.246H426.761V262.352V227.458H440.988C451.767 227.458 456.469 228.711 460.388 232.627Z" fill="black"/>
</svg>
